<?xml version="1.0" standalone="no"?>
<!DOCTYPE svg PUBLIC "-//W3C//DTD SVG 1.1//EN" "http://www.w3.org/Graphics/SVG/1.1/DTD/svg11.dtd" >
<svg xmlns="http://www.w3.org/2000/svg" xmlns:xlink="http://www.w3.org/1999/xlink" version="1.1">
<metadata></metadata>
<defs>
<font id="pentor_corporatebold" horiz-adv-x="0" >
<font-face units-per-em="2048" ascent="1638" descent="-410" />
<missing-glyph horiz-adv-x="405" />
<glyph unicode="fi" horiz-adv-x="1323" d="M29 827l39 209h125v92q0 159 87.5 244.5t249.5 85.5h205l-41 -213h-98q-48 0 -74 -26.5t-26 -75.5v-107h211l-39 -209h-172v-827h-303v827h-164zM877 1208v250h311v-250h-311zM881 0v1036h303v-1036h-303z" />
<glyph unicode="fl" horiz-adv-x="1323" d="M29 827l39 209h125v92q0 159 87.5 244.5t249.5 85.5h205l-41 -213h-98q-48 0 -74 -26.5t-26 -75.5v-107h211l-39 -209h-172v-827h-303v827h-164zM881 0v1434l303 45v-1479h-303z" />
<glyph unicode="&#xe24;&#xe45;" horiz-adv-x="2099" d="M90 762v51q74 169 219.5 259.5t343.5 90.5q158 0 279.5 -56.5t191.5 -160.5h11q54 106 155.5 161.5t239.5 55.5q204 0 316 -118.5t112 -333.5v-1100l-309 -45v1104q0 122 -55.5 187t-159.5 65q-110 0 -172 -73t-62 -204v-1034l-309 -45v1122q0 110 -63 172t-173 62 q-84 0 -145.5 -35.5t-89.5 -100.5l151 -84v-79l-120 -115v-178q0 -92 92 -92h121l-43 -238h-162q-157 0 -237.5 76.5t-80.5 226.5v240l127 112z" />
<glyph unicode="&#xe26;&#xe45;" horiz-adv-x="2095" d="M12 0l41 238h45q74 0 74 69v244l111 100l-189 111v51q72 169 216.5 259.5t342.5 90.5q158 0 278.5 -56.5t188.5 -160.5h10q54 106 156 161.5t242 55.5q203 0 314.5 -118t111.5 -334v-1100l-309 -45v1104q0 122 -55.5 187t-159.5 65q-111 0 -172.5 -72.5t-61.5 -204.5 v-1034l-309 -45v1122q0 110 -62 172t-172 62q-83 0 -143.5 -35.5t-85.5 -98.5l156 -88v-79l-105 -107v-235q0 -136 -75 -207.5t-218 -71.5h-170z" />
<glyph unicode="&#xd;" horiz-adv-x="405" />
<glyph unicode=" "  horiz-adv-x="405" />
<glyph unicode="&#x09;" horiz-adv-x="405" />
<glyph unicode="&#xa0;" horiz-adv-x="405" />
<glyph unicode="!" horiz-adv-x="630" d="M143 1434h344l-53 -977h-237zM158 0v311h315v-311h-315z" />
<glyph unicode="&#x22;" horiz-adv-x="860" d="M100 1434h279l-39 -504h-201zM481 1434h279l-39 -504h-201z" />
<glyph unicode="#" horiz-adv-x="1253" d="M84 371l31 239h188l33 240h-203l33 240h203l49 344h215l-49 -349h178l49 349h215l-49 -344h192l-30 -240h-195l-33 -240h207l-31 -239h-210l-52 -371h-215l54 375h-179l-53 -375h-215l51 371h-184zM516 606h178l35 248h-178z" />
<glyph unicode="$" horiz-adv-x="1228" d="M70 463h284q6 -98 60 -159.5t147 -78.5v379l-82 19q-191 43 -285 144.5t-94 266.5q0 187 122 300t339 122v182h101v-182q201 -15 319 -132.5t127 -307.5h-281q-6 76 -49 126.5t-116 67.5v-340l79 -18q207 -46 308.5 -153t101.5 -279q0 -199 -131 -318t-358 -127v-200 h-101v202q-222 19 -353 148t-138 338zM383 1061q0 -128 166 -166l12 -2v326q-83 -6 -130.5 -48t-47.5 -110zM662 219q97 7 148.5 53.5t51.5 124.5q0 72 -47 116.5t-145 66.5l-8 2v-363z" />
<glyph unicode="%" horiz-adv-x="1648" d="M57 1094q0 167 87 265.5t235 98.5q146 0 232.5 -98.5t86.5 -265.5q0 -169 -86.5 -269t-232.5 -100q-148 0 -235 100t-87 269zM264 1094q0 -91 30.5 -143t84.5 -52q53 0 83 52t30 143t-30 142.5t-83 51.5q-54 0 -84.5 -51.5t-30.5 -142.5zM272 -119l918 1635h166 l-918 -1635h-166zM950 348q0 167 87 266t235 99q146 0 232.5 -99t86.5 -266q0 -169 -86.5 -268.5t-232.5 -99.5q-148 0 -235 99.5t-87 268.5zM1157 348q0 -91 30.5 -141.5t84.5 -50.5t83 50.5t29 141.5q0 93 -29 144t-83 51t-84.5 -51.5t-30.5 -143.5z" />
<glyph unicode="&#x26;" horiz-adv-x="1415" d="M66 379q0 265 284 416q-125 171 -125 323q0 157 114 248.5t308 91.5q190 0 298 -86.5t108 -238.5q0 -126 -76.5 -228t-216.5 -164l205 -235q50 106 53 250h270q-6 -271 -153 -449l22 -26q47 -56 133 -56h96l-57 -237h-145q-146 0 -256 118q-150 -131 -385 -131 q-217 0 -347 110.5t-130 293.5zM385 412q0 -88 57.5 -142.5t149.5 -54.5q109 0 188 66l-278 329q-117 -74 -117 -198zM524 1110q0 -83 103 -211q69 41 107 96t38 115q0 59 -33.5 93t-91.5 34q-57 0 -90 -34t-33 -93z" />
<glyph unicode="'" horiz-adv-x="495" d="M100 1434h295l-39 -504h-217z" />
<glyph unicode="(" horiz-adv-x="704" d="M84 627q0 266 86 513.5t246 440.5h256q-141 -195 -217 -442t-76 -512t76 -512.5t217 -442.5h-256q-160 193 -246 441t-86 514z" />
<glyph unicode=")" horiz-adv-x="704" d="M33 -328q141 195 217 442.5t76 512.5t-76 512t-217 442h256q160 -194 246 -440.5t86 -513.5t-86 -514t-246 -441h-256z" />
<glyph unicode="*" horiz-adv-x="851" d="M66 1042l233 95l-233 96l57 158l211 -107l-6 203h194l-6 -203l213 107l57 -158l-235 -96l235 -95l-57 -159l-213 106l6 -209h-194l6 209l-211 -106z" />
<glyph unicode="+" horiz-adv-x="1228" d="M96 557v223h396v418h245v-418h396v-223h-396v-416h-245v416h-396z" />
<glyph unicode="," horiz-adv-x="575" d="M63 -205l107 518h315l-200 -518h-222z" />
<glyph unicode="-" horiz-adv-x="819" d="M102 457v241h615v-241h-615z" />
<glyph unicode="." horiz-adv-x="544" d="M115 0v311h315v-311h-315z" />
<glyph unicode="/" horiz-adv-x="874" d="M-27 -328l639 1909h242l-639 -1909h-242z" />
<glyph unicode="0" horiz-adv-x="1228" d="M57 717q0 358 144.5 549.5t414.5 191.5q267 0 411 -192t144 -549q0 -358 -144 -550t-411 -192q-270 0 -414.5 192t-144.5 550zM375 717q0 -242 61.5 -367t179.5 -125q117 0 177.5 124.5t60.5 367.5t-60.5 367t-177.5 124q-119 0 -180 -125t-61 -366z" />
<glyph unicode="1" horiz-adv-x="1228" d="M195 0l41 240h282v850h-10l-295 -191v295l348 240h268v-1194h304l-41 -240h-897z" />
<glyph unicode="2" horiz-adv-x="1228" d="M86 0v211l524 506q92 89 133 161t41 144q0 85 -47 133.5t-129 48.5q-89 0 -145.5 -58t-67.5 -159h-293q20 221 157.5 346t361.5 125q218 0 348.5 -115t130.5 -307q0 -123 -61.5 -233.5t-207.5 -253.5l-305 -301h594l-18 -248h-1016z" />
<glyph unicode="3" horiz-adv-x="1228" d="M86 467h303q9 -115 69 -178.5t160 -63.5q95 0 150 56t55 151q0 92 -54 143.5t-151 51.5h-135v229h125q90 0 140.5 48t50.5 134q0 82 -47 128t-129 46q-91 0 -145 -59t-60 -166h-293q14 221 148 346t358 125q220 0 349.5 -105.5t129.5 -283.5q0 -112 -56.5 -192 t-162.5 -117v-8q118 -23 185 -111.5t67 -222.5q0 -200 -142.5 -321.5t-377.5 -121.5q-236 0 -378 130t-159 362z" />
<glyph unicode="4" horiz-adv-x="1228" d="M55 281v198l586 955h352v-922h183l-41 -231h-142v-281h-305v281h-633zM326 512h366v588h-6l-360 -580v-8z" />
<glyph unicode="5" horiz-adv-x="1228" d="M92 397h307q8 -78 62.5 -125t140.5 -47q101 0 160 67t59 183q0 120 -64.5 189t-176.5 69q-149 0 -228 -117h-225l57 746q6 72 76 72h799l-41 -240h-567q-28 0 -31 -29l-35 -325h6q49 57 136 90t186 33q196 0 312 -130.5t116 -351.5q0 -235 -143.5 -370.5t-391.5 -135.5 q-224 0 -361.5 113t-152.5 309z" />
<glyph unicode="6" horiz-adv-x="1228" d="M70 676q0 376 149 579t426 203q206 0 337 -110.5t151 -300.5h-295q-12 77 -63.5 119t-133.5 42q-259 0 -268 -440h8q44 76 139 120t213 44q201 0 315.5 -119t114.5 -330q0 -234 -143 -371t-389 -137q-269 0 -415 182.5t-146 518.5zM391 469q0 -109 66.5 -176.5 t173.5 -67.5q105 0 167 64.5t62 173.5q0 112 -61.5 175.5t-169.5 63.5q-107 0 -172.5 -63.5t-65.5 -169.5z" />
<glyph unicode="7" horiz-adv-x="1228" d="M82 1174l41 260h1003v-230l-563 -1204h-342l553 1165v9h-692z" />
<glyph unicode="8" horiz-adv-x="1228" d="M86 403q0 133 65.5 225.5t190.5 133.5v8q-101 43 -154 123t-53 188q0 172 130 274.5t349 102.5t349.5 -102.5t130.5 -274.5q0 -108 -53 -188t-154 -123v-8q125 -41 190.5 -133.5t65.5 -225.5q0 -197 -143 -312.5t-386 -115.5t-385.5 115.5t-142.5 312.5zM401 434 q0 -98 56.5 -153.5t156.5 -55.5t156.5 55.5t56.5 153.5q0 100 -56.5 156.5t-156.5 56.5t-156.5 -56.5t-56.5 -156.5zM434 1042q0 -83 47.5 -130.5t132.5 -47.5t133 47.5t48 130.5q0 82 -48.5 129.5t-132.5 47.5t-132 -47.5t-48 -129.5z" />
<glyph unicode="9" horiz-adv-x="1228" d="M66 950q0 235 143 371.5t389 136.5q269 0 415 -182t146 -516q0 -377 -149.5 -581t-427.5 -204q-206 0 -340 112t-154 302h295q14 -77 67.5 -120.5t135.5 -43.5q261 0 270 437h-8q-105 -158 -348 -158q-204 0 -319 118.5t-115 327.5zM369 971q0 -110 62 -173t169 -63 q108 0 173 63.5t65 168.5q0 109 -66 175t-174 66q-106 0 -167.5 -63.5t-61.5 -173.5z" />
<glyph unicode=":" horiz-adv-x="567" d="M125 0v311h317v-311h-317zM125 604v311h317v-311h-317z" />
<glyph unicode=";" horiz-adv-x="600" d="M53 -205l107 518h313l-201 -518h-219zM158 604v311h315v-311h-315z" />
<glyph unicode="&#x3c;" horiz-adv-x="1228" d="M96 520v283l1037 327v-231l-789 -233v-9l789 -233v-231z" />
<glyph unicode="=" horiz-adv-x="1228" d="M123 365v215h983v-215h-983zM123 748v215h983v-215h-983z" />
<glyph unicode="&#x3e;" horiz-adv-x="1228" d="M96 193v231l789 233v9l-789 233v231l1037 -327v-283z" />
<glyph unicode="?" horiz-adv-x="1114" d="M63 1028q6 204 136 317t358 113q215 0 340 -99t125 -269q0 -178 -168 -332l-131 -121q-55 -52 -72.5 -83t-17.5 -73v-59h-273v92q0 74 26.5 130t92.5 120l135 131q86 86 86 164q0 68 -44 108.5t-117 40.5q-82 0 -129 -47.5t-50 -132.5h-297zM338 0v311h315v-311h-315z " />
<glyph unicode="@" horiz-adv-x="1710" d="M74 489q0 233 108.5 414.5t305 282t448.5 100.5q324 0 512 -173t188 -470q0 -228 -105.5 -363t-283.5 -135q-97 0 -162.5 38t-85.5 106h-8q-91 -142 -258 -142q-127 0 -202.5 82t-75.5 220q0 192 110 322t271 130q148 0 198 -100h6l19 86h241l-96 -438q-8 -33 -8 -66 q0 -54 25.5 -82.5t72.5 -28.5q89 0 144 99.5t55 263.5q0 241 -151 379.5t-412 138.5q-205 0 -367 -83.5t-252 -233.5t-90 -340q0 -266 169 -411.5t478 -145.5h189l-41 -127h-182q-361 0 -560.5 177.5t-199.5 499.5zM705 463q0 -60 30.5 -97.5t81.5 -37.5q75 0 123.5 76.5 t48.5 193.5q0 59 -29 92t-81 33q-75 0 -124.5 -73t-49.5 -187z" />
<glyph unicode="A" horiz-adv-x="1398" d="M31 0l465 1434h393l479 -1434h-317l-84 266h-465l67 228h326l-201 641h-8l-344 -1135h-311z" />
<glyph unicode="B" horiz-adv-x="1339" d="M160 74v1286q0 35 19 54.5t54 19.5h461q241 0 375.5 -99t134.5 -276q0 -229 -227 -314q283 -78 283 -339q0 -193 -144 -299.5t-407 -106.5h-476q-35 0 -54 19.5t-19 54.5zM471 258q0 -29 29 -29h196q116 0 181 53t65 148q0 94 -65 146.5t-181 52.5h-143l39 215h92 q101 0 159 47.5t58 132.5t-57 132.5t-160 47.5h-184q-29 0 -29 -28v-918z" />
<glyph unicode="C" horiz-adv-x="1501" d="M82 721q0 338 189.5 537.5t510.5 199.5q272 0 444 -142.5t189 -383.5h-319q-13 121 -97.5 192.5t-212.5 71.5q-169 0 -269.5 -129t-100.5 -346q0 -221 101 -352t271 -131q129 0 218 76.5t108 205.5h316q-22 -251 -196.5 -398t-449.5 -147q-323 0 -512.5 201.5 t-189.5 544.5z" />
<glyph unicode="D" horiz-adv-x="1480" d="M160 74v1286q0 35 19 54.5t54 19.5h416q352 0 551 -190t199 -527t-199 -527t-551 -190h-416q-35 0 -54 19.5t-19 54.5zM477 287q0 -31 29 -31h125q203 0 319.5 123t116.5 338t-116.5 338t-319.5 123h-125q-29 0 -29 -31v-860z" />
<glyph unicode="E" horiz-adv-x="1230" d="M160 74v1286q0 35 19 54.5t54 19.5h900l-41 -256h-586q-12 0 -20.5 -9t-8.5 -22v-860q0 -13 8.5 -22t20.5 -9h647l-41 -256h-879q-35 0 -54 19.5t-19 54.5zM547 612l43 240h477l-41 -240h-479z" />
<glyph unicode="F" horiz-adv-x="1175" d="M160 0v1360q0 35 19 54.5t54 19.5h875l-41 -256h-561q-12 0 -20.5 -9t-8.5 -22v-1147h-317zM547 569l43 240h452l-41 -240h-454z" />
<glyph unicode="G" horiz-adv-x="1538" d="M82 723q0 338 191 536.5t515 198.5q269 0 442.5 -137t196.5 -369h-319q-20 113 -104.5 178.5t-208.5 65.5q-175 0 -277 -128.5t-102 -348.5q0 -224 105 -356t282 -132q139 0 229.5 83.5t110.5 230.5h-363l43 235h625q8 -55 8 -131q0 -308 -182 -491t-488 -183 q-323 0 -513.5 202.5t-190.5 545.5z" />
<glyph unicode="H" horiz-adv-x="1525" d="M160 0v1434h317v-1434h-317zM547 612l45 256h457v566h317v-1434h-317v612h-502z" />
<glyph unicode="I" horiz-adv-x="649" d="M166 0v1434h317v-1434h-317z" />
<glyph unicode="J" horiz-adv-x="856" d="M45 0l45 256h143q152 0 152 182v996h317v-1002q0 -218 -108.5 -325t-331.5 -107h-217z" />
<glyph unicode="K" horiz-adv-x="1382" d="M160 0v1434h317v-617l477 617h365l-475 -596l510 -838h-355l-348 594l-174 -217v-377h-317z" />
<glyph unicode="L" horiz-adv-x="1126" d="M160 74v1360h317v-1147q0 -13 8.5 -22t20.5 -9h575l-45 -256h-803q-35 0 -54 19.5t-19 54.5z" />
<glyph unicode="M" horiz-adv-x="1820" d="M160 0v1434h411l340 -953h9l342 953h399v-1434h-291v967h-8l-348 -967h-209l-344 967h-10v-967h-291z" />
<glyph unicode="N" horiz-adv-x="1505" d="M160 0v1434h336l555 -963h8v963h287v-1434h-336l-555 963h-9v-963h-286z" />
<glyph unicode="O" horiz-adv-x="1603" d="M82 717q0 340 194.5 540.5t524.5 200.5t525.5 -200t195.5 -541t-195.5 -541.5t-525.5 -200.5t-524.5 201t-194.5 541zM416 717q0 -220 104 -349.5t281 -129.5q178 0 282.5 129.5t104.5 349.5t-104.5 349.5t-282.5 129.5q-177 0 -281 -129.5t-104 -349.5z" />
<glyph unicode="P" horiz-adv-x="1277" d="M160 0v1360q0 35 19 54.5t54 19.5h467q249 0 385 -120.5t136 -342.5q0 -217 -134.5 -333t-386.5 -116h-153l41 232h98q109 0 170.5 56.5t61.5 156.5q0 101 -61.5 158t-170.5 57h-180q-12 0 -20.5 -8.5t-8.5 -20.5v-1153h-317z" />
<glyph unicode="Q" horiz-adv-x="1619" d="M82 717q0 340 194.5 540.5t524.5 200.5t525.5 -201.5t195.5 -541.5q0 -328 -197 -498l264 31l-45 -264l-583 12q-77 -21 -175 -21q-321 0 -512.5 202t-191.5 540zM416 717q0 -220 104 -349.5t281 -129.5q178 0 282.5 129.5t104.5 349.5t-104.5 349.5t-282.5 129.5 q-177 0 -281 -129.5t-104 -349.5z" />
<glyph unicode="R" horiz-adv-x="1370" d="M160 0v1360q0 35 19 54.5t54 19.5h494q248 0 381 -114.5t133 -328.5q0 -155 -74 -256.5t-217 -144.5l127 -252q47 -92 129 -92h115l-41 -254h-184q-179 0 -256 158l-205 411h-88l41 221h127q104 0 163.5 53.5t59.5 147.5t-59.5 146.5t-163.5 52.5h-209q-12 0 -20.5 -8.5 t-8.5 -20.5v-1153h-317z" />
<glyph unicode="S" horiz-adv-x="1280" d="M78 463h299q8 -116 83 -180t202 -64q114 0 175.5 46.5t61.5 131.5q0 72 -47 116t-150 67l-198 43q-393 85 -393 411q0 194 139.5 309t370.5 115q238 0 386.5 -120.5t157.5 -321.5h-293q-9 93 -79 148t-175 55q-96 0 -154 -43t-58 -115q0 -128 172 -166l198 -43 q215 -46 319.5 -151.5t104.5 -276.5q0 -209 -143.5 -329t-394.5 -120q-258 0 -416.5 132t-167.5 356z" />
<glyph unicode="T" horiz-adv-x="1214" d="M45 1176l41 258h1083l-41 -258h-362v-1176h-317v1176h-404z" />
<glyph unicode="U" horiz-adv-x="1452" d="M147 537v897h318v-881q0 -153 67.5 -234t194.5 -81q126 0 193 82t67 233v881h318v-897q0 -258 -156.5 -410t-421.5 -152q-266 0 -423 152t-157 410z" />
<glyph unicode="V" horiz-adv-x="1378" d="M31 1434h317l344 -1094h8l334 1094h314l-467 -1434h-369z" />
<glyph unicode="W" horiz-adv-x="2134" d="M27 1434h307l301 -1055h8l299 1055h262l295 -1039h8l297 1039h303l-432 -1434h-323l-277 963h-8l-279 -963h-327z" />
<glyph unicode="X" horiz-adv-x="1384" d="M31 0l475 750l-447 684h355l276 -437h8l267 437h344l-439 -693l484 -741h-361l-307 483h-8l-299 -483h-348z" />
<glyph unicode="Y" horiz-adv-x="1314" d="M27 1434h346l286 -508h9l286 508h334l-471 -803v-631h-317v633z" />
<glyph unicode="Z" horiz-adv-x="1255" d="M66 0v223l682 946v9h-642l46 256h1005v-224l-684 -946v-8h713l-45 -256h-1075z" />
<glyph unicode="[" horiz-adv-x="753" d="M160 -254v1761q0 35 19 54.5t54 19.5h459v-221h-196q-29 0 -29 -29v-1409q0 -28 29 -28h196v-222h-459q-35 0 -54 19.5t-19 54.5z" />
<glyph unicode="\" horiz-adv-x="874" d="M20 1581h242l639 -1909h-242z" />
<glyph unicode="]" horiz-adv-x="753" d="M61 -106h197q31 0 31 28v1409q0 13 -8.5 21t-22.5 8h-197v221h459q35 0 54.5 -19.5t19.5 -54.5v-1761q0 -35 -19.5 -54.5t-54.5 -19.5h-459v222z" />
<glyph unicode="^" horiz-adv-x="1228" d="M104 643l375 791h271l374 -791h-262l-244 545h-8l-243 -545h-263z" />
<glyph unicode="_" horiz-adv-x="798" d="M-10 -147h819v-164h-819v164z" />
<glyph unicode="`" horiz-adv-x="1024" d="M262 1475h322l106 -301h-227z" />
<glyph unicode="a" horiz-adv-x="1146" d="M68 244q0 137 106 223t334 133l147 31l-39 -193l-53 -10q-192 -37 -192 -143q0 -46 32.5 -72.5t90.5 -26.5q103 0 165 69t62 183v252q0 74 -42.5 116t-115.5 42q-68 0 -111 -39.5t-49 -106.5h-286q22 166 144.5 262.5t311.5 96.5q203 0 325 -108.5t122 -288.5v-664h-283 v145h-8q-113 -170 -350 -170q-146 0 -228.5 71.5t-82.5 197.5z" />
<glyph unicode="b" horiz-adv-x="1249" d="M135 0v1434l303 45v-568h8q46 72 125 111t179 39q198 0 314 -147t116 -398q0 -249 -117.5 -395t-317.5 -146q-104 0 -186 41.5t-129 116.5h-8v-133h-287zM434 518q0 -152 53.5 -233.5t153.5 -81.5q103 0 163 84.5t60 230.5q0 145 -60 229t-163 84q-100 0 -153.5 -81 t-53.5 -232z" />
<glyph unicode="c" horiz-adv-x="1136" d="M70 520q0 246 144 393.5t382 147.5q195 0 321.5 -103.5t149.5 -283.5h-295q-12 73 -58.5 115t-115.5 42q-98 0 -155.5 -84t-57.5 -227q0 -146 57.5 -230.5t155.5 -84.5q74 0 123 48t61 132h293q-23 -191 -151.5 -300.5t-329.5 -109.5q-238 0 -381 148t-143 397z" />
<glyph unicode="d" horiz-adv-x="1251" d="M70 524q0 246 116.5 391.5t313.5 145.5q101 0 181 -42t124 -118h8v533l303 45v-1479h-291v125h-8q-47 -72 -128.5 -111t-182.5 -39q-201 0 -318.5 148.5t-117.5 400.5zM385 518q0 -146 60.5 -230.5t164.5 -84.5q100 0 153.5 81.5t53.5 233.5q0 151 -53.5 232t-153.5 81 q-104 0 -164.5 -84t-60.5 -229z" />
<glyph unicode="e" horiz-adv-x="1173" d="M70 516q0 248 144.5 396.5t385.5 148.5q236 0 370 -152t134 -420v-51h-655l34 183h328q-10 112 -63.5 173.5t-139.5 61.5q-106 0 -168.5 -92t-62.5 -248q0 -155 61.5 -240.5t171.5 -85.5q75 0 125 37.5t62 102.5h293q-25 -166 -153 -260.5t-327 -94.5q-249 0 -394.5 146 t-145.5 395z" />
<glyph unicode="f" horiz-adv-x="741" d="M29 827l39 209h125v92q0 159 87.5 244.5t249.5 85.5h205l-41 -213h-98q-48 0 -74 -26.5t-26 -75.5v-107h211l-39 -209h-172v-827h-303v827h-164z" />
<glyph unicode="g" horiz-adv-x="1251" d="M70 539q0 239 118 380.5t318 141.5q104 0 186 -41.5t129 -118.5h8v135h287v-991q0 -200 -142.5 -319t-383.5 -119q-207 0 -343 90.5t-153 239.5h299q8 -54 62 -86.5t137 -32.5q103 0 162 52.5t59 145.5v156h-8q-47 -72 -126 -110.5t-179 -38.5q-198 0 -314 139.5 t-116 376.5zM385 539q0 -135 60.5 -214t164.5 -79q100 0 153.5 76t53.5 217q0 142 -53.5 217t-153.5 75q-104 0 -164.5 -78t-60.5 -214z" />
<glyph unicode="h" horiz-adv-x="1224" d="M135 0v1434l303 45v-564h8q49 70 128 108t176 38q169 0 259.5 -108t90.5 -308v-645h-303v606q0 209 -168 209q-89 0 -140 -59.5t-51 -165.5v-590h-303z" />
<glyph unicode="i" horiz-adv-x="581" d="M135 1208v250h311v-250h-311zM139 0v1036h303v-1036h-303z" />
<glyph unicode="j" horiz-adv-x="581" d="M-25 -369l41 222h54q69 0 69 73v1110h303v-1097q0 -148 -76.5 -228t-218.5 -80h-172zM135 1208v250h311v-250h-311z" />
<glyph unicode="k" horiz-adv-x="1161" d="M135 0v1434l303 45v-830l326 387h348l-362 -401l393 -635h-336l-252 418l-117 -129v-289h-303z" />
<glyph unicode="l" horiz-adv-x="581" d="M139 0v1434l303 45v-1479h-303z" />
<glyph unicode="m" horiz-adv-x="1820" d="M135 0v1036h295v-125h8q44 72 121 111t174 39q208 0 289 -172h8q102 172 316 172q169 0 259.5 -106t90.5 -304v-651h-303v616q0 97 -39.5 148t-114.5 51q-79 0 -125.5 -57.5t-46.5 -155.5v-602h-303v616q0 97 -39.5 148t-114.5 51q-79 0 -125.5 -57.5t-46.5 -155.5v-602 h-303z" />
<glyph unicode="n" horiz-adv-x="1224" d="M135 0v1036h289v-127h8q49 73 130.5 112.5t182.5 39.5q171 0 263 -107.5t92 -308.5v-645h-303v606q0 209 -168 209q-89 0 -140 -59.5t-51 -165.5v-590h-303z" />
<glyph unicode="o" horiz-adv-x="1218" d="M70 518q0 249 145.5 396t394.5 147q247 0 393 -147t146 -396t-146 -396t-393 -147q-249 0 -394.5 147t-145.5 396zM385 518q0 -145 61 -230t164 -85t163.5 85t60.5 230q0 142 -61.5 227.5t-162.5 85.5q-103 0 -164 -84.5t-61 -228.5z" />
<glyph unicode="p" horiz-adv-x="1249" d="M135 -393v1429h289v-125h8q48 71 129.5 110.5t183.5 39.5q200 0 317.5 -148t117.5 -401q0 -246 -116 -391.5t-314 -145.5q-103 0 -181.5 41t-122.5 117h-8v-481zM434 518q0 -152 53.5 -233.5t153.5 -81.5q103 0 163 84.5t60 230.5q0 145 -60 229t-163 84 q-100 0 -153.5 -81t-53.5 -232z" />
<glyph unicode="q" horiz-adv-x="1251" d="M70 520q0 249 118 395t318 146q103 0 185.5 -42t129.5 -118h8v135h287v-1384l-303 -45v518h-8q-47 -72 -126 -111t-179 -39q-196 0 -313 148t-117 397zM385 518q0 -146 60.5 -230.5t164.5 -84.5q100 0 153.5 81.5t53.5 233.5q0 151 -53.5 232t-153.5 81 q-104 0 -164.5 -84t-60.5 -229z" />
<glyph unicode="r" horiz-adv-x="792" d="M127 0v659q0 186 105 285.5t300 99.5h220l-41 -229h-113q-81 0 -124.5 -48t-43.5 -138v-629h-303z" />
<glyph unicode="s" horiz-adv-x="1036" d="M70 328h280q5 -65 51.5 -100t128.5 -35q71 0 109.5 25.5t38.5 72.5q0 75 -121 102l-143 33q-322 74 -322 319q0 146 112 231t300 85q194 0 310 -89.5t124 -242.5h-276q-3 55 -46 87t-110 32q-60 0 -96.5 -24.5t-36.5 -65.5q0 -73 104 -94l150 -33q174 -38 257 -117 t83 -205q0 -157 -114.5 -245.5t-317.5 -88.5q-207 0 -333 96t-132 257z" />
<glyph unicode="t" horiz-adv-x="778" d="M25 827l38 209h125v201l304 47v-248h210l-38 -209h-172v-487q0 -49 26 -75.5t74 -26.5h143l-41 -238h-168q-163 0 -250.5 86t-87.5 244v497h-163z" />
<glyph unicode="u" horiz-adv-x="1220" d="M125 389v647h303v-608q0 -207 164 -207q88 0 139 58t51 165v592h303v-1036h-290v125h-9q-103 -150 -311 -150q-169 0 -259.5 107t-90.5 307z" />
<glyph unicode="v" horiz-adv-x="1124" d="M18 1036h310l235 -692h8l234 692h301l-379 -1036h-330z" />
<glyph unicode="w" horiz-adv-x="1703" d="M18 1036h295l213 -694h9l210 694h226l209 -694h8l209 694h289l-343 -1036h-288l-197 629h-8l-195 -629h-293z" />
<glyph unicode="x" horiz-adv-x="1118" d="M18 0l359 541l-336 495h344l174 -284h8l174 284h324l-330 -497l365 -539h-348l-201 313h-8l-195 -313h-330z" />
<glyph unicode="y" horiz-adv-x="1122" d="M18 1036h310l231 -653h8l234 653h303l-457 -1181q-85 -224 -334 -224h-231l41 222h160q65 0 90 67l37 92z" />
<glyph unicode="z" horiz-adv-x="1060" d="M61 0v197l510 610v8h-481l41 221h848v-196l-510 -611v-10h530l-41 -219h-897z" />
<glyph unicode="{" horiz-adv-x="864" d="M74 514v234h65q137 0 137 194v338q0 148 74 224.5t217 76.5h230v-221h-115q-98 0 -98 -107v-387q0 -86 -41.5 -146t-118.5 -85v-8q76 -15 118 -76.5t42 -157.5v-393q0 -106 98 -106h115v-222h-230q-143 0 -217 76.5t-74 224.5v344q0 197 -137 197h-65z" />
<glyph unicode="|" horiz-adv-x="559" d="M166 -328v1909h227v-1909h-227z" />
<glyph unicode="}" horiz-adv-x="864" d="M68 -106h114q99 0 99 106v393q0 96 41.5 157.5t117.5 76.5v8q-76 25 -117.5 85t-41.5 146v387q0 107 -99 107h-114v221h229q143 0 217 -76.5t74 -224.5v-338q0 -194 137 -194h66v-234h-66q-137 0 -137 -197v-344q0 -148 -74 -224.5t-217 -76.5h-229v222z" />
<glyph unicode="~" horiz-adv-x="1228" d="M66 461q20 162 107.5 253t221.5 91q55 0 114 -16.5t101.5 -36t98.5 -36t106 -16.5q51 0 85 28.5t46 80.5h215q-19 -162 -103.5 -253t-215.5 -91q-70 0 -144 27t-145 54t-133 27q-114 0 -139 -112h-215z" />
<glyph unicode="&#xa1;" horiz-adv-x="630" d="M143 -397l54 975h237l53 -975h-344zM158 725v311h315v-311h-315z" />
<glyph unicode="&#xa2;" horiz-adv-x="1228" d="M123 520q0 231 128 376.5t345 162.5v170h100v-170q176 -14 289 -116.5t133 -268.5h-280q-10 61 -47.5 101t-94.5 52v-620q63 14 103 60t49 118h278q-20 -178 -134.5 -286t-295.5 -122v-202h-100v202q-217 17 -345 163t-128 380zM424 520q0 -129 45 -210t127 -101v616 q-82 -20 -127 -99.5t-45 -205.5z" />
<glyph unicode="&#xa3;" horiz-adv-x="1228" d="M68 0q7 129 60.5 213t145.5 115q25 61 25 129q0 64 -20 139h-203v195h137q-49 138 -49 243q0 194 129 309t350 115q224 0 357 -120.5t145 -336.5h-289q-9 95 -64 150t-141 55t-134 -54t-48 -151q0 -74 35 -210h346v-195h-293q16 -72 16 -137q0 -80 -30 -148 q24 -10 69 -35t78 -37t68 -12q127 0 143 160h291q-9 -191 -108 -301.5t-255 -110.5q-63 0 -122 21t-96.5 46t-85 46t-89.5 21q-106 0 -112 -109h-256z" />
<glyph unicode="&#xa4;" horiz-adv-x="1228" d="M53 317l135 134q-73 118 -73 272q0 147 67 262l-129 129l158 150l119 -121q125 80 284 80q160 0 285 -80l119 121l158 -150l-129 -129q67 -115 67 -262q0 -152 -74 -272l136 -134l-158 -149l-129 129q-123 -74 -275 -74q-151 0 -274 74l-129 -129zM350 723 q0 -118 74 -194t190 -76t190.5 76t74.5 194t-74.5 194t-190.5 76t-190 -76t-74 -194z" />
<glyph unicode="&#xa5;" horiz-adv-x="1228" d="M20 1434h338l256 -533h9l256 533h329l-342 -635h219v-162h-305l-16 -31v-106h321v-162h-321v-338h-299v338h-322v162h322v108l-16 29h-306v162h219z" />
<glyph unicode="&#xa6;" horiz-adv-x="559" d="M166 -328v883h227v-883h-227zM166 780v801h227v-801h-227z" />
<glyph unicode="&#xa7;" horiz-adv-x="1200" d="M61 571q0 228 207 312q-84 101 -84 231q0 161 111 252.5t305 91.5q197 0 314.5 -91.5t129.5 -254.5h-278q-6 60 -49 93.5t-111 33.5q-66 0 -102.5 -29t-36.5 -80q0 -84 121 -141l217 -100q163 -76 247.5 -172.5t84.5 -227.5q0 -103 -47 -181.5t-134 -123.5 q95 -103 95 -243q0 -174 -121 -272.5t-334 -98.5q-212 0 -335.5 100t-129.5 275h291q6 -69 54.5 -108.5t125.5 -39.5q70 0 110 33t40 92q0 50 -34 85t-114 73l-203 96q-174 82 -257 173.5t-83 221.5zM346 606q0 -54 36 -94.5t116 -75.5l235 -104l10 -4q99 44 99 141 q0 50 -33.5 87.5t-103.5 70.5l-203 94q-33 15 -56 29q-100 -43 -100 -144z" />
<glyph unicode="&#xa8;" horiz-adv-x="1024" d="M195 1196v246h247v-246h-247zM582 1196v246h247v-246h-247z" />
<glyph unicode="&#xa9;" horiz-adv-x="1650" d="M76 717q0 159 56.5 297t155 235.5t238 153t299.5 55.5q213 0 384.5 -95t268.5 -264.5t97 -381.5t-97 -382t-268.5 -265t-384.5 -95q-215 0 -386.5 95.5t-267 265t-95.5 381.5zM188 717q0 -279 180 -460t457 -181t457 181t180 460q0 184 -80.5 330.5t-225 228.5t-325.5 82 q-184 0 -331 -82t-229.5 -228.5t-82.5 -330.5zM399 719q0 209 121 333t322 124q166 0 273 -87.5t126 -238.5h-246q-11 63 -51 99t-100 36q-85 0 -132.5 -70.5t-47.5 -195.5q0 -126 48.5 -199.5t131.5 -73.5q64 0 107.5 43t52.5 115h245q-19 -161 -128 -253.5t-279 -92.5 q-201 0 -322 125.5t-121 335.5z" />
<glyph unicode="&#xaa;" horiz-adv-x="753" d="M51 922q0 86 69 141t224 92l92 23l-24 -127l-35 -11q-69 -20 -95 -39.5t-26 -48.5q0 -63 80 -63q65 0 104 44.5t39 117.5v163q0 46 -26 72.5t-72 26.5q-42 0 -70.5 -23.5t-34.5 -64.5h-192q12 107 94.5 170t208.5 63q135 0 216 -70t81 -188v-436h-192v98h-7 q-77 -114 -233 -114q-94 0 -147.5 46t-53.5 128z" />
<glyph unicode="&#xab;" horiz-adv-x="1028" d="M92 514l287 352h180l-211 -348v-8l211 -348h-180zM477 514l287 352h182l-211 -348v-8l211 -348h-182z" />
<glyph unicode="&#xac;" horiz-adv-x="1228" d="M84 676v242h1061v-574h-279v332h-782z" />
<glyph unicode="&#xad;" horiz-adv-x="819" d="M102 457v241h615v-241h-615z" />
<glyph unicode="&#xae;" horiz-adv-x="1077" d="M63 991q0 203 134.5 335t341.5 132t341 -132t134 -335t-134 -335t-341 -132t-341.5 132t-134.5 335zM150 991q0 -169 110 -279t279 -110t279 110t110 279q0 170 -110 280.5t-279 110.5t-279 -110.5t-110 -280.5zM346 741v496h209q87 0 137.5 -43t50.5 -115 q0 -104 -96 -139l43 -78q12 -24 41 -24h43l-20 -97h-70q-71 0 -98 56l-66 129h-43v-185h-131zM477 1012h74q29 0 47 17t18 46t-18 46.5t-47 17.5h-74v-127z" />
<glyph unicode="&#xaf;" horiz-adv-x="1024" d="M225 1221v176h574v-176h-574z" />
<glyph unicode="&#xb0;" horiz-adv-x="778" d="M68 1151q0 133 90.5 220t230.5 87t231 -87t91 -220q0 -134 -91.5 -221.5t-230.5 -87.5t-230 87.5t-91 221.5zM229 1151q0 -71 45 -116.5t115 -45.5t115 45.5t45 116.5t-44.5 115.5t-115.5 44.5q-69 0 -114.5 -45t-45.5 -115z" />
<glyph unicode="&#xb1;" horiz-adv-x="1228" d="M96 45v197h1037v-197h-1037zM96 707v204h396v340h245v-340h396v-204h-396v-338h-245v338h-396z" />
<glyph unicode="&#xb2;" horiz-adv-x="819" d="M121 717v121l276 231q92 77 92 150q0 40 -20 62t-55 22q-40 0 -65.5 -25.5t-31.5 -71.5h-180q6 115 80 176.5t205 61.5q117 0 186.5 -58.5t69.5 -156.5q0 -65 -34 -123.5t-109 -122.5l-150 -129h309l-18 -137h-555z" />
<glyph unicode="&#xb3;" horiz-adv-x="819" d="M123 944h180q3 -45 29.5 -70.5t70.5 -25.5q43 0 69 23.5t26 64.5q0 42 -24 66t-66 24h-76v125h71q40 0 62 22t22 60q0 34 -21 54t-56 20q-40 0 -65.5 -23.5t-29.5 -64.5h-172q7 107 79 166t194 59q118 0 187 -53t69 -142q0 -54 -27.5 -94t-77.5 -57v-4q55 -12 88 -57.5 t33 -110.5q0 -100 -76 -159.5t-202 -59.5q-129 0 -204 62t-83 175z" />
<glyph unicode="&#xb4;" horiz-adv-x="1024" d="M340 1174l106 301h324l-201 -301h-229z" />
<glyph unicode="&#xb5;" horiz-adv-x="1230" d="M135 -410v1446h303v-608q0 -207 164 -207q89 0 140 59.5t51 163.5v592h303v-1036h-258l-33 125h-8q-101 -150 -303 -150q-11 0 -56 5v-390h-303z" />
<glyph unicode="&#xb6;" horiz-adv-x="1331" d="M57 1038q0 180 126.5 288t338.5 108h576q35 0 54 -19.5t19 -54.5v-1688h-225v1516q0 13 -8 22t-20 9h-191v-1547h-225v977q-203 0 -324 105.5t-121 283.5z" />
<glyph unicode="&#xb7;" horiz-adv-x="573" d="M113 639q0 76 49.5 126t124.5 50t124.5 -50t49.5 -126t-49.5 -126t-124.5 -50t-124.5 50t-49.5 126z" />
<glyph unicode="&#xb8;" horiz-adv-x="1024" d="M309 -442l41 125h129q32 0 51 15.5t19 41.5q0 27 -17.5 42t-48.5 15q-24 0 -53 -16l-88 76l82 166h145l-69 -121q24 6 53 6q74 0 118 -46.5t44 -125.5q0 -83 -62 -130.5t-168 -47.5h-176z" />
<glyph unicode="&#xb9;" horiz-adv-x="819" d="M164 717l31 135h133v395h-4l-150 -96v164l174 119h166v-582h152l-31 -135h-471z" />
<glyph unicode="&#xba;" horiz-adv-x="823" d="M53 1104q0 163 97.5 258.5t261.5 95.5t261 -95.5t97 -258.5q0 -164 -97 -260t-261 -96q-165 0 -262 96t-97 260zM268 1104q0 -94 39 -149.5t105 -55.5t105.5 55.5t39.5 149.5q0 92 -39.5 147.5t-105.5 55.5t-105 -55.5t-39 -147.5z" />
<glyph unicode="&#xbb;" horiz-adv-x="1028" d="M82 162l211 348v8l-211 348h182l287 -352l-287 -352h-182zM467 162l211 348v8l-211 348h182l287 -352l-287 -352h-182z" />
<glyph unicode="&#xbc;" horiz-adv-x="1597" d="M80 717l31 135h133v395h-4l-150 -96v164l174 119h166v-582h152l-31 -135h-471zM233 0l971 1434h213l-971 -1434h-213zM889 133v113l305 471h207v-455h100l-28 -129h-72v-133h-182v133h-330zM1049 262h172v262z" />
<glyph unicode="&#xbd;" horiz-adv-x="1597" d="M80 717l31 135h133v395h-4l-150 -96v164l174 119h166v-582h152l-31 -135h-471zM233 0l971 1434h213l-971 -1434h-213zM965 0v121l276 231q92 77 92 150q0 40 -20.5 62t-55.5 22q-40 0 -65 -25.5t-31 -71.5h-180q6 115 80 176.5t205 61.5q117 0 186.5 -58.5t69.5 -156.5 q0 -64 -34.5 -122.5t-109.5 -123.5l-149 -129h309l-18 -137h-555z" />
<glyph unicode="&#xbe;" horiz-adv-x="1597" d="M59 944h181q3 -45 29.5 -70.5t70.5 -25.5q43 0 68.5 23.5t25.5 64.5q0 42 -24 66t-66 24h-76v125h72q40 0 62 22t22 60q0 34 -21.5 54t-56.5 20q-40 0 -64.5 -23.5t-29.5 -64.5h-172q7 107 78.5 166t193.5 59q118 0 187 -53t69 -142q0 -54 -27.5 -94t-76.5 -57v-4 q55 -12 88 -57.5t33 -110.5q0 -100 -76.5 -159.5t-202.5 -59.5q-129 0 -204 62t-83 175zM233 0l971 1434h213l-971 -1434h-213zM889 133v113l305 471h207v-455h100l-28 -129h-72v-133h-182v133h-330zM1049 262h172v262z" />
<glyph unicode="&#xbf;" horiz-adv-x="1114" d="M78 -53q0 88 40.5 166t129.5 163l129 123q55 54 73.5 84t18.5 70v59h272v-92q0 -73 -26.5 -128.5t-91.5 -119.5l-136 -131q-86 -83 -86 -164q0 -69 44 -109t118 -40q80 0 127 47t51 133h297q-6 -204 -136 -318t-357 -114q-215 0 -341 100.5t-126 270.5zM446 725v311h318 v-311h-318z" />
<glyph unicode="&#xc0;" horiz-adv-x="1398" d="M31 0l465 1434h393l479 -1434h-317l-84 266h-465l67 228h326l-201 641h-8l-344 -1135h-311zM389 1835h322l106 -303h-227z" />
<glyph unicode="&#xc1;" horiz-adv-x="1398" d="M31 0l465 1434h393l479 -1434h-317l-84 266h-465l67 228h326l-201 641h-8l-344 -1135h-311zM582 1532l106 303h324l-201 -303h-229z" />
<glyph unicode="&#xc2;" horiz-adv-x="1398" d="M31 0l465 1434h393l479 -1434h-317l-84 266h-465l67 228h326l-201 641h-8l-344 -1135h-311zM385 1532l207 303h217l207 -303h-170l-141 133h-9l-141 -133h-170z" />
<glyph unicode="&#xc3;" horiz-adv-x="1398" d="M31 0l465 1434h393l479 -1434h-317l-84 266h-465l67 228h326l-201 641h-8l-344 -1135h-311zM375 1544q12 127 64 192.5t139 65.5q53 0 125.5 -32.5t101.5 -32.5t48 18t24 49h149q-12 -128 -64 -194t-139 -66q-53 0 -125.5 33t-101.5 33t-48 -17.5t-24 -48.5h-149z" />
<glyph unicode="&#xc4;" horiz-adv-x="1398" d="M31 0l465 1434h393l479 -1434h-317l-84 266h-465l67 228h326l-201 641h-8l-344 -1135h-311zM383 1554v246h248v-246h-248zM770 1554v246h248v-246h-248z" />
<glyph unicode="&#xc5;" horiz-adv-x="1398" d="M31 0l465 1434h393l479 -1434h-317l-84 266h-465l67 228h326l-201 641h-8l-344 -1135h-311zM489 1712q0 88 59.5 145.5t151.5 57.5t151.5 -57.5t59.5 -145.5t-59.5 -144.5t-151.5 -56.5t-151.5 56.5t-59.5 144.5zM610 1712q0 -38 26 -64t64 -26q40 0 65.5 26t25.5 64 q0 40 -25.5 66t-65.5 26t-65 -26t-25 -66z" />
<glyph unicode="&#xc6;" horiz-adv-x="2031" d="M31 0l805 1434h1097l-41 -256h-542q-31 0 -31 -31v-860q0 -13 8.5 -22t22.5 -9h604l-41 -256h-836q-37 0 -56.5 19.5t-19.5 54.5v192h-401l119 228h282v686l-628 -1180h-342zM1389 612l43 240h438l-41 -240h-440z" />
<glyph unicode="&#xc7;" horiz-adv-x="1501" d="M82 721q0 338 189.5 537.5t510.5 199.5q272 0 444 -142.5t189 -383.5h-319q-13 121 -97.5 192.5t-212.5 71.5q-169 0 -269.5 -129t-100.5 -346q0 -221 101 -352t271 -131q129 0 218 76.5t108 205.5h316q-20 -234 -175 -379t-403 -164l-43 -75q24 6 53 6q74 0 118 -46.5 t44 -125.5q0 -82 -61 -130t-168 -48h-177l41 125h129q32 0 51 15.5t19 41.5q0 57 -65 57q-26 0 -54 -16l-88 76l60 120q-291 25 -460 223.5t-169 520.5z" />
<glyph unicode="&#xc8;" horiz-adv-x="1230" d="M160 74v1286q0 35 19 54.5t54 19.5h900l-41 -256h-586q-12 0 -20.5 -9t-8.5 -22v-860q0 -13 8.5 -22t20.5 -9h647l-41 -256h-879q-35 0 -54 19.5t-19 54.5zM340 1835h322l106 -303h-227zM547 612l43 240h477l-41 -240h-479z" />
<glyph unicode="&#xc9;" horiz-adv-x="1230" d="M160 74v1286q0 35 19 54.5t54 19.5h900l-41 -256h-586q-12 0 -20.5 -9t-8.5 -22v-860q0 -13 8.5 -22t20.5 -9h647l-41 -256h-879q-35 0 -54 19.5t-19 54.5zM532 1532l107 303h324l-201 -303h-230zM547 612l43 240h477l-41 -240h-479z" />
<glyph unicode="&#xca;" horiz-adv-x="1230" d="M160 74v1286q0 35 19 54.5t54 19.5h900l-41 -256h-586q-12 0 -20.5 -9t-8.5 -22v-860q0 -13 8.5 -22t20.5 -9h647l-41 -256h-879q-35 0 -54 19.5t-19 54.5zM336 1532l207 303h217l207 -303h-170l-142 133h-8l-141 -133h-170zM547 612l43 240h477l-41 -240h-479z" />
<glyph unicode="&#xcb;" horiz-adv-x="1230" d="M160 74v1286q0 35 19 54.5t54 19.5h900l-41 -256h-586q-12 0 -20.5 -9t-8.5 -22v-860q0 -13 8.5 -22t20.5 -9h647l-41 -256h-879q-35 0 -54 19.5t-19 54.5zM334 1554v246h248v-246h-248zM547 612l43 240h477l-41 -240h-479zM721 1554v246h248v-246h-248z" />
<glyph unicode="&#xcc;" horiz-adv-x="649" d="M12 1835h322l106 -303h-227zM166 0v1434h317v-1434h-317z" />
<glyph unicode="&#xcd;" horiz-adv-x="649" d="M166 0v1434h317v-1434h-317zM205 1532l106 303h324l-201 -303h-229z" />
<glyph unicode="&#xce;" horiz-adv-x="649" d="M8 1532l207 303h217l207 -303h-170l-141 133h-9l-141 -133h-170zM166 0v1434h317v-1434h-317z" />
<glyph unicode="&#xcf;" horiz-adv-x="649" d="M6 1554v246h248v-246h-248zM166 0v1434h317v-1434h-317zM393 1554v246h248v-246h-248z" />
<glyph unicode="&#xd0;" horiz-adv-x="1509" d="M20 631l39 217h129v512q0 35 19.5 54.5t54.5 19.5h416q352 0 550.5 -190t198.5 -527t-198.5 -527t-550.5 -190h-416q-35 0 -54.5 19.5t-19.5 54.5v557h-168zM506 287q0 -31 29 -31h124q203 0 320 123t117 338t-117 338t-320 123h-124q-29 0 -29 -31v-299h321l-39 -217 h-282v-344z" />
<glyph unicode="&#xd1;" horiz-adv-x="1505" d="M160 0v1434h336l555 -963h8v963h287v-1434h-336l-555 963h-9v-963h-286zM436 1544q12 127 64 192.5t139 65.5q53 0 125.5 -32.5t101.5 -32.5t48 18t24 49h149q-12 -128 -63.5 -194t-138.5 -66q-53 0 -126 33t-102 33t-47.5 -17.5t-23.5 -48.5h-150z" />
<glyph unicode="&#xd2;" horiz-adv-x="1603" d="M82 717q0 340 194.5 540.5t524.5 200.5t525.5 -200t195.5 -541t-195.5 -541.5t-525.5 -200.5t-524.5 201t-194.5 541zM416 717q0 -220 104 -349.5t281 -129.5q178 0 282.5 129.5t104.5 349.5t-104.5 349.5t-282.5 129.5q-177 0 -281 -129.5t-104 -349.5zM489 1835h322 l107 -303h-228z" />
<glyph unicode="&#xd3;" horiz-adv-x="1603" d="M82 717q0 340 194.5 540.5t524.5 200.5t525.5 -200t195.5 -541t-195.5 -541.5t-525.5 -200.5t-524.5 201t-194.5 541zM416 717q0 -220 104 -349.5t281 -129.5q178 0 282.5 129.5t104.5 349.5t-104.5 349.5t-282.5 129.5q-177 0 -281 -129.5t-104 -349.5zM682 1532 l106 303h324l-201 -303h-229z" />
<glyph unicode="&#xd4;" horiz-adv-x="1603" d="M82 717q0 340 194.5 540.5t524.5 200.5t525.5 -200t195.5 -541t-195.5 -541.5t-525.5 -200.5t-524.5 201t-194.5 541zM416 717q0 -220 104 -349.5t281 -129.5q178 0 282.5 129.5t104.5 349.5t-104.5 349.5t-282.5 129.5q-177 0 -281 -129.5t-104 -349.5zM485 1532 l207 303h217l207 -303h-170l-141 133h-8l-142 -133h-170z" />
<glyph unicode="&#xd5;" horiz-adv-x="1603" d="M82 717q0 340 194.5 540.5t524.5 200.5t525.5 -200t195.5 -541t-195.5 -541.5t-525.5 -200.5t-524.5 201t-194.5 541zM416 717q0 -220 104 -349.5t281 -129.5q178 0 282.5 129.5t104.5 349.5t-104.5 349.5t-282.5 129.5q-177 0 -281 -129.5t-104 -349.5zM475 1544 q12 127 64 192.5t139 65.5q53 0 125.5 -32.5t101.5 -32.5t48 18t24 49h149q-12 -128 -63.5 -194t-138.5 -66q-53 0 -126 33t-102 33t-47.5 -17.5t-23.5 -48.5h-150z" />
<glyph unicode="&#xd6;" horiz-adv-x="1603" d="M82 717q0 340 194.5 540.5t524.5 200.5t525.5 -200t195.5 -541t-195.5 -541.5t-525.5 -200.5t-524.5 201t-194.5 541zM416 717q0 -220 104 -349.5t281 -129.5q178 0 282.5 129.5t104.5 349.5t-104.5 349.5t-282.5 129.5q-177 0 -281 -129.5t-104 -349.5zM483 1554v246 h248v-246h-248zM870 1554v246h248v-246h-248z" />
<glyph unicode="&#xd7;" horiz-adv-x="1228" d="M156 371l299 299l-299 299l159 159l299 -299l299 299l160 -159l-299 -299l299 -299l-160 -160l-299 299l-299 -299z" />
<glyph unicode="&#xd8;" horiz-adv-x="1603" d="M82 717q0 340 194.5 540.5t524.5 200.5q217 0 379 -90l98 139h176l-158 -221q109 -98 167.5 -243t58.5 -326q0 -341 -195.5 -541.5t-525.5 -200.5q-210 0 -373 86l-106 -151h-175l164 233q-110 98 -169.5 244t-59.5 330zM410 717q0 -190 84 -320l522 740q-91 63 -215 63 q-177 0 -284 -132t-107 -351zM594 295q86 -62 207 -62q180 0 286.5 132t106.5 352q0 184 -80 313z" />
<glyph unicode="&#xd9;" horiz-adv-x="1452" d="M147 537v897h318v-881q0 -153 67.5 -234t194.5 -81q126 0 193 82t67 233v881h318v-897q0 -258 -156.5 -410t-421.5 -152q-266 0 -423 152t-157 410zM416 1835h321l107 -303h-228z" />
<glyph unicode="&#xda;" horiz-adv-x="1452" d="M147 537v897h318v-881q0 -153 67.5 -234t194.5 -81q126 0 193 82t67 233v881h318v-897q0 -258 -156.5 -410t-421.5 -152q-266 0 -423 152t-157 410zM608 1532l107 303h323l-200 -303h-230z" />
<glyph unicode="&#xdb;" horiz-adv-x="1452" d="M147 537v897h318v-881q0 -153 67.5 -234t194.5 -81q126 0 193 82t67 233v881h318v-897q0 -258 -156.5 -410t-421.5 -152q-266 0 -423 152t-157 410zM412 1532l206 303h218l206 -303h-170l-141 133h-8l-141 -133h-170z" />
<glyph unicode="&#xdc;" horiz-adv-x="1452" d="M147 537v897h318v-881q0 -153 67.5 -234t194.5 -81q126 0 193 82t67 233v881h318v-897q0 -258 -156.5 -410t-421.5 -152q-266 0 -423 152t-157 410zM410 1554v246h247v-246h-247zM797 1554v246h247v-246h-247z" />
<glyph unicode="&#xdd;" horiz-adv-x="1314" d="M27 1434h346l286 -508h9l286 508h334l-471 -803v-631h-317v633zM545 1532l106 303h324l-201 -303h-229z" />
<glyph unicode="&#xde;" horiz-adv-x="1257" d="M160 0v1434h317v-295h215q239 0 373.5 -119.5t134.5 -333.5q0 -206 -134.5 -322t-373.5 -116h-145l41 231h90q101 0 160 54.5t59 148.5q0 95 -59 150t-160 55h-201v-887h-317z" />
<glyph unicode="&#xdf;" horiz-adv-x="1280" d="M135 0v1032q0 205 133 315.5t373 110.5q228 0 356.5 -100t128.5 -281q0 -218 -208 -289q140 -37 215 -133.5t75 -242.5q0 -195 -134 -303.5t-374 -108.5h-176l39 223h113q101 0 159 59t58 162q0 106 -61 168t-166 62h-107l41 200h27q94 0 145 45.5t51 133.5 q0 87 -49 132.5t-139 45.5q-93 0 -145 -50t-52 -143v-1038h-303z" />
<glyph unicode="&#xe0;" horiz-adv-x="1146" d="M68 244q0 137 106 223t334 133l147 31l-39 -193l-53 -10q-192 -37 -192 -143q0 -46 32.5 -72.5t90.5 -26.5q103 0 165 69t62 183v252q0 74 -42.5 116t-115.5 42q-68 0 -111 -39.5t-49 -106.5h-286q22 166 144.5 262.5t311.5 96.5q203 0 325 -108.5t122 -288.5v-664h-283 v145h-8q-113 -170 -350 -170q-146 0 -228.5 71.5t-82.5 197.5zM272 1466h322l106 -303h-227z" />
<glyph unicode="&#xe1;" horiz-adv-x="1146" d="M68 244q0 137 106 223t334 133l147 31l-39 -193l-53 -10q-192 -37 -192 -143q0 -46 32.5 -72.5t90.5 -26.5q103 0 165 69t62 183v252q0 74 -42.5 116t-115.5 42q-68 0 -111 -39.5t-49 -106.5h-286q22 166 144.5 262.5t311.5 96.5q203 0 325 -108.5t122 -288.5v-664h-283 v145h-8q-113 -170 -350 -170q-146 0 -228.5 71.5t-82.5 197.5zM465 1163l106 303h324l-201 -303h-229z" />
<glyph unicode="&#xe2;" horiz-adv-x="1146" d="M68 244q0 137 106 223t334 133l147 31l-39 -193l-53 -10q-192 -37 -192 -143q0 -46 32.5 -72.5t90.5 -26.5q103 0 165 69t62 183v252q0 74 -42.5 116t-115.5 42q-68 0 -111 -39.5t-49 -106.5h-286q22 166 144.5 262.5t311.5 96.5q203 0 325 -108.5t122 -288.5v-664h-283 v145h-8q-113 -170 -350 -170q-146 0 -228.5 71.5t-82.5 197.5zM268 1163l207 303h217l207 -303h-170l-141 133h-8l-142 -133h-170z" />
<glyph unicode="&#xe3;" horiz-adv-x="1146" d="M68 244q0 137 106 223t334 133l147 31l-39 -193l-53 -10q-192 -37 -192 -143q0 -46 32.5 -72.5t90.5 -26.5q103 0 165 69t62 183v252q0 74 -42.5 116t-115.5 42q-68 0 -111 -39.5t-49 -106.5h-286q22 166 144.5 262.5t311.5 96.5q203 0 325 -108.5t122 -288.5v-664h-283 v145h-8q-113 -170 -350 -170q-146 0 -228.5 71.5t-82.5 197.5zM258 1176q12 127 64 192.5t139 65.5q53 0 125.5 -33t101.5 -33t48 18.5t24 49.5h149q-12 -128 -63.5 -194t-138.5 -66q-53 0 -126 32.5t-102 32.5q-61 0 -71 -65h-150z" />
<glyph unicode="&#xe4;" horiz-adv-x="1146" d="M68 244q0 137 106 223t334 133l147 31l-39 -193l-53 -10q-192 -37 -192 -143q0 -46 32.5 -72.5t90.5 -26.5q103 0 165 69t62 183v252q0 74 -42.5 116t-115.5 42q-68 0 -111 -39.5t-49 -106.5h-286q22 166 144.5 262.5t311.5 96.5q203 0 325 -108.5t122 -288.5v-664h-283 v145h-8q-113 -170 -350 -170q-146 0 -228.5 71.5t-82.5 197.5zM266 1186v246h248v-246h-248zM653 1186v246h248v-246h-248z" />
<glyph unicode="&#xe5;" horiz-adv-x="1146" d="M68 244q0 137 106 223t334 133l147 31l-39 -193l-53 -10q-192 -37 -192 -143q0 -46 32.5 -72.5t90.5 -26.5q103 0 165 69t62 183v252q0 74 -42.5 116t-115.5 42q-68 0 -111 -39.5t-49 -106.5h-286q22 166 144.5 262.5t311.5 96.5q203 0 325 -108.5t122 -288.5v-664h-283 v145h-8q-113 -170 -350 -170q-146 0 -228.5 71.5t-82.5 197.5zM373 1343q0 88 59.5 145.5t151.5 57.5t151.5 -57.5t59.5 -145.5t-59.5 -144t-151.5 -56t-151.5 56t-59.5 144zM494 1343q0 -38 26 -64t64 -26q39 0 64.5 25.5t25.5 64.5q0 40 -25.5 66.5t-64.5 26.5 t-64.5 -26.5t-25.5 -66.5z" />
<glyph unicode="&#xe6;" horiz-adv-x="1796" d="M68 246q0 133 106 218.5t332 135.5l137 31l-37 -193l-43 -10q-103 -25 -147.5 -57.5t-44.5 -83.5q0 -46 34.5 -73.5t92.5 -27.5q96 0 153.5 68.5t57.5 183.5v252q0 72 -41 115t-111 43q-66 0 -108.5 -38.5t-49.5 -107.5h-284q20 162 137 260.5t289 98.5q213 0 329 -156 q125 156 365 156q235 0 363 -149t128 -423v-51h-645l37 183h318q-12 116 -62.5 175.5t-136.5 59.5q-106 0 -165.5 -90t-59.5 -250q0 -155 59 -240.5t168 -85.5q72 0 121 37.5t61 102.5h291q-23 -166 -143 -260.5t-307 -94.5q-135 0 -237.5 51.5t-164.5 149.5 q-63 -95 -177.5 -148t-258.5 -53q-169 0 -262.5 71t-93.5 200z" />
<glyph unicode="&#xe7;" horiz-adv-x="1136" d="M70 520q0 246 144 393.5t382 147.5q195 0 321.5 -103.5t149.5 -283.5h-295q-12 73 -58.5 115t-115.5 42q-98 0 -155.5 -84t-57.5 -227q0 -146 57.5 -230.5t155.5 -84.5q74 0 123 48t61 132h293q-22 -177 -134.5 -285t-291.5 -123l-43 -75q24 6 53 6q74 0 118 -46.5 t44 -125.5q0 -83 -61.5 -130.5t-167.5 -47.5h-176l41 125h129q32 0 50.5 15.5t18.5 41.5q0 57 -65 57q-24 0 -53 -16l-88 76l61 125q-203 25 -321.5 169t-118.5 369z" />
<glyph unicode="&#xe8;" horiz-adv-x="1173" d="M70 516q0 248 144.5 396.5t385.5 148.5q236 0 370 -152t134 -420v-51h-655l34 183h328q-10 112 -63.5 173.5t-139.5 61.5q-106 0 -168.5 -92t-62.5 -248q0 -155 61.5 -240.5t171.5 -85.5q75 0 125 37.5t62 102.5h293q-25 -166 -153 -260.5t-327 -94.5q-249 0 -394.5 146 t-145.5 395zM281 1466h321l107 -303h-228z" />
<glyph unicode="&#xe9;" horiz-adv-x="1173" d="M70 516q0 248 144.5 396.5t385.5 148.5q236 0 370 -152t134 -420v-51h-655l34 183h328q-10 112 -63.5 173.5t-139.5 61.5q-106 0 -168.5 -92t-62.5 -248q0 -155 61.5 -240.5t171.5 -85.5q75 0 125 37.5t62 102.5h293q-25 -166 -153 -260.5t-327 -94.5q-249 0 -394.5 146 t-145.5 395zM473 1163l107 303h323l-201 -303h-229z" />
<glyph unicode="&#xea;" horiz-adv-x="1173" d="M70 516q0 248 144.5 396.5t385.5 148.5q236 0 370 -152t134 -420v-51h-655l34 183h328q-10 112 -63.5 173.5t-139.5 61.5q-106 0 -168.5 -92t-62.5 -248q0 -155 61.5 -240.5t171.5 -85.5q75 0 125 37.5t62 102.5h293q-25 -166 -153 -260.5t-327 -94.5q-249 0 -394.5 146 t-145.5 395zM276 1163l207 303h217l207 -303h-170l-141 133h-8l-142 -133h-170z" />
<glyph unicode="&#xeb;" horiz-adv-x="1173" d="M70 516q0 248 144.5 396.5t385.5 148.5q236 0 370 -152t134 -420v-51h-655l34 183h328q-10 112 -63.5 173.5t-139.5 61.5q-106 0 -168.5 -92t-62.5 -248q0 -155 61.5 -240.5t171.5 -85.5q75 0 125 37.5t62 102.5h293q-25 -166 -153 -260.5t-327 -94.5q-249 0 -394.5 146 t-145.5 395zM274 1186v246h248v-246h-248zM662 1186v246h247v-246h-247z" />
<glyph unicode="&#xec;" horiz-adv-x="581" d="M-20 1466h321l107 -303h-228zM139 0v1036h303v-1036h-303z" />
<glyph unicode="&#xed;" horiz-adv-x="581" d="M139 0v1036h303v-1036h-303zM172 1163l107 303h323l-201 -303h-229z" />
<glyph unicode="&#xee;" horiz-adv-x="581" d="M-25 1163l207 303h217l207 -303h-170l-141 133h-8l-142 -133h-170zM139 0v1036h303v-1036h-303z" />
<glyph unicode="&#xef;" horiz-adv-x="581" d="M-27 1186v246h248v-246h-248zM139 0v1036h303v-1036h-303zM360 1186v246h248v-246h-248z" />
<glyph unicode="&#xf0;" horiz-adv-x="1185" d="M70 489q0 235 112.5 366.5t313.5 131.5q179 0 295 -110q-34 176 -127 272l-256 -121l-48 92l205 97q-90 43 -219 43l49 215q267 0 436 -117l213 100l46 -90l-175 -82q201 -207 201 -633q0 -324 -145.5 -501t-411.5 -177q-232 0 -360.5 135t-128.5 379zM381 483 q0 -129 54.5 -204.5t146.5 -75.5q113 0 171 110t58 324v10q-85 115 -213 115q-103 0 -160 -73.5t-57 -205.5z" />
<glyph unicode="&#xf1;" horiz-adv-x="1224" d="M135 0v1036h289v-127h8q49 73 130.5 112.5t182.5 39.5q171 0 263 -107.5t92 -308.5v-645h-303v606q0 209 -168 209q-89 0 -140 -59.5t-51 -165.5v-590h-303zM299 1176q12 127 64 192.5t139 65.5q53 0 125.5 -33t101.5 -33t48 18.5t24 49.5h149q-12 -128 -63.5 -194 t-138.5 -66q-53 0 -126 32.5t-102 32.5q-61 0 -71 -65h-150z" />
<glyph unicode="&#xf2;" horiz-adv-x="1218" d="M70 518q0 249 145.5 396t394.5 147q247 0 393 -147t146 -396t-146 -396t-393 -147q-249 0 -394.5 147t-145.5 396zM299 1466h322l106 -303h-227zM385 518q0 -145 61 -230t164 -85t163.5 85t60.5 230q0 142 -61.5 227.5t-162.5 85.5q-103 0 -164 -84.5t-61 -228.5z" />
<glyph unicode="&#xf3;" horiz-adv-x="1218" d="M70 518q0 249 145.5 396t394.5 147q247 0 393 -147t146 -396t-146 -396t-393 -147q-249 0 -394.5 147t-145.5 396zM385 518q0 -145 61 -230t164 -85t163.5 85t60.5 230q0 142 -61.5 227.5t-162.5 85.5q-103 0 -164 -84.5t-61 -228.5zM492 1163l106 303h324l-201 -303 h-229z" />
<glyph unicode="&#xf4;" horiz-adv-x="1218" d="M70 518q0 249 145.5 396t394.5 147q247 0 393 -147t146 -396t-146 -396t-393 -147q-249 0 -394.5 147t-145.5 396zM295 1163l207 303h217l207 -303h-170l-142 133h-8l-141 -133h-170zM385 518q0 -145 61 -230t164 -85t163.5 85t60.5 230q0 142 -61.5 227.5t-162.5 85.5 q-103 0 -164 -84.5t-61 -228.5z" />
<glyph unicode="&#xf5;" horiz-adv-x="1218" d="M70 518q0 249 145.5 396t394.5 147q247 0 393 -147t146 -396t-146 -396t-393 -147q-249 0 -394.5 147t-145.5 396zM285 1176q12 127 63.5 192.5t138.5 65.5q53 0 126 -33t102 -33t47.5 18.5t23.5 49.5h150q-12 -128 -64 -194t-139 -66q-53 0 -125.5 32.5t-101.5 32.5 q-62 0 -72 -65h-149zM385 518q0 -145 61 -230t164 -85t163.5 85t60.5 230q0 142 -61.5 227.5t-162.5 85.5q-103 0 -164 -84.5t-61 -228.5z" />
<glyph unicode="&#xf6;" horiz-adv-x="1218" d="M70 518q0 249 145.5 396t394.5 147q247 0 393 -147t146 -396t-146 -396t-393 -147q-249 0 -394.5 147t-145.5 396zM293 1186v246h248v-246h-248zM385 518q0 -145 61 -230t164 -85t163.5 85t60.5 230q0 142 -61.5 227.5t-162.5 85.5q-103 0 -164 -84.5t-61 -228.5z M680 1186v246h248v-246h-248z" />
<glyph unicode="&#xf7;" horiz-adv-x="1228" d="M94 561v217h1041v-217h-1041zM453 287q0 71 45.5 116.5t115.5 45.5t116 -45.5t46 -116.5t-46 -116.5t-116 -45.5t-115.5 45.5t-45.5 116.5zM453 1053q0 71 45.5 116t115.5 45q71 0 116.5 -45.5t45.5 -115.5q0 -71 -46 -116.5t-116 -45.5t-115.5 45.5t-45.5 116.5z" />
<glyph unicode="&#xf8;" horiz-adv-x="1218" d="M70 518q0 249 145.5 396t394.5 147q145 0 260 -53l66 98h145l-108 -164q176 -146 176 -424q0 -249 -146 -396t-393 -147q-142 0 -254 50l-73 -111h-146l117 174q-89 71 -136.5 181t-47.5 249zM385 518q0 -107 35 -182l307 459q-48 36 -117 36q-103 0 -164 -84.5 t-61 -228.5zM498 236q54 -33 112 -33q103 0 163.5 85t60.5 230q0 99 -31 172z" />
<glyph unicode="&#xf9;" horiz-adv-x="1220" d="M125 389v647h303v-608q0 -207 164 -207q88 0 139 58t51 165v592h303v-1036h-290v125h-9q-103 -150 -311 -150q-169 0 -259.5 107t-90.5 307zM297 1466h321l107 -303h-227z" />
<glyph unicode="&#xfa;" horiz-adv-x="1220" d="M125 389v647h303v-608q0 -207 164 -207q88 0 139 58t51 165v592h303v-1036h-290v125h-9q-103 -150 -311 -150q-169 0 -259.5 107t-90.5 307zM489 1163l107 303h324l-201 -303h-230z" />
<glyph unicode="&#xfb;" horiz-adv-x="1220" d="M125 389v647h303v-608q0 -207 164 -207q88 0 139 58t51 165v592h303v-1036h-290v125h-9q-103 -150 -311 -150q-169 0 -259.5 107t-90.5 307zM293 1163l207 303h217l207 -303h-170l-142 133h-8l-141 -133h-170z" />
<glyph unicode="&#xfc;" horiz-adv-x="1220" d="M125 389v647h303v-608q0 -207 164 -207q88 0 139 58t51 165v592h303v-1036h-290v125h-9q-103 -150 -311 -150q-169 0 -259.5 107t-90.5 307zM291 1186v246h248v-246h-248zM678 1186v246h248v-246h-248z" />
<glyph unicode="&#xfd;" horiz-adv-x="1122" d="M18 1036h310l231 -653h8l234 653h303l-457 -1181q-85 -224 -334 -224h-231l41 222h160q65 0 90 67l37 92zM446 1163l107 303h324l-201 -303h-230z" />
<glyph unicode="&#xfe;" horiz-adv-x="1249" d="M135 -393v1827l303 45v-568h8q46 72 125 111t179 39q198 0 314 -148t116 -401q0 -246 -116 -391.5t-314 -145.5q-103 0 -181.5 41t-122.5 117h-8v-481zM434 518q0 -152 53.5 -233.5t153.5 -81.5q103 0 163 84.5t60 230.5q0 145 -60 229t-163 84q-100 0 -153.5 -81 t-53.5 -232z" />
<glyph unicode="&#xff;" horiz-adv-x="1122" d="M18 1036h310l231 -653h8l234 653h303l-457 -1181q-85 -224 -334 -224h-231l41 222h160q65 0 90 67l37 92zM248 1186v246h248v-246h-248zM635 1186v246h248v-246h-248z" />
<glyph unicode="&#x131;" horiz-adv-x="581" d="M139 0v1036h303v-1036h-303z" />
<glyph unicode="&#x141;" horiz-adv-x="1146" d="M20 244v241l160 133v816h318v-568l354 297v-239l-354 -297v-340q0 -13 8 -22t20 -9h576l-45 -256h-803q-35 0 -54.5 19.5t-19.5 54.5v305z" />
<glyph unicode="&#x142;" horiz-adv-x="622" d="M12 557v186l148 76v615l303 45v-496l147 78v-187l-147 -77v-797h-303v633z" />
<glyph unicode="&#x152;" horiz-adv-x="2213" d="M82 717q0 342 175 541.5t474 199.5q153 0 268.5 -55t178.5 -158h8v115q0 35 19.5 54.5t54.5 19.5h856l-41 -256h-543q-13 0 -21 -8.5t-8 -22.5v-860q0 -14 8 -22.5t21 -8.5h604l-41 -256h-835q-35 0 -54.5 19.5t-19.5 54.5v114h-8q-63 -103 -178.5 -158t-268.5 -55 q-299 0 -474 199.5t-175 542.5zM416 717q0 -220 103 -349.5t276 -129.5t274.5 129.5t101.5 349.5t-101.5 349.5t-274.5 129.5t-276 -129.5t-103 -349.5zM1573 612l41 240h438l-41 -240h-438z" />
<glyph unicode="&#x153;" horiz-adv-x="1923" d="M70 518q0 249 144 396t390 147q251 0 383 -156q134 156 367 156q235 0 367 -151.5t132 -420.5v-51h-645l35 183h320q-12 116 -62.5 175.5t-136.5 59.5q-104 0 -164.5 -91t-60.5 -249q0 -155 60 -240.5t167 -85.5q72 0 120 37.5t62 102.5h291q-23 -164 -150 -259.5 t-323 -95.5q-237 0 -379 158q-133 -158 -383 -158q-246 0 -390 147t-144 396zM385 518q0 -146 59 -230.5t160 -84.5t160 85t59 230q0 143 -59.5 228t-159.5 85q-101 0 -160 -84t-59 -229z" />
<glyph unicode="&#x160;" horiz-adv-x="1280" d="M78 463h299q8 -116 83 -180t202 -64q114 0 175.5 46.5t61.5 131.5q0 72 -47 116t-150 67l-198 43q-393 85 -393 411q0 194 139.5 309t370.5 115q238 0 386.5 -120.5t157.5 -321.5h-293q-9 93 -79 148t-175 55q-96 0 -154 -43t-58 -115q0 -128 172 -166l198 -43 q215 -46 319.5 -151.5t104.5 -276.5q0 -209 -143.5 -329t-394.5 -120q-258 0 -416.5 132t-167.5 356zM315 1835h170l142 -133h8l141 133h170l-207 -303h-217z" />
<glyph unicode="&#x161;" horiz-adv-x="1036" d="M70 328h280q5 -65 51.5 -100t128.5 -35q71 0 109.5 25.5t38.5 72.5q0 75 -121 102l-143 33q-322 74 -322 319q0 146 112 231t300 85q194 0 310 -89.5t124 -242.5h-276q-3 55 -46 87t-110 32q-60 0 -96.5 -24.5t-36.5 -65.5q0 -73 104 -94l150 -33q174 -38 257 -117 t83 -205q0 -157 -114.5 -245.5t-317.5 -88.5q-207 0 -333 96t-132 257zM197 1466h170l141 -133h8l141 133h170l-206 -303h-218z" />
<glyph unicode="&#x178;" horiz-adv-x="1314" d="M27 1434h346l286 -508h9l286 508h334l-471 -803v-631h-317v633zM346 1554v246h248v-246h-248zM733 1554v246h248v-246h-248z" />
<glyph unicode="&#x17d;" horiz-adv-x="1255" d="M66 0v223l682 946v9h-642l46 256h1005v-224l-684 -946v-8h713l-45 -256h-1075zM309 1835h170l142 -133h8l141 133h170l-207 -303h-217z" />
<glyph unicode="&#x17e;" horiz-adv-x="1060" d="M61 0v197l510 610v8h-481l41 221h848v-196l-510 -611v-10h530l-41 -219h-897zM215 1466h170l141 -133h9l141 133h170l-207 -303h-217z" />
<glyph unicode="&#x192;" horiz-adv-x="966" d="M-82 -350l37 239h117q114 0 135 113l129 680h-205l35 211h211l43 231q32 169 132 251.5t273 82.5h183l-37 -237h-109q-116 0 -137 -113l-41 -215h190l-34 -211h-195l-133 -696q-32 -171 -131 -253.5t-272 -82.5h-191z" />
<glyph unicode="&#x2c6;" horiz-adv-x="1024" d="M197 1174l206 301h218l206 -301h-170l-141 133h-8l-141 -133h-170z" />
<glyph unicode="&#x2c7;" horiz-adv-x="1024" d="M197 1475h170l141 -134h8l141 134h170l-206 -301h-218z" />
<glyph unicode="&#x2d8;" horiz-adv-x="1024" d="M211 1458h158q9 -49 46.5 -76.5t96.5 -27.5t96.5 27.5t46.5 76.5h158q-12 -130 -91 -202t-210 -72t-210 72t-91 202z" />
<glyph unicode="&#x2d9;" horiz-adv-x="1024" d="M379 1192v266h266v-266h-266z" />
<glyph unicode="&#x2da;" horiz-adv-x="1024" d="M301 1354q0 88 59.5 144t151.5 56t151.5 -56t59.5 -144t-59.5 -145.5t-151.5 -57.5t-151.5 57.5t-59.5 145.5zM422 1354q0 -40 25 -66t65 -26t65 26t25 66t-25 65t-65 25q-39 0 -64.5 -25.5t-25.5 -64.5z" />
<glyph unicode="&#x2db;" horiz-adv-x="1024" d="M313 -209q0 67 46 129t124 100h183q-107 -80 -107 -165q0 -68 78 -68q37 0 65 14v-155q-78 -33 -163 -33q-106 0 -166 47.5t-60 130.5z" />
<glyph unicode="&#x2dc;" horiz-adv-x="1024" d="M186 1186q12 126 64 191t139 65q53 0 125.5 -32t101.5 -32t48.5 18t23.5 50h150q-12 -128 -64 -194t-139 -66q-53 0 -125.5 31.5t-101.5 31.5q-63 0 -72 -63h-150z" />
<glyph unicode="&#x2dd;" horiz-adv-x="1024" d="M207 1174l65 301h258l-145 -301h-178zM551 1174l65 301h258l-143 -301h-180z" />
<glyph unicode="&#x300;" d="M-762 1466h322l106 -303h-227z" />
<glyph unicode="&#x301;" d="M-684 1163l106 303h324l-201 -303h-229z" />
<glyph unicode="&#x302;" d="M-827 1163l206 303h218l206 -303h-170l-141 133h-8l-141 -133h-170z" />
<glyph unicode="&#x303;" d="M-838 1176q12 127 64 192.5t139 65.5q53 0 125.5 -33t101.5 -33t48 18.5t24 49.5h150q-12 -128 -64 -194t-139 -66q-53 0 -125.5 32.5t-101.5 32.5q-62 0 -72 -65h-150z" />
<glyph unicode="&#x304;" d="M-799 1212v174h574v-174h-574z" />
<glyph unicode="&#x306;" d="M-813 1450h158q9 -51 46.5 -79t96.5 -28t96.5 28t46.5 79h158q-12 -131 -91.5 -203.5t-209.5 -72.5t-209.5 72.5t-91.5 203.5z" />
<glyph unicode="&#x307;" d="M-645 1182v268h266v-268h-266z" />
<glyph unicode="&#x308;" d="M-829 1186v246h247v-246h-247zM-442 1186v246h247v-246h-247z" />
<glyph unicode="&#x30a;" d="M-723 1343q0 88 59.5 145.5t151.5 57.5t151.5 -57.5t59.5 -145.5t-59.5 -144t-151.5 -56t-151.5 56t-59.5 144zM-602 1343q0 -38 26 -64t64 -26q39 0 64.5 25.5t25.5 64.5q0 40 -25.5 66.5t-64.5 26.5t-64.5 -26.5t-25.5 -66.5z" />
<glyph unicode="&#x30b;" d="M-817 1163l65 303h258l-145 -303h-178zM-473 1163l65 303h258l-143 -303h-180z" />
<glyph unicode="&#x30c;" d="M-827 1466h170l141 -133h8l141 133h170l-206 -303h-218z" />
<glyph unicode="&#x323;" d="M-645 -139h266v-269h-266v269z" />
<glyph unicode="&#x327;" d="M-715 -442l41 125h129q32 0 51 15.5t19 41.5q0 27 -17.5 42t-48.5 15q-24 0 -53 -16l-88 76l82 166h145l-69 -121q24 6 53 6q74 0 118 -46.5t44 -125.5q0 -83 -62 -130.5t-168 -47.5h-176z" />
<glyph unicode="&#x328;" d="M-711 -209q0 67 46 129t124 100h183q-107 -80 -107 -165q0 -68 78 -68q37 0 65 14v-155q-78 -33 -163 -33q-106 0 -166 47.5t-60 130.5z" />
<glyph unicode="&#x394;" horiz-adv-x="1347" d="M41 0v215l438 1219h389l439 -1219v-215h-1266zM377 252h592l-291 833h-8z" />
<glyph unicode="&#x3a9;" horiz-adv-x="1558" d="M82 0v252h375v8q-156 95 -244 252t-88 340q0 278 177.5 442t477.5 164q298 0 476 -164.5t178 -441.5q0 -184 -87.5 -340.5t-244.5 -251.5v-8h375v-252h-609v217q236 261 236 569q0 187 -88 298.5t-236 111.5q-149 0 -237 -111t-88 -299q0 -310 235 -569v-217h-608z" />
<glyph unicode="&#x3bc;" horiz-adv-x="1228" d="M135 -410v1446h303v-608q0 -207 164 -207q89 0 140 59.5t51 163.5v592h303v-1036h-258l-33 125h-8q-101 -150 -303 -150q-11 0 -56 5v-390h-303z" />
<glyph unicode="&#x3c0;" horiz-adv-x="1357" d="M18 829l39 207h1237l-39 -207h-196v-489q0 -49 26 -75.5t74 -26.5h144l-41 -238h-168q-163 0 -250.5 86t-87.5 244v499h-260v-829h-303v829h-175z" />
<glyph unicode="&#xe01;" horiz-adv-x="1335" d="M92 762v51q75 169 219.5 259.5t339.5 90.5q247 0 395 -133t148 -354v-676h-309v688q0 110 -62 172t-172 62q-82 0 -141.5 -35t-87.5 -99l151 -86v-79l-116 -115v-508h-310v543l125 110z" />
<glyph unicode="&#xe02;" horiz-adv-x="1222" d="M131 403v99q0 59 20 98t85 109q77 82 77 129v28q0 22 -9.5 31.5t-31.5 9.5h-137l41 232h203q221 0 221 -217v-62q0 -63 -15 -100t-67 -101q-48 -60 -67 -98.5t-19 -73.5v-73q0 -92 44 -142.5t126 -50.5t126 50.5t44 142.5v725h309v-736q0 -195 -130 -311.5t-349 -116.5 q-217 0 -344 115.5t-127 312.5z" />
<glyph unicode="&#xe03;" horiz-adv-x="1224" d="M53 934l41 221q68 0 111 -30.5t53 -88.5h8l94 103h46q109 0 166 -55t57 -162v-62q0 -56 -19 -95.5t-80 -109.5q-54 -63 -75 -104t-21 -82v-55q0 -94 44.5 -143.5t127.5 -49.5t128.5 50.5t45.5 142.5v725h303v-736q0 -196 -129.5 -312t-347.5 -116q-217 0 -344 115.5 t-127 312.5v80q0 65 22.5 104.5t100.5 117.5q96 96 96 135v34q0 37 -35 37h-4l-79 -84h-54q-12 107 -129 107z" />
<glyph unicode="&#xe04;" horiz-adv-x="1351" d="M141 0v649q0 243 140.5 378.5t392.5 135.5q253 0 394.5 -135.5t141.5 -378.5v-649h-305v651q0 126 -61.5 198.5t-169.5 72.5t-171 -72.5t-63 -198.5v-223h9q80 221 299 221q26 0 38 -4l-41 -264q-38 6 -53 6q-110 0 -179 -70.5t-69 -183.5v-133h-303z" />
<glyph unicode="&#xe05;" horiz-adv-x="1384" d="M145 0v748q0 203 74.5 307t220.5 104q134 0 204 -96.5t85 -302.5h-104q-17 153 -93 153q-46 0 -67 -44.5t-21 -141.5v-309h9q38 109 118 166t197 57q15 0 35 -4l-41 -266q-24 8 -53 8q-112 0 -186 -73t-74 -183v-123h-304zM735 1022l111 123h96q141 0 217 -77.5 t76 -223.5v-844h-305v819q0 82 -60 88l-73 -82h-11q-9 124 -51 197z" />
<glyph unicode="&#xe06;" horiz-adv-x="1323" d="M53 934l17 221q80 0 130 -31t62 -88h8l95 103h57q105 0 160 -54t55 -157v-41q0 -51 -22 -97.5t-76 -107.5q-58 -67 -77.5 -102.5t-19.5 -75.5v-25q0 -117 59 -182.5t165 -65.5q98 0 152 62t54 176v670h310v-707q0 -221 -100 -339t-289 -118q-238 0 -351 175h-8v-150h-291 v498q0 51 27 97t96 114q60 59 78 84t18 51v30q0 37 -34 37h-9l-79 -84h-54q-12 107 -133 107z" />
<glyph unicode="&#xe07;" horiz-adv-x="1173" d="M25 823h305l174 -590h12q120 0 189 91t69 249q0 155 -65 242.5t-181 87.5h-79l40 236h84q241 0 383 -151t142 -406q0 -266 -156 -424t-418 -158h-243z" />
<glyph unicode="&#xe08;" horiz-adv-x="1210" d="M53 745q23 198 157.5 308t354.5 110q264 0 417 -154.5t153 -420.5q0 -268 -161 -428t-431 -160h-189l-121 391h-155l41 215h338l110 -370q117 6 180.5 98t63.5 256q0 157 -63 243.5t-177 86.5q-86 0 -143 -47.5t-68 -127.5h-307z" />
<glyph unicode="&#xe09;" horiz-adv-x="1261" d="M53 397l39 215h350v-172q0 -211 174 -211q94 0 144.5 64.5t50.5 183.5v244q0 95 -55.5 149t-153.5 54q-92 0 -147 -47t-64 -132h-303q25 202 160 310t362 108q244 0 377 -122.5t133 -348.5v-692h-301v152h-8q-49 -86 -133 -131.5t-193 -45.5q-161 0 -247 102t-86 294v26 h-99z" />
<glyph unicode="&#xe0a;" horiz-adv-x="1224" d="M121 907l41 232h200q222 0 222 -217v-62q0 -59 -15 -99.5t-61 -101.5q-46 -64 -62 -96.5t-16 -75.5v-73q0 -92 45.5 -142.5t130.5 -50.5q84 0 129 50t45 143v100q0 94 -106 94h-43l41 193h28q99 0 99 84v241l295 45v-258q0 -75 -35.5 -126.5t-100.5 -71.5q59 -26 92 -80 t33 -125v-107q0 -196 -129.5 -312t-347.5 -116t-346.5 115.5t-128.5 312.5v99q0 59 18.5 100t77.5 107q41 47 56.5 75t15.5 54v28q0 22 -9.5 31.5t-31.5 9.5h-137z" />
<glyph unicode="&#xe0b;" horiz-adv-x="1236" d="M41 934l41 221q69 0 111 -31t53 -88h8l94 103h47q107 0 163 -55.5t56 -161.5v-62q0 -58 -17.5 -98t-72.5 -107q-51 -62 -70.5 -102t-19.5 -84v-55q0 -93 46 -143t132 -50q87 0 134 50t47 143v100q0 94 -109 94h-43l41 193h29q100 0 100 84v241l295 45v-258 q0 -75 -35 -126.5t-100 -71.5q59 -26 92 -80t33 -125v-107q0 -195 -131.5 -311.5t-352.5 -116.5q-220 0 -348.5 115.5t-128.5 312.5v80q0 69 22 112t93 112q92 92 92 133v34q0 37 -35 37h-4l-80 -84h-53q-12 107 -129 107z" />
<glyph unicode="&#xe0c;" horiz-adv-x="2004" d="M90 762v51q73 170 215.5 260t337.5 90q243 0 387 -132t144 -353v-195q0 -118 52 -184t146 -66q182 0 182 246v660h310v-703q0 -224 -94 -342.5t-271 -118.5q-223 0 -325 177h-9v-152h-297v692q0 109 -59 169.5t-166 60.5q-79 0 -137 -35.5t-86 -100.5l151 -84v-79 l-120 -115v-178q0 -92 92 -92h121l-43 -238h-162q-157 0 -237.5 76.5t-80.5 226.5v240l127 112z" />
<glyph unicode="&#xe0d;" horiz-adv-x="2011" d="M90 762v51q73 170 215.5 260t337.5 90q243 0 387 -132t144 -353v-186q0 -234 180 -234q95 0 147.5 66t52.5 186v629h310v-1151q0 -193 -135.5 -307.5t-364.5 -114.5q-201 0 -326.5 89.5t-142.5 246.5h299q7 -58 53 -89.5t121 -31.5q93 0 144 46t51 130v219h-9 q-105 -176 -327 -176q-177 0 -268 113t-91 333v246q0 109 -59 169.5t-166 60.5q-79 0 -137 -35.5t-86 -100.5l151 -84v-79l-120 -115v-178q0 -92 92 -92h121l-43 -238h-162q-157 0 -237.5 76.5t-80.5 226.5v240l127 112z" />
<glyph unicode="&#xe0e;" horiz-adv-x="1337" d="M12 0l41 238h45q74 0 74 69v244l111 100l-189 111v51q72 169 216.5 259.5t342.5 90.5q248 0 395.5 -132t147.5 -355v-770q0 -154 -89 -241t-247 -87h-141q-7 58 -43 90.5t-92 32.5q-55 0 -91 -33t-44 -90h-291q19 166 117 258t257 92q190 0 283 -125h2q70 0 70 82v803 q0 110 -62 172t-172 62q-83 0 -143.5 -35.5t-85.5 -98.5l156 -88v-79l-105 -107v-235q0 -136 -75 -207.5t-218 -71.5h-170z" />
<glyph unicode="&#xe0f;" horiz-adv-x="1337" d="M12 0l41 238h45q74 0 74 69v244l111 100l-189 111v51q72 169 216.5 259.5t342.5 90.5q248 0 395.5 -132t147.5 -355v-768q0 -158 -87.5 -244t-248.5 -86h-92l-104 103h-9l-104 -103h-119q-37 111 -235 111l45 229q209 0 256 -121h8l102 105h92l99 -103h12q76 0 76 88v801 q0 110 -62 172t-172 62q-83 0 -143.5 -35.5t-85.5 -98.5l156 -88v-79l-105 -107v-235q0 -136 -75 -207.5t-218 -71.5h-170z" />
<glyph unicode="&#xe10;" horiz-adv-x="1222" d="M53 745q23 196 155.5 307t344.5 111q89 0 160 -22l506 14l-39 -235l-181 34q136 -111 136 -364q0 -270 -161 -430t-431 -160h-189l-121 391h-155l41 215h338l110 -370q117 6 180.5 98t63.5 256q0 157 -63 243.5t-177 86.5q-86 0 -143 -47.5t-68 -127.5h-307zM88 -444 l39 225h209l115 98h94l114 -98h58q44 0 68 25t24 71v43h283v-76q0 -137 -78.5 -212.5t-220.5 -75.5h-172l-119 108h-8l-121 -108h-285z" />
<glyph unicode="&#xe11;" horiz-adv-x="1325" d="M43 934l41 221q69 0 115.5 -32t58.5 -87h8l94 103h50q168 0 186 -135h8l115 135h174q135 0 209 -76t74 -215v-848h-310v821q0 82 -78 82h-12l-239 -270q-51 -57 -67.5 -89t-16.5 -71v-473h-310v479q0 53 27 100t94 113q56 55 75 84t19 60v38q0 37 -34 37h-9l-79 -84h-54 q-6 51 -42 79t-97 28z" />
<glyph unicode="&#xe12;" horiz-adv-x="2103" d="M117 526q0 305 96 470t274 165q271 0 301 -401h-118q-12 166 -111 166q-151 0 -151 -400q0 -325 131 -325q57 0 84.5 56t29.5 175h-133l37 203h301v-189q0 -233 -89.5 -352t-264.5 -119q-192 0 -289.5 139.5t-97.5 411.5zM795 1016l110 129h94q132 0 202.5 -76t70.5 -217 v-369q0 -120 53 -186t148 -66q88 0 134 62.5t46 181.5v664h309v-709q0 -222 -93.5 -338.5t-271.5 -116.5q-219 0 -325 177h-8v-152h-275v817q0 90 -57 90l-80 -88h-6q-12 121 -51 197z" />
<glyph unicode="&#xe13;" horiz-adv-x="2013" d="M90 762v51q73 170 215.5 260t337.5 90q243 0 387 -132t144 -353v-213q0 -114 46 -173t134 -59q95 0 147.5 65.5t52.5 184.5v656h310v-1139h-301v152h-9q-106 -177 -327 -177q-177 0 -268 113.5t-91 333.5v270q0 109 -59 169.5t-166 60.5q-79 0 -137 -35.5t-86 -100.5 l151 -84v-79l-120 -115v-178q0 -92 92 -92h121l-43 -238h-162q-157 0 -237.5 76.5t-80.5 226.5v240l127 112z" />
<glyph unicode="&#xe14;" horiz-adv-x="1400" d="M117 518q0 306 157.5 475.5t440.5 169.5q256 0 400.5 -137.5t144.5 -382.5v-643h-285v655q0 126 -69 196.5t-193 70.5q-150 0 -227.5 -105.5t-77.5 -308.5q0 -159 30.5 -233t96.5 -74q57 0 82.5 56.5t27.5 184.5h-121l37 205h287v-201q0 -233 -87 -352t-259 -119 q-190 0 -287.5 138t-97.5 405z" />
<glyph unicode="&#xe15;" horiz-adv-x="1431" d="M117 526q0 305 96 470t274 165q276 0 306 -401h-119q-6 81 -35.5 123.5t-79.5 42.5q-151 0 -151 -400q0 -325 131 -325q117 0 120 231h-135l37 203h303v-189q0 -231 -91.5 -351t-268.5 -120q-192 0 -289.5 139.5t-97.5 411.5zM797 1014l114 131h95q132 0 204 -76t72 -217 v-852h-285v817q0 87 -57 90l-82 -92h-8q-9 125 -53 199z" />
<glyph unicode="&#xe16;" horiz-adv-x="1341" d="M90 762v51q74 169 219.5 259.5t343.5 90.5q248 0 397.5 -133t149.5 -354v-676h-309v688q0 110 -63 172t-173 62q-84 0 -145.5 -35.5t-89.5 -100.5l151 -84v-79l-120 -115v-178q0 -92 92 -92h121l-43 -238h-162q-157 0 -237.5 76.5t-80.5 226.5v240l127 112z" />
<glyph unicode="&#xe17;" horiz-adv-x="1329" d="M150 0v1139h301v-152h8q110 176 346 176q186 0 284.5 -116.5t98.5 -337.5v-709h-309v659q0 120 -51.5 183t-149.5 63q-104 0 -161.5 -69t-57.5 -195v-641h-309z" />
<glyph unicode="&#xe18;" horiz-adv-x="1130" d="M94 856q0 148 118.5 227.5t342.5 79.5q220 0 340.5 -90.5t130.5 -263.5h-297q-9 59 -59 92t-129 33q-67 0 -106.5 -24.5t-39.5 -65.5q0 -79 137 -109l197 -43q166 -37 244 -120t78 -222q0 -172 -108.5 -261t-315.5 -89h-437q-75 0 -75 74v383h295v-201q0 -12 8 -20.5 t20 -8.5h148q78 0 122 36t44 99q0 52 -34 82.5t-112 49.5l-194 45q-318 74 -318 317z" />
<glyph unicode="&#xe19;" horiz-adv-x="1320" d="M141 426v713h310v-662q0 -120 49.5 -183t144.5 -63q103 0 160 69.5t57 195.5v643h309v-1139h-301v152h-8q-111 -177 -342 -177q-185 0 -282 115.5t-97 335.5z" />
<glyph unicode="&#xe1a;" horiz-adv-x="1312" d="M141 453v686h310v-682q0 -114 53 -175t151 -61q100 0 153.5 61t53.5 175v682h309v-686q0 -218 -140 -348t-376 -130q-235 0 -374.5 130t-139.5 348z" />
<glyph unicode="&#xe1b;" horiz-adv-x="1312" d="M141 453v686h310v-682q0 -114 53 -175t151 -61q100 0 153.5 61t53.5 175v1050l309 45v-1099q0 -218 -140 -348t-376 -130q-235 0 -374.5 130t-139.5 348z" />
<glyph unicode="&#xe1c;" horiz-adv-x="1388" d="M150 0v866q0 135 71 204t209 69h188l-40 -236h-66q-72 0 -72 -72v-479h9l192 357h107l192 -357h8v787h291v-1139h-319l-222 436h-8l-221 -436h-319z" />
<glyph unicode="&#xe1d;" horiz-adv-x="1388" d="M150 0v866q0 135 71 204t209 69h188l-40 -236h-66q-72 0 -72 -72v-479h9l192 357h107l192 -357h8v1155l291 45v-1552h-319l-222 436h-8l-221 -436h-319z" />
<glyph unicode="&#xe1e;" horiz-adv-x="1497" d="M29 1139h305l131 -713h8l195 713h163l193 -709h8l129 709h307l-235 -1139h-293l-186 678h-9l-188 -678h-293z" />
<glyph unicode="&#xe1f;" horiz-adv-x="1484" d="M29 1139h305l123 -713h8l201 713h163l179 -707h8l209 1065l301 45l-312 -1542h-286l-183 672h-8l-192 -672h-291z" />
<glyph unicode="&#xe20;" horiz-adv-x="1337" d="M12 0l41 238h45q74 0 74 69v244l111 100l-189 111v51q72 169 216.5 259.5t342.5 90.5q247 0 395 -133t148 -354v-676h-309v688q0 110 -62 172t-172 62q-83 0 -143.5 -35.5t-85.5 -98.5l156 -88v-79l-105 -107v-235q0 -136 -75 -207.5t-218 -71.5h-170z" />
<glyph unicode="&#xe21;" horiz-adv-x="1320" d="M150 0v1139h309v-643q0 -125 57 -195t158 -70q97 0 146.5 64.5t49.5 189.5v654h310v-703q0 -224 -97.5 -342.5t-281.5 -118.5q-231 0 -342 177h-8v-152h-301z" />
<glyph unicode="&#xe22;" horiz-adv-x="1308" d="M113 377q0 103 48 180t138 117l201 -158q-74 -44 -74 -129q0 -78 54 -122t149 -44q112 0 170.5 64.5t58.5 187.5v666h309v-668q0 -232 -144 -364t-396 -132q-233 0 -373.5 110t-140.5 292zM121 901l41 238h510l-41 -219h-199l223 -183v-147l-92 -39z" />
<glyph unicode="&#xe23;" horiz-adv-x="1093" d="M76 354h291q7 -70 57 -108.5t133 -38.5q75 0 116.5 30.5t41.5 86.5q0 44 -31 71.5t-100 42.5l-150 35q-161 37 -244.5 125t-83.5 221q0 160 113 252t309 92q201 0 324.5 -97.5t130.5 -264.5h-285q-7 64 -49.5 98.5t-113.5 34.5q-65 0 -101.5 -26.5t-36.5 -73.5 q0 -83 109 -107l156 -35q179 -40 265.5 -127.5t86.5 -228.5q0 -170 -119 -265.5t-332 -95.5q-218 0 -348 101t-139 278z" />
<glyph unicode="&#xe24;" horiz-adv-x="1341" d="M90 762v51q74 169 219.5 259.5t343.5 90.5q248 0 397.5 -133t149.5 -354v-1065l-309 -45v1122q0 110 -63 172t-173 62q-84 0 -145.5 -35.5t-89.5 -100.5l151 -84v-79l-120 -115v-178q0 -92 92 -92h121l-43 -238h-162q-157 0 -237.5 76.5t-80.5 226.5v240l127 112z" />
<glyph unicode="&#xe25;" horiz-adv-x="1259" d="M80 303q0 131 105 215t333 135l225 49l-38 -210l-138 -33q-164 -41 -164 -125q0 -51 40.5 -80t109.5 -29h121l-41 -225h-156q-185 0 -291 81t-106 222zM121 774q26 183 160 286t348 103q229 0 359 -116t130 -320v-727h-309v756q0 83 -49.5 128.5t-141.5 45.5 q-171 0 -192 -156h-305z" />
<glyph unicode="&#xe26;" horiz-adv-x="1337" d="M12 0l41 238h45q74 0 74 69v244l111 100l-189 111v51q72 169 216.5 259.5t342.5 90.5q247 0 395 -133t148 -354v-1065l-309 -45v1122q0 110 -62 172t-172 62q-83 0 -143.5 -35.5t-85.5 -98.5l156 -88v-79l-105 -107v-235q0 -136 -75 -207.5t-218 -71.5h-170z" />
<glyph unicode="&#xe27;" horiz-adv-x="1173" d="M63 389h312q10 -79 59 -125.5t121 -46.5q101 0 159 94t58 260q0 163 -57 256t-158 93q-73 0 -122 -46t-60 -124h-307q23 190 155 300.5t336 110.5q244 0 391.5 -161.5t147.5 -428.5q0 -270 -147.5 -433t-393.5 -163q-206 0 -338.5 111t-155.5 303z" />
<glyph unicode="&#xe28;" horiz-adv-x="1363" d="M141 0v649q0 243 140.5 378.5t392.5 135.5q91 0 162 -22l505 14l-38 -235l-197 38q104 -82 104 -278v-680h-305v651q0 126 -61.5 198.5t-169.5 72.5t-171 -72.5t-63 -198.5v-223h9q80 221 299 221q26 0 38 -4l-41 -264q-34 6 -53 6q-110 0 -179 -70.5t-69 -183.5v-133 h-303z" />
<glyph unicode="&#xe29;" horiz-adv-x="1357" d="M141 467v672h310v-676q0 -117 57.5 -179.5t163.5 -62.5t162.5 62.5t56.5 179.5v98h-283l41 221h242v357h305v-357h145l-41 -221h-104v-94q0 -226 -142.5 -359t-385.5 -133q-242 0 -384.5 133t-142.5 359z" />
<glyph unicode="&#xe2a;" horiz-adv-x="1269" d="M80 303q0 131 105 215t333 135l225 49l-38 -210l-138 -33q-164 -41 -164 -125q0 -51 40.5 -80t109.5 -29h121l-41 -225h-156q-185 0 -291 81t-106 222zM121 774q26 182 158 285.5t337 103.5q100 0 156 -22l475 14l-39 -235l-168 32q78 -81 78 -225v-727h-309v756 q0 83 -49.5 128.5t-141.5 45.5q-171 0 -192 -156h-305z" />
<glyph unicode="&#xe2b;" horiz-adv-x="1296" d="M150 0v1139h309v-1139h-309zM530 500v311l316 328h362v-9l-327 -305q135 -6 210.5 -88.5t75.5 -224.5v-512h-309v489q0 57 -35.5 89t-99.5 32h-74z" />
<glyph unicode="&#xe2c;" horiz-adv-x="1476" d="M29 1139h305l115 -748h8l194 543h166l176 -539h8l103 490q8 36 8 67q0 61 -35.5 89t-113.5 28h-265l43 209h285q83 0 126 30t56 99l19 92l301 45l-27 -133q-19 -89 -78 -153t-149 -93q119 -61 119 -209q0 -29 -11 -86l-180 -870h-284l-185 573h-8l-190 -573h-293z" />
<glyph unicode="&#xe2d;" horiz-adv-x="1267" d="M76 518q0 68 8 123h555l-39 -207h-221q8 -107 66.5 -163t164.5 -56q122 0 189 92.5t67 261.5q0 164 -68 257.5t-188 93.5q-84 0 -141 -44.5t-72 -121.5h-311q17 187 162.5 298t372.5 111q267 0 419 -159t152 -439q0 -273 -155 -431.5t-421 -158.5q-252 0 -396 146.5 t-144 396.5z" />
<glyph unicode="&#xe2e;" horiz-adv-x="1280" d="M76 518q0 68 8 123h555l-39 -207h-221q8 -107 66.5 -163t164.5 -56q122 0 189 92.5t67 261.5q0 164 -68 257.5t-188 93.5q-84 0 -141 -44.5t-72 -121.5h-311q17 186 157.5 297.5t358.5 111.5q93 0 164 -22l510 14l-39 -235l-184 36q139 -117 139 -383q0 -278 -154.5 -438 t-421.5 -160q-252 0 -396 146.5t-144 396.5z" />
<glyph unicode="&#xe2f;" horiz-adv-x="1183" d="M45 793q0 158 100 252t267 94h137l-39 -228h-33q-50 0 -79 -29.5t-29 -80.5q0 -66 48.5 -102.5t133.5 -36.5q95 0 168 36v441h309v-1139h-309v475q-116 -53 -250 -53q-195 0 -309.5 100.5t-114.5 270.5z" />
<glyph unicode="&#xe30;" horiz-adv-x="673" d="M82 348v117h276v-74q0 -78 78 -78h176l-41 -227h-204q-138 0 -211.5 67.5t-73.5 194.5zM82 915v115h276v-74q0 -77 78 -77h176l-41 -226h-204q-138 0 -211.5 67.5t-73.5 194.5z" />
<glyph unicode="&#xe31;" d="M-750 1589v56h256v-64q0 -40 24 -62t67 -22h458l-41 -203h-469q-143 0 -219 76t-76 219z" />
<glyph unicode="&#xe32;" horiz-adv-x="782" d="M35 903l43 236h149q201 0 306.5 -98t105.5 -287v-754h-309v729q0 174 -174 174h-121z" />
<glyph unicode="&#xe33;" horiz-adv-x="782" d="M-532 1458q0 91 65 150t166 59t166 -59t65 -150t-65 -150t-166 -59t-166 59t-65 150zM-379 1458q0 -34 22 -56t56 -22t56 22t22 56t-22 56t-56 22t-56 -22t-22 -56zM35 903l43 236h149q201 0 306.5 -98t105.5 -287v-754h-309v729q0 174 -174 174h-121z" />
<glyph unicode="&#xe34;" d="M-1073 1294l41 203h891v-203h-932z" />
<glyph unicode="&#xe35;" d="M-1073 1294l41 203h624v166h267v-369h-932z" />
<glyph unicode="&#xe36;" d="M-1073 1294l41 203h532q3 83 63 136t152 53q94 0 153.5 -55.5t59.5 -141.5q0 -85 -60 -140t-153 -55h-788zM-354 1489q0 -31 19.5 -51.5t49.5 -20.5q29 0 48.5 20.5t19.5 51.5q0 32 -19 52t-49 20q-31 0 -50 -20t-19 -52z" />
<glyph unicode="&#xe37;" d="M-1073 1294l41 203h354v166h219v-172h84v172h234v-369h-932z" />
<glyph unicode="&#xe38;" d="M-539 -330l41 203h357v-422h-260v219h-138z" />
<glyph unicode="&#xe39;" d="M-901 -319l41 192h293v-186q0 -46 24.5 -72.5t65.5 -26.5q43 0 67.5 26.5t24.5 72.5v186h244v-219q0 -122 -88.5 -191t-245.5 -69q-150 0 -238 65t-88 176v46h-100z" />
<glyph unicode="&#xe3a;" d="M-463 -262q0 69 47.5 113.5t120.5 44.5t120.5 -44.5t47.5 -113.5t-47.5 -113.5t-120.5 -44.5t-120.5 44.5t-47.5 113.5z" />
<glyph unicode="&#xe3f;" horiz-adv-x="1228" d="M119 74v1286q0 35 20.5 54.5t55.5 19.5h364v204h100v-204q224 -4 349 -105t125 -276q0 -108 -58.5 -187.5t-169.5 -120.5q283 -78 283 -339q0 -191 -139.5 -298t-389.5 -108v-225h-100v225h-364q-35 0 -55.5 19.5t-20.5 54.5zM403 258q0 -12 8.5 -20.5t20.5 -8.5h127v400 h-156v-371zM403 844h156v360h-127q-12 0 -20.5 -7.5t-8.5 -20.5v-332zM659 229q114 1 176 54t62 147q0 93 -62 145.5t-176 53.5v-400zM659 844q96 3 149.5 50.5t53.5 129.5q0 83 -53 130t-150 50v-360z" />
<glyph unicode="&#xe40;" horiz-adv-x="655" d="M162 0v1139h309v-906h147l-43 -233h-413z" />
<glyph unicode="&#xe41;" horiz-adv-x="1269" d="M162 0v1139h309v-906h147l-43 -233h-413zM776 0v1139h309v-906h148l-43 -233h-414z" />
<glyph unicode="&#xe42;" horiz-adv-x="675" d="M-4 1569v45q0 95 54.5 145.5t154.5 50.5h549v-225h-441q94 -43 136.5 -128t42.5 -228v-996h147l-43 -233h-414v1253q0 146 -43 219.5t-143 96.5z" />
<glyph unicode="&#xe43;" horiz-adv-x="675" d="M-63 1483q17 163 127.5 257.5t283.5 94.5q174 0 278.5 -94t104.5 -250q0 -77 -35.5 -153.5t-107.5 -168.5l-96 -122v-814h147l-43 -233h-414v1110l152 176q63 74 87.5 119.5t24.5 91.5q0 55 -28 87t-76 32q-51 0 -85.5 -35.5t-43.5 -97.5h-276z" />
<glyph unicode="&#xe44;" horiz-adv-x="718" d="M-29 1585v225h758v-223q-194 -46 -194 -334v-1020h147l-43 -233h-414v1229q0 256 154 356h-408z" />
<glyph unicode="&#xe45;" horiz-adv-x="782" d="M35 903l43 236h149q201 0 306.5 -98t105.5 -287v-1143l-309 -45v1163q0 174 -174 174h-121z" />
<glyph unicode="&#xe46;" horiz-adv-x="1196" d="M45 797q0 165 81.5 261.5t225.5 96.5q175 0 232 -129h6l90 117h80q138 0 213.5 -71.5t75.5 -201.5v-1259l-310 -45v1276q0 63 -49 63h-16l-68 -86h-74q-17 96 -81 96q-38 0 -60 -35t-22 -94q0 -73 36 -114t99 -41h104l-41 -225h-114q-192 0 -300 103.5t-108 287.5z" />
<glyph unicode="&#xe47;" d="M-1030 1528q0 114 75.5 174.5t215.5 60.5h536l-41 -168h-440q-98 0 -98 -67q0 -31 24.5 -48.5t67.5 -17.5h14l76 76h96q8 -36 36 -56t73 -20h159l-40 -168h-113q-126 0 -180 92l-76 -92h-92q-141 0 -217 60.5t-76 173.5z" />
<glyph unicode="&#xe48;" d="M-436 1294v389h280v-389h-280z" />
<glyph unicode="&#xe49;" d="M-762 1524l41 188h191q76 0 117.5 -34.5t41.5 -96.5q0 -30 -10 -68l-4 -16h389l-41 -203h-641v58l35 116q2 6 2 19q0 37 -41 37h-80z" />
<glyph unicode="&#xe4a;" d="M-1018 1501q0 104 61 167t162 63q61 0 107.5 -25t71.5 -70l86 88h67q94 0 143.5 -49t49.5 -141v-51h207l-41 -189h-398v213q0 44 -37 47l-57 -53h-63q-3 25 -20.5 39t-45.5 14q-63 0 -63 -59q0 -32 22.5 -50t63.5 -18h45v-141h-111q-121 0 -185.5 55.5t-64.5 159.5z" />
<glyph unicode="&#xe4b;" d="M-592 1419v183h168v122h254v-122h168v-183h-168v-125h-254v125h-168z" />
<glyph unicode="&#xe4c;" d="M-602 1294v68q0 132 76.5 203t222.5 71h250l-41 -209h-142q-83 0 -83 -84v-49h-283z" />
<glyph unicode="&#xe4d;" d="M-532 1458q0 91 65 150t166 59t166 -59t65 -150t-65 -150t-166 -59t-166 59t-65 150zM-379 1458q0 -34 22 -56t56 -22t56 22t22 56t-22 56t-56 22t-56 -22t-22 -56z" />
<glyph unicode="&#xe4e;" d="M-545 1294v97q0 60 31.5 92.5t91.5 32.5h14v30q0 125 123 125h199v-147h-66q-23 0 -32 -7.5t-9 -29.5v-96h-57q-32 0 -45.5 -14t-13.5 -46v-37h-236z" />
<glyph unicode="&#xe4f;" horiz-adv-x="1097" d="M72 557q0 204 135 336.5t342 132.5t342 -132.5t135 -336.5t-135 -336.5t-342 -132.5t-342 132.5t-135 336.5zM248 557q0 -132 85 -217.5t216 -85.5t216 85.5t85 217.5t-85 217.5t-216 85.5t-216 -85.5t-85 -217.5zM330 557q0 95 62 157t157 62t157 -62t62 -157t-62 -157 t-157 -62t-157 62t-62 157zM463 557q0 -38 24.5 -62t61.5 -24t61.5 24t24.5 62t-24.5 62t-61.5 24t-61.5 -24t-24.5 -62z" />
<glyph unicode="&#xe50;" horiz-adv-x="1286" d="M72 506q0 238 157.5 386t413.5 148t413.5 -148t157.5 -386q0 -237 -157.5 -384t-413.5 -147t-413.5 147t-157.5 384zM385 506q0 -135 72 -219t186 -84t186 84t72 219q0 136 -72 220.5t-186 84.5t-186 -84.5t-72 -220.5z" />
<glyph unicode="&#xe51;" horiz-adv-x="1255" d="M72 584q0 206 148 331t388 125q259 0 417.5 -154.5t158.5 -414.5q0 -289 -183.5 -470t-506.5 -198l41 230q159 26 247 150.5t88 310.5q0 147 -70.5 232t-191.5 85q-102 0 -165.5 -60.5t-63.5 -158.5q0 -86 49 -138.5t127 -52.5h92l-41 -217h-84q-208 0 -329 108.5 t-121 291.5z" />
<glyph unicode="&#xe52;" horiz-adv-x="1484" d="M129 328v946h289v-946q0 -50 27.5 -77.5t78.5 -27.5h455q51 0 78.5 27.5t27.5 77.5v417q0 56 -45 56h-14l-65 -76h-64q-9 80 -72 80q-35 0 -55 -28.5t-20 -78.5q0 -57 27.5 -87.5t78.5 -30.5h86l-41 -185h-102q-133 0 -211 87.5t-78 236.5q0 142 69 227.5t185 85.5 q66 0 112.5 -29.5t65.5 -84.5h6l88 98h86q114 0 178 -63t64 -177v-448q0 -162 -88.5 -245t-261.5 -83h-535q-173 0 -261.5 82.5t-88.5 245.5z" />
<glyph unicode="&#xe53;" horiz-adv-x="1441" d="M123 303v395q0 156 94 246t256 90q195 0 293 -127l100 109h156q138 0 213.5 -80t75.5 -227v-709h-279v700q0 46 -21 70.5t-59 24.5h-34l-82 -86v-29v-313h-230v325q0 54 -28.5 83.5t-75.5 29.5q-46 0 -74.5 -29.5t-28.5 -83.5v-364q0 -92 95 -92h137l-41 -236h-152 q-315 0 -315 303z" />
<glyph unicode="&#xe54;" horiz-adv-x="1226" d="M72 512q0 232 142.5 368t385.5 136h125q119 0 119 110v148h291v-187q0 -141 -81.5 -216.5t-232.5 -75.5h-174q-123 0 -192.5 -74.5t-69.5 -208.5q0 -141 66.5 -220t185.5 -79h137v8q-100 73 -100 195q0 100 72.5 156.5t205.5 56.5h140l-41 -189h-43q-41 0 -64.5 -26 t-23.5 -72q0 -59 37 -94t100 -35h98l-18 -213h-555q-233 0 -371.5 139.5t-138.5 372.5z" />
<glyph unicode="&#xe55;" horiz-adv-x="1226" d="M72 512q0 154 62 263.5t175 156.5q-67 61 -67 153t67.5 152.5t171.5 60.5q103 0 170.5 -60.5t67.5 -152.5q0 -35 -12 -69h28q121 0 121 110v148h279v-187q0 -141 -81.5 -216.5t-232.5 -75.5h-174q-123 0 -192.5 -74.5t-69.5 -208.5q0 -141 66.5 -220t185.5 -79h137v8 q-100 73 -100 195q0 100 72.5 156.5t205.5 56.5h140l-41 -189h-43q-41 0 -64.5 -26t-23.5 -72q0 -59 37 -94t100 -35h98l-18 -213h-555q-233 0 -371.5 139.5t-138.5 372.5zM401 1085q0 -32 22.5 -53.5t57.5 -21.5q34 0 56 21.5t22 53.5q0 34 -22 56t-56 22q-35 0 -57.5 -22 t-22.5 -56z" />
<glyph unicode="&#xe56;" horiz-adv-x="1251" d="M31 1274h291l36 -346h9q103 112 303 112q229 0 369.5 -147t140.5 -385q0 -241 -157 -387t-425 -146q-236 0 -368 117t-132 328q0 37 4 69h482l-41 -180h-164q17 -51 70 -80.5t131 -29.5q129 0 208.5 85t79.5 220q0 137 -78.5 222t-205.5 85q-78 0 -140.5 -32.5 t-99.5 -92.5h-225z" />
<glyph unicode="&#xe57;" horiz-adv-x="1812" d="M123 303v395q0 156 92.5 246t251.5 90q187 0 272 -123l99 105h131q137 0 208.5 -79t71.5 -228v-453q0 -12 9 -20.5t22 -8.5h31q47 0 72.5 43t25.5 125v879h277v-850q0 -201 -107.5 -312.5t-302.5 -111.5h-211q-35 0 -54.5 19.5t-19.5 54.5v626q0 46 -19.5 70.5 t-56.5 24.5h-26l-84 -86v-29v-313h-211v325q0 54 -26.5 83.5t-71.5 29.5q-43 0 -70 -29.5t-27 -83.5v-364q0 -92 95 -92h131l-41 -236h-146q-315 0 -315 303z" />
<glyph unicode="&#xe58;" horiz-adv-x="1300" d="M72 504q0 235 142.5 373.5t385.5 138.5h178q119 0 119 110v148h289v-187q0 -141 -81.5 -216.5t-232.5 -75.5h-213q-129 0 -201.5 -78t-72.5 -215q0 -100 34.5 -171t98.5 -100l90 138h109q25 -162 147 -162q51 0 80 28t29 76q0 47 -28 73t-79 26h-55l41 182h102 q135 0 212 -78t77 -213q0 -145 -86.5 -233t-222.5 -88q-97 0 -170 45.5t-107 124.5h-8l-94 -156q-228 22 -355.5 156.5t-127.5 353.5z" />
<glyph unicode="&#xe59;" horiz-adv-x="1318" d="M123 303v395q0 158 96 247t262 89q195 0 287 -121l86 103h84q70 0 70 71v187h288v-213q0 -126 -67 -195t-193 -69h-73l-68 -76l248 -721h-303l-213 713q-12 44 -40 68t-67 24q-45 0 -71.5 -31.5t-26.5 -81.5v-364q0 -92 94 -92h127l-41 -236h-164q-315 0 -315 303z" />
<glyph unicode="&#xe5a;" horiz-adv-x="1648" d="M45 793q0 158 100 252t267 94h137l-39 -228h-33q-50 0 -79 -29.5t-29 -80.5q0 -66 48.5 -102.5t133.5 -36.5q95 0 168 36v441h309v-453q82 9 156 53v400h309v-1139h-309v514q-75 -40 -156 -57v-457h-309v475q-116 -53 -250 -53q-195 0 -309.5 100.5t-114.5 270.5z" />
<glyph unicode="&#xe5b;" horiz-adv-x="1873" d="M72 559q0 211 126 336t341 125h209l-41 -246h-101q-104 0 -163.5 -56.5t-59.5 -158.5q0 -97 51 -154t139 -57q138 0 218 145.5t104 411.5h211l111 -422h6l94 359h229l64 -248q15 -55 80 -55h141l-41 -228h-148q-132 0 -172 129l-43 144h-8l-104 -351h-191l-98 336h-8 q-12 -71 -38 -137.5t-69.5 -128t-100 -106.5t-134 -72t-166.5 -27q-200 0 -319 125t-119 336z" />
<glyph unicode="&#x1e9e;" horiz-adv-x="1505" d="M174 0v922q0 245 170.5 390.5t454.5 145.5q205 0 359 -76t231 -221l-259 -393q146 -25 226 -113.5t80 -226.5q0 -214 -141.5 -321t-415.5 -107h-129l41 229h75q121 0 186.5 52t65.5 149q0 100 -55 149.5t-172 49.5h-60v155l228 346q-86 89 -260 89q-136 0 -221.5 -80.5 t-85.5 -220.5v-918h-318z" />
<glyph unicode="&#x2000;" horiz-adv-x="1093" />
<glyph unicode="&#x2001;" horiz-adv-x="2187" />
<glyph unicode="&#x2002;" horiz-adv-x="1093" />
<glyph unicode="&#x2003;" horiz-adv-x="2187" />
<glyph unicode="&#x2004;" horiz-adv-x="729" />
<glyph unicode="&#x2005;" horiz-adv-x="546" />
<glyph unicode="&#x2006;" horiz-adv-x="364" />
<glyph unicode="&#x2007;" horiz-adv-x="364" />
<glyph unicode="&#x2008;" horiz-adv-x="273" />
<glyph unicode="&#x2009;" horiz-adv-x="437" />
<glyph unicode="&#x200a;" horiz-adv-x="121" />
<glyph unicode="&#x200b;" />
<glyph unicode="&#x200c;" />
<glyph unicode="&#x2010;" horiz-adv-x="819" d="M102 457v241h615v-241h-615z" />
<glyph unicode="&#x2011;" horiz-adv-x="819" d="M102 457v241h615v-241h-615z" />
<glyph unicode="&#x2012;" horiz-adv-x="819" d="M102 457v241h615v-241h-615z" />
<glyph unicode="&#x2013;" horiz-adv-x="1064" d="M102 489v197h861v-197h-861z" />
<glyph unicode="&#x2014;" horiz-adv-x="1720" d="M102 489v197h1516v-197h-1516z" />
<glyph unicode="&#x2018;" horiz-adv-x="546" d="M74 920l200 538h209l-106 -538h-303z" />
<glyph unicode="&#x2019;" horiz-adv-x="546" d="M63 920l107 538h303l-199 -538h-211z" />
<glyph unicode="&#x201a;" horiz-adv-x="546" d="M63 -172l107 508h303l-199 -508h-211z" />
<glyph unicode="&#x201c;" horiz-adv-x="970" d="M74 920l200 538h209l-106 -538h-303zM498 920l200 538h209l-106 -538h-303z" />
<glyph unicode="&#x201d;" horiz-adv-x="970" d="M63 920l107 538h305l-201 -538h-211zM487 920l107 538h303l-201 -538h-209z" />
<glyph unicode="&#x201e;" horiz-adv-x="970" d="M63 -172l107 508h305l-201 -508h-211zM487 -172l107 508h303l-201 -508h-209z" />
<glyph unicode="&#x2020;" horiz-adv-x="1013" d="M49 965v219h332v397h248v-397h336v-219h-336v-1145h-248v1145h-332z" />
<glyph unicode="&#x2021;" horiz-adv-x="1038" d="M61 217v219h332v529h-332v219h332v397h248v-397h336v-219h-336v-529h336v-219h-336v-397h-248v397h-332z" />
<glyph unicode="&#x2022;" horiz-adv-x="702" d="M90 635q0 111 73 183.5t187 72.5t188 -72t74 -184t-74 -185t-188 -73q-113 0 -186.5 73t-73.5 185z" />
<glyph unicode="&#x2026;" horiz-adv-x="1609" d="M115 0v311h315v-311h-315zM647 0v311h316v-311h-316zM1180 0v311h315v-311h-315z" />
<glyph unicode="&#x202f;" horiz-adv-x="437" />
<glyph unicode="&#x2030;" horiz-adv-x="2379" d="M57 1094q0 167 87 265.5t235 98.5q146 0 232.5 -98.5t86.5 -265.5q0 -169 -86.5 -269t-232.5 -100q-148 0 -235 100t-87 269zM264 1094q0 -91 30.5 -143t84.5 -52q53 0 83 52t30 143t-30 142.5t-83 51.5q-54 0 -84.5 -51.5t-30.5 -142.5zM272 -119l918 1635h166 l-918 -1635h-166zM950 348q0 167 87 266t235 99q146 0 232.5 -99t86.5 -266q0 -169 -86.5 -268.5t-232.5 -99.5q-148 0 -235 99.5t-87 268.5zM1157 348q0 -91 30.5 -141.5t84.5 -50.5t83 50.5t29 141.5q0 93 -29 144t-83 51t-84.5 -51.5t-30.5 -143.5zM1681 348 q0 167 87.5 266t236.5 99q146 0 231.5 -98.5t85.5 -266.5q0 -169 -85.5 -268.5t-231.5 -99.5q-149 0 -236.5 99.5t-87.5 268.5zM1888 348q0 -89 31.5 -140.5t85.5 -51.5q52 0 81.5 50.5t29.5 141.5q0 92 -29 143.5t-82 51.5q-54 0 -85.5 -52t-31.5 -143z" />
<glyph unicode="&#x2039;" horiz-adv-x="657" d="M92 514l287 352h196l-210 -348v-8l210 -348h-196z" />
<glyph unicode="&#x203a;" horiz-adv-x="657" d="M82 162l211 348v8l-211 348h199l284 -352l-284 -352h-199z" />
<glyph unicode="&#x2044;" horiz-adv-x="659" d="M-262 0l971 1434h213l-971 -1434h-213z" />
<glyph unicode="&#x205f;" horiz-adv-x="546" />
<glyph unicode="&#x20ac;" horiz-adv-x="1228" d="M39 487l39 158h106q-2 25 -2 76q0 53 2 80h-139l39 157h127q59 233 228 366.5t411 133.5q224 0 360 -115l-129 -225q-90 78 -217 78q-116 0 -201 -62t-128 -176h417l-39 -157h-413q-4 -54 -4 -80t4 -76h415l-38 -158h-347q43 -120 129.5 -184.5t206.5 -64.5q132 0 228 84 l133 -226q-145 -121 -375 -121q-246 0 -416 137t-227 375h-170z" />
<glyph unicode="&#x2122;" horiz-adv-x="1925" d="M86 1266l31 168h659l-33 -168h-202v-668h-219v668h-236zM872 598v836h287l180 -533h4l183 533h280v-836h-202v545h-5l-186 -545h-149l-187 545h-4v-545h-201z" />
<glyph unicode="&#x2202;" horiz-adv-x="1185" d="M70 489q0 235 112.5 366.5t313.5 131.5q179 0 295 -110q-37 194 -147 288.5t-298 94.5l49 215q356 0 538.5 -207.5t182.5 -614.5q0 -324 -145.5 -501t-411.5 -177q-232 0 -360.5 135t-128.5 379zM385 483q0 -131 52.5 -205.5t144.5 -74.5q113 0 171 110t58 324v10 q-85 115 -213 115q-101 0 -157 -73t-56 -206z" />
<glyph unicode="&#x220f;" horiz-adv-x="1482" d="M37 1184l39 250h1370l-39 -250h-238v-1594h-292v1594h-275v-1594h-291v1594h-274z" />
<glyph unicode="&#x2211;" horiz-adv-x="1228" d="M113 -197l456 711v8l-456 699v213h1003v-244h-641v-8l408 -617v-94l-408 -629v-8h641v-244h-1003v213z" />
<glyph unicode="&#x2212;" horiz-adv-x="1228" d="M117 555v229h995v-229h-995z" />
<glyph unicode="&#x221a;" horiz-adv-x="1433" d="M16 492h295l189 -580h8l401 1522h473v-252h-237l-422 -1592h-416z" />
<glyph unicode="&#x221e;" horiz-adv-x="1644" d="M57 649q0 180 100 282.5t285 102.5q124 0 217.5 -51t174.5 -139q175 190 393 190q167 0 264.5 -104t97.5 -283q0 -178 -101 -281.5t-286 -103.5q-222 0 -391 191q-176 -191 -393 -191q-167 0 -264 104t-97 283zM313 649q0 -67 39 -106t107 -39q101 0 207 133 q-60 78 -107.5 117t-103.5 39q-66 0 -104 -38.5t-38 -105.5zM979 657q58 -76 105.5 -114.5t105.5 -38.5q66 0 103.5 38t37.5 105q0 69 -37.5 107.5t-105.5 38.5q-103 0 -209 -136z" />
<glyph unicode="&#x222b;" horiz-adv-x="845" d="M31 -350l35 250h61q141 0 141 125v1095q0 163 95.5 250.5t273.5 87.5h176l-35 -250h-51q-143 0 -143 -123v-1095q0 -163 -96 -251.5t-273 -88.5h-184z" />
<glyph unicode="&#x2248;" horiz-adv-x="1228" d="M66 195q20 164 107.5 255t221.5 91q55 0 115 -17.5t104 -38t101 -38t108 -17.5q52 0 86.5 30t46.5 85h205q-19 -162 -103.5 -253t-215.5 -91q-69 0 -144 28t-149 56t-139 28q-56 0 -92 -30.5t-48 -87.5h-204zM66 645q20 162 107.5 254t221.5 92q69 0 144 -27.5t148 -55 t136 -27.5q108 0 133 114h205q-19 -163 -103.5 -254.5t-215.5 -91.5q-55 0 -115.5 17.5t-105 39t-102.5 39t-109 17.5q-115 0 -140 -117h-204z" />
<glyph unicode="&#x2260;" horiz-adv-x="1228" d="M123 365v215h358l72 168h-430v215h522l98 231h205l-98 -231h256v-215h-348l-72 -168h420v-215h-512l-100 -236h-205l100 236h-266z" />
<glyph unicode="&#x2264;" horiz-adv-x="1228" d="M96 45v197h1037v-197h-1037zM96 670v260l1037 301v-221l-789 -205v-8l789 -207v-219z" />
<glyph unicode="&#x2265;" horiz-adv-x="1228" d="M96 45v197h1037v-197h-1037zM96 371v219l789 207v8l-789 205v221l1037 -301v-260z" />
<glyph unicode="&#x25ca;" horiz-adv-x="1202" d="M43 717l371 741h374l371 -741l-371 -742h-374zM348 717l250 -500h6l250 500l-250 500h-6z" />
<glyph unicode="&#x25fc;" horiz-adv-x="1034" d="M0 0v1034h1034v-1034h-1034z" />
<glyph unicode="&#xfeff;" />
<glyph horiz-adv-x="1337" d="M12 33l41 237h45q74 0 74 70v211l111 100l-189 111v51q72 169 216.5 259.5t342.5 90.5q248 0 395.5 -132t147.5 -355v-709q0 -154 -89 -240.5t-247 -86.5h-141q-7 58 -43 90t-92 32t-92 -32.5t-43 -89.5h-291q19 166 117 258t257 92q190 0 283 -125h2q70 0 70 82v741 q0 110 -62 172t-172 62q-83 0 -143.5 -35.5t-85.5 -98.5l156 -88v-79l-105 -107v-203q0 -136 -75 -207t-218 -71h-170z" />
<glyph horiz-adv-x="1337" d="M12 33l41 237h45q74 0 74 70v211l111 100l-189 111v51q72 169 216.5 259.5t342.5 90.5q248 0 395.5 -132t147.5 -355v-707q0 -158 -87.5 -243.5t-248.5 -85.5h-92l-104 102h-9l-104 -102h-119q-36 110 -235 110l45 230q207 0 256 -121h8l102 104h92l99 -102h12 q76 0 76 88v739q0 110 -62 172t-172 62q-83 0 -143.5 -35.5t-85.5 -98.5l156 -88v-79l-105 -107v-203q0 -136 -75 -207t-218 -71h-170z" />
<glyph horiz-adv-x="2004" d="M90 762v51q73 170 215.5 260t337.5 90q243 0 387 -132t144 -353v-244q0 -100 50.5 -155.5t139.5 -55.5t139.5 55.5t50.5 155.5v705h310v-703q0 -218 -132 -339.5t-368 -121.5q-235 0 -365.5 121.5t-130.5 339.5v256q0 109 -59 169.5t-166 60.5q-79 0 -137 -35.5 t-86 -100.5l151 -84v-79l-120 -115v-178q0 -92 92 -92h121l-43 -238h-162q-157 0 -237.5 76.5t-80.5 226.5v240l127 112z" />
<glyph horiz-adv-x="2004" d="M90 762v51q73 170 215.5 260t337.5 90q243 0 387 -132t144 -353v-244q0 -100 50.5 -155.5t139.5 -55.5t139.5 55.5t50.5 155.5v705h310v-703q0 -218 -132 -339.5t-368 -121.5q-235 0 -365.5 121.5t-130.5 339.5v256q0 109 -59 169.5t-166 60.5q-79 0 -137 -35.5 t-86 -100.5l151 -84v-79l-120 -115v-178q0 -92 92 -92h121l-43 -238h-162q-157 0 -237.5 76.5t-80.5 226.5v240l127 112zM152 -147h1703v-164h-1703v164z" />
<glyph horiz-adv-x="1320" d="M141 426v713h310v-662q0 -120 49.5 -183t144.5 -63q103 0 160 69.5t57 195.5v643h309v-1139h-301v152h-8q-111 -177 -342 -177q-185 0 -282 115.5t-97 335.5zM150 -147h1019v-164h-1019v164z" />
<glyph horiz-adv-x="1320" d="M150 0v1139h309v-643q0 -125 57 -195t158 -70q97 0 146.5 64.5t49.5 189.5v654h310v-703q0 -224 -97.5 -342.5t-281.5 -118.5q-231 0 -342 177h-8v-152h-301zM150 -147h1019v-164h-1019v164z" />
<glyph horiz-adv-x="1222" d="M53 745q23 196 155.5 307t344.5 111q89 0 160 -22l506 14l-39 -235l-181 34q136 -111 136 -364q0 -270 -161 -430t-431 -160h-189l-121 391h-155l41 215h338l110 -370q117 6 180.5 98t63.5 256q0 157 -63 243.5t-177 86.5q-86 0 -143 -47.5t-68 -127.5h-307z" />
<glyph horiz-adv-x="1173" d="M25 823h305l174 -590h12q120 0 189 91t69 249q0 155 -65 242.5t-181 87.5h-79l40 236h84q241 0 383 -151t142 -406q0 -266 -156 -424t-418 -158h-243zM141 -147h910v-164h-910v164z" />
<glyph horiz-adv-x="1478" d="M29 1139h309l111 -801h8l180 461h174l174 -459h8l88 434q6 24 6 47q0 119 -151 119h-242l45 199h262q82 0 125 30t56 99l20 102l291 45l-29 -143q-20 -98 -69.5 -157t-134.5 -85q108 -56 108 -190q0 -41 -8 -80l-150 -760h-299l-184 477h-8l-193 -477h-297z" />
<glyph d="M-1194 1589v66h256v-74q0 -40 23.5 -62t64.5 -22h299l-41 -203h-309q-144 0 -218.5 76t-74.5 219z" />
<glyph d="M-905 1294v389h282v-389h-282z" />
<glyph d="M-1208 1524l41 188h190q75 0 117.5 -34t42.5 -95q0 -33 -12 -70l-5 -16h293l-41 -203h-542v58l34 116q3 9 3 19q0 37 -43 37h-78z" />
<glyph d="M-1321 1501q0 104 55.5 167t149.5 63q116 0 168 -97l84 90h57q178 0 178 -190v-51h105l-39 -189h-281v213q0 44 -35 47l-51 -53h-53q-6 53 -57 53q-27 0 -42.5 -15t-15.5 -44q0 -32 20.5 -50t57.5 -18h39v-141h-102q-114 0 -176 55.5t-62 159.5z" />
<glyph d="M-1133 1419v183h164v122h252v-122h166v-183h-166v-125h-252v125h-164z" />
<glyph d="M-1067 1294v68q0 132 76.5 203t222.5 71h238l-41 -209h-129q-84 0 -84 -84v-49h-283z" />
<glyph d="M-1274 1528q0 114 75.5 174.5t215.5 60.5h459l-41 -168h-377q-98 0 -98 -67q0 -66 69 -66h29l76 76h78q16 -76 108 -76h123l-41 -168h-70q-126 0 -180 92l-76 -92h-80q-270 0 -270 234z" />
<glyph d="M-1309 1294l41 203h707v-203h-748z" />
<glyph d="M-1309 1294l41 203h451v166h256v-369h-748z" />
<glyph d="M-1309 1294l41 203h330q3 84 59.5 136.5t145.5 52.5q91 0 148 -55.5t57 -141.5t-57.5 -140.5t-147.5 -54.5h-576zM-799 1489q0 -31 18.5 -51.5t47.5 -20.5t48 20.5t19 51.5q0 32 -19 52t-48 20t-47.5 -20t-18.5 -52z" />
<glyph d="M-1309 1294l35 203h260v166h187v-172h69v172h197v-369h-748z" />
<glyph d="M-532 1458q0 91 65 150t166 59t166 -59t65 -150t-65 -150t-166 -59t-166 59t-65 150zM-428 1782v346h256v-346h-256zM-379 1458q0 -34 22 -56t56 -22t56 22t22 56t-22 56t-56 22t-56 -22t-22 -56z" />
<glyph d="M-635 1985l37 155h156q63 0 99 -29t36 -81q0 -25 -10 -58l-5 -14h332l-37 -168h-538v47l30 100q5 20 5 23q0 25 -27 25h-78zM-532 1458q0 91 65 150t166 59t166 -59t65 -150t-65 -150t-166 -59t-166 59t-65 150zM-379 1458q0 -34 22 -56t56 -22t56 22t22 56t-22 56 t-56 22t-56 -22t-22 -56z" />
<glyph d="M-690 1972q0 83 52.5 134t137.5 51q105 0 150 -80l74 73h57q78 0 119 -40.5t41 -118.5v-45h170l-35 -156h-328v180q0 39 -33 39l-49 -45h-53q-6 45 -53 45q-23 0 -37.5 -12.5t-14.5 -34.5q0 -26 20 -40.5t56 -14.5h31v-125h-82q-103 0 -163 51t-60 139zM-532 1458 q0 91 65 150t166 59t166 -59t65 -150t-65 -150t-166 -59t-166 59t-65 150zM-379 1458q0 -34 22 -56t56 -22t56 22t22 56t-22 56t-56 22t-56 -22t-22 -56z" />
<glyph d="M-567 1888v160h145v104h240v-104h145v-160h-145v-106h-240v106h-145zM-532 1458q0 91 65 150t166 59t166 -59t65 -150t-65 -150t-166 -59t-166 59t-65 150zM-379 1458q0 -34 22 -56t56 -22t56 22t22 56t-22 56t-56 22t-56 -22t-22 -56z" />
<glyph d="M-1012 1458q0 91 65.5 150t166.5 59t166 -59t65 -150t-65 -150t-166 -59t-166.5 59t-65.5 150zM-858 1458q0 -34 22 -56t56 -22t56 22t22 56t-22 56t-56 22t-56 -22t-22 -56z" />
<glyph d="M-1012 1458q0 91 65.5 150t166.5 59t166 -59t65 -150t-65 -150t-166 -59t-166.5 59t-65.5 150zM-907 1782v346h256v-346h-256zM-858 1458q0 -34 22 -56t56 -22t56 22t22 56t-22 56t-56 22t-56 -22t-22 -56z" />
<glyph d="M-1114 1985l37 155h155q63 0 99.5 -29t36.5 -81q0 -21 -11 -58l-4 -14h332l-37 -168h-538v47l30 100q4 16 4 23q0 25 -26 25h-78zM-1012 1458q0 91 65.5 150t166.5 59t166 -59t65 -150t-65 -150t-166 -59t-166.5 59t-65.5 150zM-858 1458q0 -34 22 -56t56 -22t56 22 t22 56t-22 56t-56 22t-56 -22t-22 -56z" />
<glyph d="M-1169 1972q0 83 52.5 134t137.5 51q105 0 150 -80l73 73h58q78 0 118.5 -40.5t40.5 -118.5v-45h170l-34 -156h-328v180q0 39 -33 39l-49 -45h-53q-6 45 -54 45q-23 0 -37 -12.5t-14 -34.5q0 -26 20.5 -40.5t55.5 -14.5h31v-125h-82q-103 0 -163 51t-60 139zM-1012 1458 q0 91 65.5 150t166.5 59t166 -59t65 -150t-65 -150t-166 -59t-166.5 59t-65.5 150zM-858 1458q0 -34 22 -56t56 -22t56 22t22 56t-22 56t-56 22t-56 -22t-22 -56z" />
<glyph d="M-1047 1888v160h146v104h239v-104h146v-160h-146v-106h-239v106h-146zM-1012 1458q0 91 65.5 150t166.5 59t166 -59t65 -150t-65 -150t-166 -59t-166.5 59t-65.5 150zM-858 1458q0 -34 22 -56t56 -22t56 22t22 56t-22 56t-56 22t-56 -22t-22 -56z" />
<glyph d="M-401 1782v346h256v-346h-256z" />
<glyph d="M-618 1985l36 155h156q63 0 99 -29t36 -81q0 -25 -10 -58l-4 -14h332l-37 -168h-539v47l31 100q4 16 4 23q0 25 -27 25h-77z" />
<glyph d="M-711 1972q0 83 53 134t138 51q104 0 149 -80l74 73h57q78 0 119 -40.5t41 -118.5v-45h170l-35 -156h-327v180q0 39 -33 39l-49 -45h-54q-6 45 -53 45q-23 0 -37 -12.5t-14 -34.5q0 -26 20 -40.5t56 -14.5h30v-125h-81q-103 0 -163.5 51t-60.5 139z" />
<glyph d="M-541 1888v160h146v104h239v-104h146v-160h-146v-106h-239v106h-146z" />
<glyph d="M-514 1782v35q0 120 69 181.5t203 61.5h209l-41 -170h-108q-80 0 -80 -80v-28h-252z" />
<glyph d="M-913 1987q0 98 72 149t212 51h428l-37 -143h-378q-47 0 -68 -13t-21 -44q0 -26 22 -41t60 -15h13l63 68h82q6 -32 31 -50t63 -18h140l-35 -141h-101q-106 0 -155 76l-66 -76h-43q-139 0 -210.5 50t-71.5 147z" />
<glyph d="M-522 -631l35 164h346v-352h-252v188h-129z" />
<glyph d="M-870 -610l32 143h285v-108q0 -35 24 -56.5t64 -21.5t63 21.5t23 56.5v108h238v-143q0 -103 -82 -156t-240 -53q-156 0 -236.5 48t-80.5 142v19h-90z" />
<glyph d="M-463 -600q0 69 47.5 113.5t120.5 44.5t120.5 -44.5t47.5 -113.5t-47.5 -113.5t-120.5 -44.5t-120.5 44.5t-47.5 113.5z" />
<glyph horiz-adv-x="1097" d="M72 557q0 204 135 336.5t342 132.5t342 -132.5t135 -336.5t-135 -336.5t-342 -132.5t-342 132.5t-135 336.5zM248 557q0 -132 85 -217.5t216 -85.5t216 85.5t85 217.5t-85 217.5t-216 85.5t-216 -85.5t-85 -217.5zM276 1520h228l-35 -394h-160zM330 557q0 95 62 157 t157 62t157 -62t62 -157t-62 -157t-157 -62t-157 62t-62 157zM463 557q0 -38 24.5 -62t61.5 -24t61.5 24t24.5 62t-24.5 62t-61.5 24t-61.5 -24t-24.5 -62zM594 1520h227l-33 -394h-159z" />
<glyph horiz-adv-x="829" d="M135 0v1036h295v-174h8q87 193 279 193h67l-43 -275h-59q-109 0 -176.5 -84.5t-67.5 -222.5v-473h-303z" />
<glyph d="M-829 1554v246h247v-246h-247zM-442 1554v246h247v-246h-247z" />
<glyph d="M-645 1550v269h266v-269h-266z" />
<glyph d="M-762 1835h322l106 -303h-227z" />
<glyph d="M-684 1532l106 303h324l-201 -303h-229z" />
<glyph d="M-836 1532l66 303h258l-145 -303h-179zM-489 1532l65 303h256l-143 -303h-178z" />
<glyph d="M-827 1532l206 303h218l206 -303h-170l-141 133h-8l-141 -133h-170z" />
<glyph d="M-827 1835h170l141 -133h8l141 133h170l-206 -303h-218z" />
<glyph d="M-813 1819h158q9 -51 46.5 -79t96.5 -28t96.5 28t46.5 79h158q-12 -131 -91.5 -204t-209.5 -73t-209.5 73t-91.5 204z" />
<glyph d="M-723 1712q0 88 59.5 145.5t151.5 57.5t151.5 -57.5t59.5 -145.5t-59.5 -144.5t-151.5 -56.5t-151.5 56.5t-59.5 144.5zM-602 1712q0 -38 26 -64t64 -26q39 0 64.5 25.5t25.5 64.5q0 40 -25 66t-65 26t-65 -26t-25 -66z" />
<glyph d="M-838 1544q12 127 64 192.5t139 65.5q53 0 125.5 -32.5t101.5 -32.5t48 18t24 49h150q-12 -128 -64 -194t-139 -66q-53 0 -125.5 33t-101.5 33t-48 -17.5t-24 -48.5h-150z" />
<glyph d="M-799 1581v174h574v-174h-574z" />
<glyph d="M-645 -139h266v-269h-266v269z" />
<glyph d="M-715 -442l41 125h129q32 0 51 15.5t19 41.5q0 27 -17.5 42t-48.5 15q-25 0 -53 -16l-88 76l82 166h145l-69 -121q24 6 53 6q74 0 118 -46.5t44 -125.5q0 -82 -61.5 -130t-168.5 -48h-176z" />
<glyph d="M-711 -209q0 66 45 128t125 101h183q-107 -78 -107 -165q0 -68 78 -68q33 0 65 14v-155q-76 -33 -163 -33q-106 0 -166 47.5t-60 130.5z" />
</font>
</defs>
</svg>
