<?xml version="1.0" standalone="no"?>
<!DOCTYPE svg PUBLIC "-//W3C//DTD SVG 1.1//EN" "http://www.w3.org/Graphics/SVG/1.1/DTD/svg11.dtd" >
<svg xmlns="http://www.w3.org/2000/svg" xmlns:xlink="http://www.w3.org/1999/xlink" version="1.1">
<metadata></metadata>
<defs>
<font id="pentor_corporateregular" horiz-adv-x="0" >
<font-face units-per-em="2048" ascent="1638" descent="-410" />
<missing-glyph horiz-adv-x="450" />
<glyph unicode="fi" horiz-adv-x="1146" d="M33 877l41 147h143v172q0 125 65.5 191.5t188.5 66.5h156l-41 -147h-97q-46 0 -71 -26t-25 -73v-184h209l-41 -147h-168v-877h-176v877h-184zM803 1257v197h184v-197h-184zM807 0v1024h176v-1024h-176z" />
<glyph unicode="fl" horiz-adv-x="1146" d="M33 877l41 147h143v172q0 125 65.5 191.5t188.5 66.5h156l-41 -147h-97q-46 0 -71 -26t-25 -73v-184h209l-41 -147h-168v-877h-176v877h-184zM807 0v1434l176 41v-1475h-176z" />
<glyph unicode="&#xe24;&#xe45;" horiz-adv-x="2002" d="M102 778v37q57 155 192.5 243.5t315.5 88.5q153 0 267 -58t174 -165h14q51 107 150 165t231 58q189 0 291 -118t102 -335v-1083l-180 -41v1108q0 150 -68 229.5t-196 79.5q-135 0 -210 -87.5t-75 -246.5v-1042l-180 -41v1104q0 148 -86 230.5t-238 82.5q-107 0 -193 -44 t-120 -116l192 -137v-94l-145 -129v-197q0 -57 30 -87.5t87 -30.5h153l-43 -152h-125q-282 0 -282 276v236l153 129z" />
<glyph unicode="&#xe26;&#xe45;" horiz-adv-x="1994" d="M8 0l41 152h41q90 0 90 90v272l137 121l-219 145v37q55 155 189.5 242.5t316.5 87.5q154 0 266.5 -58t171.5 -165h15q51 107 150 165t231 58q189 0 291 -118t102 -335v-1083l-180 -41v1108q0 150 -68.5 229.5t-196.5 79.5q-135 0 -209.5 -87t-74.5 -247v-1042l-180 -41 v1104q0 149 -84.5 231t-237.5 82q-109 0 -193 -43.5t-118 -116.5l200 -141v-94l-129 -121v-223q0 -126 -63.5 -187t-192.5 -61h-96z" />
<glyph unicode="&#xd;" horiz-adv-x="450" />
<glyph unicode=" "  horiz-adv-x="450" />
<glyph unicode="&#x09;" horiz-adv-x="450" />
<glyph unicode="&#xa0;" horiz-adv-x="450" />
<glyph unicode="!" horiz-adv-x="536" d="M160 0v229h217v-229h-217zM168 1434h201l-41 -1020h-119z" />
<glyph unicode="&#x22;" horiz-adv-x="749" d="M123 1434h180l-33 -467h-114zM446 1434h181l-33 -467h-115z" />
<glyph unicode="#" horiz-adv-x="1175" d="M66 422l20 139h203l43 307h-213l20 140h213l60 426h153l-59 -428h254l59 428h154l-60 -426h197l-20 -140h-197l-43 -307h205l-21 -139h-203l-59 -422h-154l60 424h-254l-59 -424h-154l59 422h-204zM442 559h254l45 311h-254z" />
<glyph unicode="$" horiz-adv-x="1228" d="M94 463h185q7 -133 86 -218t210 -102v521l-100 22q-348 77 -348 377q0 178 121.5 283.5t326.5 107.5v184h82v-188q187 -20 300 -136t120 -298h-180q-10 110 -73.5 181t-166.5 93v-459l68 -16q206 -47 303.5 -146.5t97.5 -262.5q0 -193 -125 -306.5t-344 -119.5v-205h-82 v207q-216 17 -345 145.5t-136 335.5zM307 1081q0 -82 53 -138.5t150 -78.5l65 -14v448q-121 0 -194.5 -59.5t-73.5 -157.5zM657 139q134 5 209.5 69.5t75.5 176.5q0 198 -254 254l-31 6v-506z" />
<glyph unicode="%" horiz-adv-x="1568" d="M66 1092q0 166 78.5 264t211.5 98q129 0 206 -98t77 -264t-77 -264.5t-206 -98.5q-133 0 -211.5 98.5t-78.5 264.5zM205 1092q0 -112 41 -178t110 -66q66 0 105 66t39 178t-39 177.5t-105 65.5q-69 0 -110 -65.5t-41 -177.5zM264 -121l889 1637h139l-889 -1637h-139z M930 342q0 166 79 264.5t212 98.5q129 0 205.5 -98.5t76.5 -264.5t-76.5 -264t-205.5 -98q-133 0 -212 98t-79 264zM1069 342q0 -112 41.5 -178t110.5 -66q66 0 104.5 65.5t38.5 178.5t-38.5 178.5t-104.5 65.5q-69 0 -110.5 -66t-41.5 -178z" />
<glyph unicode="&#x26;" horiz-adv-x="1277" d="M66 356q0 132 77.5 241.5t223.5 182.5q-80 108 -117 195t-37 170q0 141 91 225t245 84q152 0 242 -84t90 -225q0 -118 -73 -218.5t-210 -172.5l262 -342q49 125 49 325h168q0 -274 -108 -467l49 -65q46 -62 141 -62h86l-41 -151h-110q-116 0 -195 100l-25 33 q-151 -145 -374 -145q-195 0 -314.5 103.5t-119.5 272.5zM242 371q0 -107 76.5 -175.5t197.5 -68.5q157 0 264 119l-321 416q-217 -108 -217 -291zM385 1137q0 -55 28.5 -116t94.5 -151q205 108 205 267q0 80 -44.5 127t-119.5 47q-74 0 -119 -47.5t-45 -126.5z" />
<glyph unicode="'" horiz-adv-x="425" d="M123 1434h180l-33 -467h-114z" />
<glyph unicode="(" horiz-adv-x="626" d="M98 627q0 267 86 513.5t246 440.5h164q-150 -202 -230.5 -449.5t-80.5 -504.5t80.5 -505t230.5 -450h-164q-160 194 -246 441t-86 514z" />
<glyph unicode=")" horiz-adv-x="626" d="M33 -328q150 204 230.5 451t80.5 504t-80.5 503.5t-230.5 450.5h164q160 -192 245.5 -439t85.5 -515q0 -269 -85.5 -516t-245.5 -439h-164z" />
<glyph unicode="*" horiz-adv-x="753" d="M66 1051l217 98l-217 98l36 99l217 -103v232h109v-232l219 103l41 -99l-223 -98l223 -98l-41 -99l-219 103v-232h-109v232l-217 -103z" />
<glyph unicode="+" horiz-adv-x="1228" d="M96 592v139h443v451h151v-451h443v-139h-443v-451h-151v451h-443z" />
<glyph unicode="," horiz-adv-x="544" d="M102 -205l107 443h213l-201 -443h-119z" />
<glyph unicode="-" horiz-adv-x="819" d="M102 492v159h615v-159h-615z" />
<glyph unicode="." horiz-adv-x="503" d="M143 0v229h217v-229h-217z" />
<glyph unicode="/" horiz-adv-x="847" d="M16 -328l615 1909h151l-614 -1909h-152z" />
<glyph unicode="0" horiz-adv-x="1228" d="M66 717q0 356 142.5 546.5t409.5 190.5q262 0 403.5 -191t141.5 -546t-141.5 -546t-403.5 -191q-267 0 -409.5 190.5t-142.5 546.5zM258 717q0 -278 93.5 -428t266.5 -150q170 0 261.5 150t91.5 428t-91.5 427.5t-261.5 149.5q-173 0 -266.5 -149.5t-93.5 -427.5z" />
<glyph unicode="1" horiz-adv-x="1228" d="M242 0l41 147h307v1080h-8l-324 -223v184l356 246h156v-1287h336l-41 -147h-823z" />
<glyph unicode="2" horiz-adv-x="1228" d="M143 0v131l582 623q72 78 103.5 147t31.5 148q0 115 -63 180t-174 65q-118 0 -193 -75t-92 -209h-172q19 212 140.5 328t324.5 116q197 0 307.5 -105t110.5 -292q0 -115 -50.5 -216.5t-169.5 -226.5l-434 -458h686l-41 -156h-897z" />
<glyph unicode="3" horiz-adv-x="1228" d="M127 446h176q12 -141 99 -224t223 -83q130 0 207 75t77 200q0 123 -74 196.5t-198 73.5h-154v147h138q112 0 177.5 63t65.5 171q0 107 -64 170t-173 63q-121 0 -196 -77t-83 -209h-172q12 209 132 325.5t323 116.5q192 0 307 -101t115 -268q0 -114 -58 -193.5 t-168 -117.5v-8q128 -23 201.5 -119.5t73.5 -240.5q0 -192 -131 -309t-346 -117q-223 0 -357.5 126t-140.5 340z" />
<glyph unicode="4" horiz-adv-x="1228" d="M82 303v127l688 1004h164v-979h205l-41 -152h-164v-303h-180v303h-672zM272 455h482v698h-9l-473 -690v-8z" />
<glyph unicode="5" horiz-adv-x="1228" d="M119 385h180q12 -113 95 -179.5t210 -66.5q146 0 232 88.5t86 239.5q0 155 -91 247.5t-245 92.5q-194 0 -305 -139h-123l67 704q6 62 68 62h739l-41 -156h-600q-21 0 -24 -23l-39 -409h6q118 112 317 112q209 0 336 -132.5t127 -352.5q0 -227 -137.5 -360t-372.5 -133 q-213 0 -344.5 109.5t-140.5 295.5z" />
<glyph unicode="6" horiz-adv-x="1228" d="M82 678q0 355 155 565.5t416 210.5q180 0 302.5 -100.5t150.5 -272.5h-180q-22 101 -95 157t-182 56q-175 0 -276 -144t-107 -405h6q50 93 156 143t244 50q220 0 351.5 -127.5t131.5 -339.5q0 -220 -143.5 -355.5t-376.5 -135.5q-264 0 -408.5 182t-144.5 516zM279 473 q0 -143 102 -238.5t256 -95.5q151 0 242.5 88.5t91.5 233.5q0 149 -92 237t-246 88q-155 0 -254.5 -87.5t-99.5 -225.5z" />
<glyph unicode="7" horiz-adv-x="1228" d="M123 1278l41 156h921v-140l-604 -1294h-198l591 1270v8h-751z" />
<glyph unicode="8" horiz-adv-x="1228" d="M106 408q0 138 72 233t205 133v8q-101 38 -156 118t-55 187q0 166 121 266.5t321 100.5t321.5 -100.5t121.5 -266.5q0 -107 -55 -187t-156 -118v-8q133 -38 204.5 -133t71.5 -233q0 -197 -137.5 -312.5t-370.5 -115.5t-370.5 115.5t-137.5 312.5zM299 414 q0 -126 85 -200.5t230 -74.5t230.5 74.5t85.5 200.5q0 129 -85.5 205.5t-230.5 76.5t-230 -76.5t-85 -205.5zM352 1071q0 -104 71 -165.5t191 -61.5t191.5 61.5t71.5 165.5t-71.5 165.5t-191.5 61.5t-191 -61.5t-71 -165.5z" />
<glyph unicode="9" horiz-adv-x="1228" d="M74 963q0 220 143.5 355.5t376.5 135.5q264 0 408.5 -182t144.5 -516q0 -355 -156 -565.5t-418 -210.5q-184 0 -311.5 101.5t-155.5 270.5h181q22 -99 99 -156t189 -57q179 0 280.5 140.5t107.5 396.5h-7q-122 -180 -395 -180q-221 0 -354 127.5t-133 339.5zM258 973 q0 -148 91.5 -235t246.5 -87q157 0 255.5 86.5t98.5 223.5q0 143 -102 238t-256 95q-151 0 -242.5 -88t-91.5 -233z" />
<glyph unicode=":" horiz-adv-x="536" d="M160 0v229h217v-229h-217zM160 618v230h217v-230h-217z" />
<glyph unicode=";" horiz-adv-x="557" d="M78 -205l106 443h213l-200 -443h-119zM180 618v230h217v-230h-217z" />
<glyph unicode="&#x3c;" horiz-adv-x="1228" d="M96 565v193l1037 327v-141l-881 -278v-9l881 -278v-141z" />
<glyph unicode="=" horiz-adv-x="1228" d="M117 436v139h995v-139h-995zM117 748v139h995v-139h-995z" />
<glyph unicode="&#x3e;" horiz-adv-x="1228" d="M96 238v141l881 278v9l-881 278v141l1037 -327v-193z" />
<glyph unicode="?" horiz-adv-x="1015" d="M82 1073q5 175 117 278t301 103q183 0 292 -95t109 -255q0 -88 -36.5 -166.5t-116.5 -161.5l-123 -127q-49 -51 -66.5 -87t-17.5 -87v-98h-181v112q0 82 26 138t97 127l148 147q90 90 90 195q0 92 -60.5 147t-160.5 55q-105 0 -170.5 -60.5t-71.5 -164.5h-176zM340 0v229 h217v-229h-217z" />
<glyph unicode="@" horiz-adv-x="1638" d="M86 516q0 227 95.5 399t271.5 265.5t407 93.5q320 0 506 -176.5t186 -479.5q0 -218 -94.5 -345.5t-257.5 -127.5q-86 0 -141 37.5t-74 106.5h-6q-90 -137 -256 -137q-124 0 -192 78t-68 221q0 197 113 329.5t280 132.5q153 0 207 -108h6l21 94h131l-101 -444 q-8 -33 -8 -68q0 -119 105 -119q94 0 149 93.5t55 250.5q0 250 -151 394.5t-412 144.5q-289 0 -465 -173.5t-176 -457.5q0 -274 167.5 -432t457.5 -158h153l-41 -118h-129q-343 0 -541 188.5t-198 515.5zM627 471q0 -91 37 -141.5t104 -50.5q91 0 155 95.5t64 231.5 q0 180 -137 180q-94 0 -158.5 -91t-64.5 -224z" />
<glyph unicode="A" horiz-adv-x="1286" d="M37 0l485 1434h238l489 -1434h-190l-101 301h-552l49 152h452l-264 790h-8l-412 -1243h-186z" />
<glyph unicode="B" horiz-adv-x="1286" d="M180 66v1302q0 66 66 66h395q227 0 352 -98t125 -277q0 -115 -55.5 -190.5t-171.5 -118.5q293 -71 293 -349q0 -190 -132 -295.5t-370 -105.5h-436q-66 0 -66 66zM365 184q0 -24 24 -24h285q151 0 232 65.5t81 186.5t-81 186.5t-232 65.5h-228l39 151h152q141 0 217 59.5 t76 169.5t-76 170t-217 60h-248q-24 0 -24 -25v-1065z" />
<glyph unicode="C" horiz-adv-x="1449" d="M102 717q0 338 179.5 537.5t482.5 199.5q255 0 413.5 -135.5t170.5 -364.5h-193q-14 154 -119.5 245t-271.5 91q-214 0 -339.5 -155t-125.5 -418t124 -418.5t335 -155.5q166 0 276.5 97t132.5 260h189q-23 -238 -184.5 -379t-413.5 -141q-301 0 -478.5 199.5 t-177.5 537.5z" />
<glyph unicode="D" horiz-adv-x="1441" d="M180 66v1302q0 66 66 66h356q338 0 537.5 -194t199.5 -523t-199.5 -523t-537.5 -194h-356q-66 0 -66 66zM365 184q0 -24 24 -24h213q248 0 394.5 151t146.5 406t-146.5 406t-394.5 151h-213q-24 0 -24 -25v-1065z" />
<glyph unicode="E" horiz-adv-x="1200" d="M180 66v1302q0 31 17.5 48.5t48.5 17.5h848l-41 -160h-664q-10 0 -17 -7t-7 -18v-1065q0 -10 6.5 -17t17.5 -7h725l-41 -160h-827q-31 0 -48.5 17.5t-17.5 48.5zM434 664l39 151h555l-39 -151h-555z" />
<glyph unicode="F" horiz-adv-x="1138" d="M180 0v1368q0 31 17.5 48.5t48.5 17.5h819l-41 -160h-635q-10 0 -17 -7t-7 -18v-1249h-185zM434 631l39 151h526l-38 -151h-527z" />
<glyph unicode="G" horiz-adv-x="1474" d="M102 721q0 336 179.5 534.5t482.5 198.5q245 0 403 -129.5t181 -349.5h-193q-23 146 -128.5 230.5t-262.5 84.5q-212 0 -338.5 -154t-126.5 -413q0 -265 126.5 -422.5t340.5 -157.5q190 0 303.5 125t118.5 336h-418l41 156h553q8 -52 8 -129q0 -301 -162.5 -476 t-443.5 -175q-303 0 -483.5 201t-180.5 540z" />
<glyph unicode="H" horiz-adv-x="1458" d="M180 0v1434h185v-1434h-185zM434 670l41 159h619v605h184v-1434h-184v670h-660z" />
<glyph unicode="I" horiz-adv-x="557" d="M186 0v1434h185v-1434h-185z" />
<glyph unicode="J" horiz-adv-x="761" d="M49 0l41 160h141q170 0 170 205v1069h185v-1069q0 -184 -91.5 -274.5t-279.5 -90.5h-166z" />
<glyph unicode="K" horiz-adv-x="1265" d="M180 0v1434h185v-748l598 748h217l-490 -598l539 -836h-215l-439 696l-210 -258v-438h-185z" />
<glyph unicode="L" horiz-adv-x="1081" d="M180 66v1368h185v-1250q0 -10 6.5 -17t17.5 -7h643l-41 -160h-745q-31 0 -48.5 17.5t-17.5 48.5z" />
<glyph unicode="M" horiz-adv-x="1712" d="M180 0v1434h273l399 -1139h8l400 1139h272v-1434h-174v1192h-8l-420 -1192h-152l-416 1192h-8v-1192h-174z" />
<glyph unicode="N" horiz-adv-x="1437" d="M180 0v1434h226l667 -1166h8v1166h176v-1434h-225l-667 1165h-9v-1165h-176z" />
<glyph unicode="O" horiz-adv-x="1540" d="M102 717q0 338 181 537.5t487 199.5t487 -199.5t181 -537.5t-181 -537.5t-487 -199.5t-487 199.5t-181 537.5zM299 717q0 -263 127.5 -418.5t343.5 -155.5t343.5 155.5t127.5 418.5t-127 418t-344 155t-344 -155t-127 -418z" />
<glyph unicode="P" horiz-adv-x="1196" d="M180 0v1368q0 31 17.5 48.5t48.5 17.5h405q230 0 354.5 -111.5t124.5 -318.5q0 -203 -124.5 -312.5t-354.5 -109.5h-217l39 151h166q146 0 224.5 70t78.5 201q0 130 -78.5 200t-224.5 70h-250q-10 0 -17 -7t-7 -18v-1249h-185z" />
<glyph unicode="Q" horiz-adv-x="1552" d="M102 717q0 338 181 537.5t487 199.5t487 -199.5t181 -537.5q0 -194 -62 -346t-178 -248l305 33l-39 -168l-528 10q-76 -18 -166 -18q-306 0 -487 199.5t-181 537.5zM299 717q0 -263 127.5 -418.5t343.5 -155.5t343.5 155.5t127.5 418.5t-127 418t-344 155t-344 -155 t-127 -418z" />
<glyph unicode="R" horiz-adv-x="1302" d="M180 0v1368q0 31 17.5 48.5t48.5 17.5h440q224 0 344.5 -106t120.5 -304q0 -161 -84 -260.5t-244 -128.5l168 -365q26 -57 68.5 -87.5t95.5 -30.5h94l-41 -160h-108q-86 0 -157 48t-112 136l-208 447h-189l41 151h203q137 0 211 65t74 185t-74 185t-211 65h-289 q-10 0 -17 -7t-7 -18v-1249h-185z" />
<glyph unicode="S" horiz-adv-x="1220" d="M94 463h185q9 -149 106 -236.5t254 -87.5q141 0 222 65.5t81 180.5q0 199 -254 254l-213 47q-348 77 -348 377q0 180 125.5 285.5t337.5 105.5q224 0 357.5 -118.5t142.5 -319.5h-181q-8 130 -91 206t-226 76q-128 0 -206.5 -59.5t-78.5 -157.5q0 -82 53 -138.5 t150 -78.5l215 -49q206 -47 303.5 -146.5t97.5 -262.5q0 -198 -131 -312t-358 -114q-241 0 -388 131t-155 352z" />
<glyph unicode="T" horiz-adv-x="1155" d="M49 1274l41 160h1016l-41 -160h-395v-1274h-185v1274h-436z" />
<glyph unicode="U" horiz-adv-x="1384" d="M168 524v910h184v-893q0 -190 88 -292t252 -102t252 102.5t88 291.5v893h185v-910q0 -250 -141.5 -397t-383.5 -147q-241 0 -382.5 146.5t-141.5 397.5z" />
<glyph unicode="V" horiz-adv-x="1277" d="M37 1434h190l412 -1219h8l408 1219h186l-489 -1434h-222z" />
<glyph unicode="W" horiz-adv-x="2043" d="M29 1434h184l375 -1194h8l354 1194h156l350 -1180h8l371 1180h180l-461 -1434h-188l-338 1110h-8l-338 -1110h-193z" />
<glyph unicode="X" horiz-adv-x="1253" d="M37 0l479 743l-455 691h211l344 -523h9l336 523h215l-447 -693l488 -741h-211l-377 571h-8l-369 -571h-215z" />
<glyph unicode="Y" horiz-adv-x="1220" d="M29 1434h213l366 -594h8l367 594h209l-490 -777v-657h-184v659z" />
<glyph unicode="Z" horiz-adv-x="1191" d="M70 0v135l782 1131v8h-750l41 160h951v-136l-783 -1130v-8h807l-41 -160h-1007z" />
<glyph unicode="[" horiz-adv-x="614" d="M180 -262v1778q0 31 17.5 48t48.5 17h319v-139h-176q-10 0 -17 -7t-7 -18v-1581q0 -10 6.5 -17t17.5 -7h176v-140h-319q-31 0 -48.5 17.5t-17.5 48.5z" />
<glyph unicode="\" horiz-adv-x="847" d="M66 1581h151l614 -1909h-151z" />
<glyph unicode="]" horiz-adv-x="614" d="M49 -188h176q11 0 18 7t7 17v1581q0 11 -7 18t-18 7h-176v139h320q31 0 48 -17t17 -48v-1778q0 -31 -17 -48.5t-48 -17.5h-320v140z" />
<glyph unicode="^" horiz-adv-x="1228" d="M127 643l399 791h176l400 -791h-152l-332 657h-8l-331 -657h-152z" />
<glyph unicode="_" horiz-adv-x="798" d="M-10 -147h819v-140h-819v140z" />
<glyph unicode="`" horiz-adv-x="1024" d="M266 1475h209l107 -279h-115z" />
<glyph unicode="a" horiz-adv-x="1097" d="M82 238q0 139 109.5 224t355.5 136l158 33l-46 -146l-90 -18q-158 -32 -232.5 -83t-74.5 -126q0 -62 45 -96.5t127 -34.5q145 0 240.5 90t95.5 227v242q0 97 -63.5 156t-169.5 59q-99 0 -163.5 -51.5t-74.5 -140.5h-168q20 155 129.5 245t278.5 90q184 0 295.5 -103.5 t111.5 -274.5v-666h-160v158h-8q-66 -86 -166.5 -132t-222.5 -46q-148 0 -227.5 67t-79.5 191z" />
<glyph unicode="b" horiz-adv-x="1171" d="M160 0v1434l176 41v-578h8q53 71 133 109t178 38q197 0 313.5 -144t116.5 -388t-119.5 -388t-320.5 -144q-209 0 -317 151h-9v-131h-159zM332 512q0 -181 70.5 -279t201.5 -98q136 0 216.5 102t80.5 275t-80.5 275t-216.5 102q-131 0 -201.5 -98t-70.5 -279z" />
<glyph unicode="c" horiz-adv-x="1073" d="M86 516q0 240 129.5 384t345.5 144q177 0 290.5 -98.5t135.5 -269.5h-176q-19 100 -85.5 156.5t-164.5 56.5q-132 0 -211.5 -101.5t-79.5 -271.5q0 -174 79 -277.5t212 -103.5q105 0 176 65.5t86 176.5h172q-20 -185 -136.5 -291t-297.5 -106q-217 0 -346 145.5 t-129 390.5z" />
<glyph unicode="d" horiz-adv-x="1171" d="M86 512q0 244 118.5 388t319.5 144q100 0 178 -39t125 -112h9v541l176 41v-1475h-168v127h-8q-53 -71 -136 -109t-184 -38q-197 0 -313.5 144t-116.5 388zM270 512q0 -173 80.5 -275t216.5 -102q131 0 202 98t71 279t-71 279t-202 98q-136 0 -216.5 -102t-80.5 -275z" />
<glyph unicode="e" horiz-adv-x="1105" d="M86 516q0 243 132.5 385.5t356.5 142.5q215 0 330 -137.5t115 -394.5v-39h-684l41 135h465q-12 139 -82 216t-185 77q-138 0 -223.5 -106.5t-85.5 -278.5q0 -177 84 -281t225 -104q102 0 171.5 53.5t84.5 143.5h177q-20 -161 -136.5 -254.5t-296.5 -93.5 q-225 0 -357 144.5t-132 391.5z" />
<glyph unicode="f" horiz-adv-x="643" d="M33 877l41 147h143v172q0 125 65.5 191.5t188.5 66.5h156l-41 -147h-97q-46 0 -71 -26t-25 -73v-184h209l-41 -147h-168v-877h-176v877h-184z" />
<glyph unicode="g" horiz-adv-x="1171" d="M86 522q0 239 119 380.5t321 141.5q102 0 184 -39t134 -112h8v131h160v-993q0 -192 -124 -306t-335 -114q-178 0 -297.5 82.5t-134.5 216.5h176q9 -69 80 -112.5t174 -43.5q131 0 208 69t77 187v137h-9q-53 -71 -133 -109t-178 -38q-198 0 -314 141t-116 381zM270 522 q0 -169 80 -267.5t217 -98.5q132 0 202.5 94.5t70.5 271.5t-70.5 272t-202.5 95q-137 0 -217 -99t-80 -268z" />
<glyph unicode="h" horiz-adv-x="1171" d="M160 0v1434l176 41v-578h8q113 147 311 147q175 0 270 -113t95 -325v-606h-176v590q0 145 -60.5 220t-177.5 75q-127 0 -198.5 -84.5t-71.5 -235.5v-565h-176z" />
<glyph unicode="i" horiz-adv-x="503" d="M160 1257v197h184v-197h-184zM164 0v1024h176v-1024h-176z" />
<glyph unicode="j" horiz-adv-x="503" d="M-16 -369l41 152h59q80 0 80 82v1159h176v-1151q0 -117 -61.5 -179.5t-176.5 -62.5h-118zM160 1257v197h184v-197h-184z" />
<glyph unicode="k" horiz-adv-x="1056" d="M160 0v1434l176 41v-908l438 457h213l-379 -385l428 -639h-202l-340 522l-158 -162v-360h-176z" />
<glyph unicode="l" horiz-adv-x="503" d="M164 0v1434l176 41v-1475h-176z" />
<glyph unicode="m" horiz-adv-x="1789" d="M160 0v1024h168v-135h8q98 155 305 155q228 0 307 -196h8q103 196 330 196q170 0 261 -109t91 -314v-621h-176v600q0 138 -57 211.5t-164 73.5q-118 0 -186 -82t-68 -225v-578h-176v600q0 138 -57 211.5t-164 73.5q-118 0 -186 -82t-68 -225v-578h-176z" />
<glyph unicode="n" horiz-adv-x="1171" d="M160 0v1024h168v-139h8q104 159 319 159q175 0 270 -113t95 -325v-606h-176v590q0 145 -60.5 220t-177.5 75q-127 0 -198.5 -84.5t-71.5 -235.5v-565h-176z" />
<glyph unicode="o" horiz-adv-x="1146" d="M86 512q0 245 131.5 388.5t355.5 143.5t356 -144t132 -388t-132 -388t-356 -144t-355.5 143.5t-131.5 388.5zM270 512q0 -172 82.5 -274.5t220.5 -102.5t221 102.5t83 274.5t-83 274.5t-221 102.5t-220.5 -102.5t-82.5 -274.5z" />
<glyph unicode="p" horiz-adv-x="1171" d="M160 -389v1413h168v-127h8q53 71 135.5 109t183.5 38q197 0 313.5 -144t116.5 -388t-118.5 -388t-319.5 -144q-100 0 -178 39t-125 112h-8v-479zM332 512q0 -181 70.5 -279t201.5 -98q136 0 216.5 102t80.5 275t-80.5 275t-216.5 102q-131 0 -201.5 -98t-70.5 -279z" />
<glyph unicode="q" horiz-adv-x="1171" d="M86 512q0 244 119.5 388t320.5 144q102 0 184 -39t134 -112h8v131h160v-1372l-176 -41v516h-9q-53 -71 -133 -109t-178 -38q-197 0 -313.5 144t-116.5 388zM270 512q0 -173 80.5 -275t216.5 -102q131 0 202 98t71 279t-71 279t-202 98q-136 0 -216.5 -102t-80.5 -275z " />
<glyph unicode="r" horiz-adv-x="729" d="M152 0v666q0 182 90 272t274 90h168l-43 -156h-106q-108 0 -157.5 -49t-49.5 -157v-666h-176z" />
<glyph unicode="s" horiz-adv-x="983" d="M86 340h172q6 -98 74.5 -153.5t183.5 -55.5q98 0 153.5 39.5t55.5 108.5q0 58 -42.5 95.5t-131.5 57.5l-166 37q-274 61 -274 283q0 135 99 213.5t271 78.5q173 0 276.5 -88t112.5 -239h-168q-6 85 -66 132.5t-161 47.5q-90 0 -143 -36t-53 -97q0 -51 34.5 -85.5 t100.5 -47.5l168 -37q167 -37 241 -107t74 -190q0 -149 -101.5 -233t-281.5 -84q-193 0 -308 97t-120 263z" />
<glyph unicode="t" horiz-adv-x="679" d="M29 877l41 147h143v205l176 41v-246h209l-41 -147h-168v-627q0 -47 25 -72.5t71 -25.5h146l-41 -152h-123q-123 0 -188.5 66.5t-65.5 191.5v619h-184z" />
<glyph unicode="u" horiz-adv-x="1167" d="M152 418v606h176v-590q0 -145 60 -220t175 -75q126 0 197 84.5t71 235.5v565h177v-1024h-168v139h-9q-107 -159 -317 -159q-175 0 -268.5 113t-93.5 325z" />
<glyph unicode="v" horiz-adv-x="1015" d="M20 1024h189l299 -815h8l295 815h184l-377 -1024h-217z" />
<glyph unicode="w" horiz-adv-x="1531" d="M20 1024h187l250 -766h8l231 766h148l229 -766h8l248 766h182l-340 -1024h-184l-215 698h-8l-215 -698h-189z" />
<glyph unicode="x" horiz-adv-x="983" d="M20 0l367 532l-342 492h205l235 -346h9l233 346h199l-336 -487l373 -537h-205l-266 391h-9l-264 -391h-199z" />
<glyph unicode="y" horiz-adv-x="1009" d="M20 1024h189l293 -776h8l295 776h184l-459 -1194q-76 -199 -315 -199h-164l41 152h146q88 0 127 94l49 127z" />
<glyph unicode="z" horiz-adv-x="978" d="M66 0v133l591 735v9h-559l41 147h754v-133l-592 -735v-9h608l-41 -147h-802z" />
<glyph unicode="{" horiz-adv-x="731" d="M82 557v148h65q72 0 111 50t39 144v461q0 112 52.5 166.5t160.5 54.5h172v-139h-102q-99 0 -99 -107v-469q0 -91 -46 -150t-132 -81v-8q86 -13 132 -74t46 -160v-475q0 -106 99 -106h102v-140h-172q-213 0 -213 222v466q0 94 -39 145.5t-111 51.5h-65z" />
<glyph unicode="|" horiz-adv-x="512" d="M180 -328v1909h152v-1909h-152z" />
<glyph unicode="}" horiz-adv-x="731" d="M49 -188h103q98 0 98 106v475q0 99 46 160t132 74v8q-86 22 -132 81t-46 150v469q0 107 -98 107h-103v139h172q108 0 160.5 -54.5t52.5 -166.5v-461q0 -94 39 -144t111 -50h65v-148h-65q-72 0 -111 -51.5t-39 -145.5v-466q0 -222 -213 -222h-172v140z" />
<glyph unicode="~" horiz-adv-x="1228" d="M66 492q15 130 102.5 209t208.5 79q59 0 129 -21.5t123 -47t114.5 -47t106.5 -21.5q114 0 139 141h168q-13 -130 -98.5 -208t-204.5 -78q-59 0 -128.5 21.5t-122.5 48t-114 48t-106 21.5q-126 0 -150 -145h-167z" />
<glyph unicode="&#xa1;" horiz-adv-x="536" d="M160 795v229h217v-229h-217zM168 -410l41 1020h119l41 -1020h-201z" />
<glyph unicode="&#xa2;" horiz-adv-x="1228" d="M170 516q0 228 117.5 370.5t316.5 155.5v187h82v-187q160 -10 262.5 -108t122.5 -258h-176q-17 89 -72 144t-137 67v-750q89 12 148.5 76t72.5 164h172q-19 -173 -123.5 -278t-269.5 -117v-207h-82v207q-199 13 -316.5 157.5t-117.5 376.5zM354 516q0 -159 67 -260.5 t183 -118.5v750q-116 -17 -183 -116t-67 -255z" />
<glyph unicode="&#xa3;" horiz-adv-x="1228" d="M76 590v151h184q-65 223 -65 330q0 175 118 279t316 104q212 0 341 -118.5t138 -319.5h-176q-12 130 -91 206t-206 76q-116 0 -186 -64.5t-70 -180.5q0 -41 11 -101t20 -93t32 -118h379v-151h-338q25 -109 25 -172q0 -73 -29 -139q61 -13 127 -49t121.5 -63.5 t106.5 -27.5q70 0 111.5 49t47.5 140h181q-9 -164 -97 -256t-227 -92q-56 0 -106.5 16t-87.5 38.5t-72.5 45.5t-77.5 39t-86 16q-128 0 -144 -135h-180q9 109 61.5 179t141.5 95q29 66 29 140q0 70 -27 176h-225z" />
<glyph unicode="&#xa4;" horiz-adv-x="1228" d="M98 303l113 113q-96 129 -96 307q0 175 92 303l-109 109l103 104l110 -111q132 95 303 95q172 0 304 -95l110 111l102 -104l-108 -109q92 -128 92 -303q0 -178 -96 -307l112 -113l-102 -104l-115 114q-129 -90 -299 -90t-299 90l-114 -114zM279 723q0 -149 94.5 -245.5 t240.5 -96.5t241 96.5t95 245.5t-95 245.5t-241 96.5t-240.5 -96.5t-94.5 -245.5z" />
<glyph unicode="&#xa5;" horiz-adv-x="1228" d="M33 1434h213l366 -574h9l366 574h209l-395 -611h248v-151h-342v-185h342v-151h-342v-336h-185v336h-342v151h342v185h-342v151h250z" />
<glyph unicode="&#xa6;" horiz-adv-x="512" d="M180 -328v860h152v-860h-152zM180 803v778h152v-778h-152z" />
<glyph unicode="&#xa7;" horiz-adv-x="1124" d="M66 631q0 231 221 293q-97 100 -97 231q0 138 98 218.5t265 80.5q175 0 282.5 -88t116.5 -240h-168q-6 85 -66.5 133t-160.5 48q-92 0 -145.5 -40.5t-53.5 -109.5q0 -111 152 -199l309 -178q232 -134 232 -342q0 -106 -55 -180t-158 -106q63 -55 91.5 -116.5t28.5 -139.5 q0 -155 -100 -240.5t-283 -85.5q-192 0 -308 97t-120 263h172q6 -95 76.5 -152t182.5 -57q100 0 154 44t54 126q0 63 -40.5 112.5t-141.5 107.5l-295 170q-126 72 -184.5 156.5t-58.5 193.5zM233 645q0 -70 42.5 -125t140.5 -112l309 -179l4 -2q70 21 112 75t42 128 q0 64 -37 115.5t-117 97.5l-295 170q-13 7 -51 31q-71 -20 -110.5 -72t-39.5 -127z" />
<glyph unicode="&#xa8;" horiz-adv-x="1024" d="M256 1245v180h168v-180h-168zM600 1245v180h168v-180h-168z" />
<glyph unicode="&#xa9;" horiz-adv-x="1667" d="M90 717q0 211 95.5 379.5t265.5 263t383 94.5t383 -94.5t265 -263t95 -379.5t-95 -379.5t-265 -263t-383 -94.5t-383 94.5t-265.5 263t-95.5 379.5zM164 717q0 -191 86 -343.5t239 -238.5t345 -86t345 86t238.5 238.5t85.5 343.5t-85.5 343.5t-238.5 238t-345 85.5 t-345 -85.5t-239 -238t-86 -343.5zM432 721q0 212 114.5 339.5t305.5 127.5q156 0 257 -87.5t120 -238.5h-156q-15 88 -74 138.5t-147 50.5q-117 0 -186.5 -89.5t-69.5 -240.5q0 -155 69.5 -246.5t186.5 -91.5q94 0 156.5 58.5t74.5 156.5h154q-19 -164 -121.5 -258 t-263.5 -94q-192 0 -306 129t-114 346z" />
<glyph unicode="&#xaa;" horiz-adv-x="737" d="M66 918q0 86 73 141t244 98l96 25l-28 -103l-58 -14q-107 -26 -149.5 -54.5t-42.5 -72.5q0 -38 29 -60t81 -22q92 0 151.5 56.5t59.5 144.5v160q0 58 -40 94.5t-105 36.5q-60 0 -102 -32t-50 -83h-127q12 101 88 161t193 60q128 0 202 -67.5t74 -182.5v-440h-120v110h-7 q-103 -124 -264 -124q-93 0 -145.5 45t-52.5 123z" />
<glyph unicode="&#xab;" horiz-adv-x="987" d="M123 514l287 352h118l-211 -348v-8l211 -348h-118zM479 514l287 352h119l-211 -348v-8l211 -348h-119z" />
<glyph unicode="&#xac;" horiz-adv-x="1228" d="M96 750v139h1037v-475h-148v336h-889z" />
<glyph unicode="&#xad;" horiz-adv-x="819" d="M102 492v159h615v-159h-615z" />
<glyph unicode="&#xae;" horiz-adv-x="1089" d="M82 995q0 199 131 329t332 130t332 -130t131 -329t-131 -328.5t-332 -129.5t-332 129.5t-131 328.5zM147 995q0 -173 112.5 -285t285.5 -112t285 112t112 285t-112 285.5t-285 112.5t-285.5 -112.5t-112.5 -285.5zM358 739v506h203q83 0 131.5 -43t48.5 -115 q0 -52 -28 -88.5t-78 -54.5l55 -100q15 -27 49 -27h43l-28 -78h-43q-85 0 -117 66l-68 129h-61v-195h-107zM465 1012h92q34 0 54 20t20 55t-20 55.5t-54 20.5h-92v-151z" />
<glyph unicode="&#xaf;" horiz-adv-x="1024" d="M250 1262v118h524v-118h-524z" />
<glyph unicode="&#xb0;" horiz-adv-x="778" d="M82 1155q0 130 86.5 214.5t220.5 84.5t220.5 -84.5t86.5 -214.5t-86.5 -214.5t-220.5 -84.5t-220.5 84.5t-86.5 214.5zM217 1155q0 -75 48.5 -123.5t123.5 -48.5t123.5 48.5t48.5 123.5t-48.5 123.5t-123.5 48.5t-123.5 -48.5t-48.5 -123.5z" />
<glyph unicode="&#xb1;" horiz-adv-x="1228" d="M96 57v140h1037v-140h-1037zM96 709v139h443v369h151v-369h443v-139h-443v-369h-151v369h-443z" />
<glyph unicode="&#xb2;" horiz-adv-x="819" d="M139 717v98l312 266q67 58 67 133q0 55 -27.5 86t-72.5 31q-47 0 -77.5 -31t-41.5 -90h-135q9 112 77 172t187 60q105 0 167 -58.5t62 -156.5q0 -120 -114 -217l-219 -187h356l-41 -106h-500z" />
<glyph unicode="&#xb3;" horiz-adv-x="819" d="M133 940h131q4 -57 40.5 -89t96.5 -32t95.5 30.5t35.5 82.5t-36.5 83.5t-98.5 31.5h-84v98h76q57 0 90 27t33 73q0 41 -28.5 65.5t-75.5 24.5q-54 0 -87 -30t-36 -82h-127q6 103 73.5 161t180.5 58q106 0 170.5 -49t64.5 -131q0 -57 -30 -98t-87 -60v-4q66 -12 104 -59.5 t38 -118.5q0 -97 -73 -155t-196 -58q-124 0 -195.5 61t-74.5 170z" />
<glyph unicode="&#xb4;" horiz-adv-x="1024" d="M442 1196l107 279h209l-201 -279h-115z" />
<glyph unicode="&#xb5;" horiz-adv-x="1175" d="M160 -410v1434h176v-590q0 -145 60 -220t175 -75q126 0 197.5 84.5t71.5 235.5v565h176v-1024h-148l-20 139h-8q-107 -159 -303 -159q-133 0 -201 71v-461h-176z" />
<glyph unicode="&#xb6;" horiz-adv-x="1236" d="M66 1051q0 177 122.5 280t331.5 103h471q31 0 48.5 -17.5t17.5 -48.5v-1696h-152v1598q0 10 -6.5 17t-17.5 7h-230v-1622h-151v1000q-199 0 -316.5 103t-117.5 276z" />
<glyph unicode="&#xb7;" horiz-adv-x="512" d="M139 637q0 52 33 85.5t84 33.5t84 -33.5t33 -85.5t-33 -85.5t-84 -33.5t-84 33.5t-33 85.5z" />
<glyph unicode="&#xb8;" horiz-adv-x="1024" d="M340 -430l41 98h108q37 0 58.5 20t21.5 54q0 32 -19.5 51t-53.5 19q-27 0 -58 -17l-65 58l78 167h106l-57 -131q24 7 45 7q61 0 102 -44t41 -110q0 -78 -55 -125t-144 -47h-149z" />
<glyph unicode="&#xb9;" horiz-adv-x="819" d="M174 717l41 106h133v475h-4l-162 -112v125l178 123h123v-611h168l-41 -106h-436z" />
<glyph unicode="&#xba;" horiz-adv-x="804" d="M70 1102q0 161 89.5 256.5t241.5 95.5q154 0 244 -95.5t90 -256.5t-90 -256.5t-244 -95.5q-152 0 -241.5 95.5t-89.5 256.5zM209 1102q0 -110 52 -176t140 -66q89 0 142 66t53 176t-53 175.5t-142 65.5q-88 0 -140 -65.5t-52 -175.5z" />
<glyph unicode="&#xbb;" horiz-adv-x="987" d="M102 162l211 348v8l-211 348h119l287 -352l-287 -352h-119zM459 162l211 348v8l-211 348h119l286 -352l-286 -352h-119z" />
<glyph unicode="&#xbc;" horiz-adv-x="1597" d="M82 717l41 106h133v475h-4l-162 -112v125l178 123h123v-611h168l-41 -106h-436zM238 0l1036 1434h147l-1036 -1434h-147zM901 135v94l344 488h127v-475h123l-41 -107h-82v-135h-135v135h-336zM1024 242h213v301z" />
<glyph unicode="&#xbd;" horiz-adv-x="1597" d="M82 717l41 106h133v475h-4l-162 -112v125l178 123h123v-611h168l-41 -106h-436zM238 0l1036 1434h147l-1036 -1434h-147zM975 0v98l311 267q68 59 68 133q0 54 -28 85t-73 31q-96 0 -118 -120h-136q9 112 77.5 171.5t187.5 59.5q105 0 167 -58.5t62 -156.5 q0 -119 -115 -217l-219 -187h357l-41 -106h-500z" />
<glyph unicode="&#xbe;" horiz-adv-x="1597" d="M70 940h131q4 -57 40.5 -89t96.5 -32t95.5 30.5t35.5 82.5t-36.5 83.5t-98.5 31.5h-84v98h76q57 0 90 27t33 73q0 41 -29 65.5t-76 24.5q-54 0 -87 -30t-36 -82h-127q6 103 73.5 161t180.5 58q106 0 171 -49.5t65 -130.5q0 -57 -30 -98t-87 -60v-4q66 -12 103.5 -59.5 t37.5 -118.5q0 -97 -72.5 -155t-195.5 -58q-124 0 -195.5 61t-74.5 170zM238 0l1036 1434h147l-1036 -1434h-147zM901 135v94l344 488h127v-475h123l-41 -107h-82v-135h-135v135h-336zM1024 242h213v301z" />
<glyph unicode="&#xbf;" horiz-adv-x="1015" d="M115 -80q0 88 36.5 166.5t116.5 161.5l123 127q49 51 66.5 87t17.5 87v98h180v-112q0 -82 -26 -138t-97 -127l-147 -147q-90 -90 -90 -195q0 -92 60.5 -147t160.5 -55q105 0 170.5 60.5t71.5 164.5h176q-5 -175 -117 -278t-301 -103q-183 0 -292 95t-109 255zM459 795 v229h217v-229h-217z" />
<glyph unicode="&#xc0;" horiz-adv-x="1286" d="M37 0l485 1434h238l489 -1434h-190l-101 301h-552l49 152h452l-264 790h-8l-412 -1243h-186zM397 1823h209l107 -279h-115z" />
<glyph unicode="&#xc1;" horiz-adv-x="1286" d="M37 0l485 1434h238l489 -1434h-190l-101 301h-552l49 152h452l-264 790h-8l-412 -1243h-186zM573 1544l107 279h209l-201 -279h-115z" />
<glyph unicode="&#xc2;" horiz-adv-x="1286" d="M37 0l485 1434h238l489 -1434h-190l-101 301h-552l49 152h452l-264 790h-8l-412 -1243h-186zM352 1544l221 279h140l221 -279h-115l-172 154h-8l-172 -154h-115z" />
<glyph unicode="&#xc3;" horiz-adv-x="1286" d="M37 0l485 1434h238l489 -1434h-190l-101 301h-552l49 152h452l-264 790h-8l-412 -1243h-186zM340 1561q12 93 63.5 148.5t124.5 55.5q48 0 120 -36.5t102 -36.5q31 0 53 22.5t28 59.5h115q-12 -97 -63.5 -155t-124.5 -58q-48 0 -119.5 36.5t-101.5 36.5q-31 0 -53.5 -20 t-28.5 -53h-115z" />
<glyph unicode="&#xc4;" horiz-adv-x="1286" d="M37 0l485 1434h238l489 -1434h-190l-101 301h-552l49 152h452l-264 790h-8l-412 -1243h-186zM387 1593v181h168v-181h-168zM731 1593v181h168v-181h-168z" />
<glyph unicode="&#xc5;" horiz-adv-x="1286" d="M37 0l485 1434h238l489 -1434h-190l-101 301h-552l49 152h452l-264 790h-8l-412 -1243h-186zM451 1696q0 80 54 132t138 52t138.5 -52t54.5 -132t-54.5 -132.5t-138.5 -52.5t-138 52.5t-54 132.5zM541 1696q0 -44 29 -73.5t73 -29.5t73 29.5t29 73.5t-29 73t-73 29 t-73 -29t-29 -73z" />
<glyph unicode="&#xc6;" horiz-adv-x="1927" d="M37 0l797 1434h987l-41 -160h-623q-24 0 -24 -25v-1065q0 -24 24 -24h684l-41 -160h-786q-66 0 -66 66v235h-461l82 152h379v839l-712 -1292h-199zM1202 664l39 151h516l-39 -151h-516z" />
<glyph unicode="&#xc7;" horiz-adv-x="1449" d="M102 717q0 338 179.5 537.5t482.5 199.5q255 0 413.5 -135.5t170.5 -364.5h-193q-14 154 -119.5 245t-271.5 91q-214 0 -339.5 -155t-125.5 -418t124 -418.5t335 -155.5q166 0 276.5 97t132.5 260h189q-22 -224 -167 -362.5t-374 -155.5l-41 -93q24 7 45 7q62 0 103 -44 t41 -110q0 -78 -55 -125t-144 -47h-150l41 98h109q37 0 58.5 20t21.5 54q0 32 -20 51t-54 19q-26 0 -57 -17l-66 58l60 129q-279 17 -442 214.5t-163 520.5z" />
<glyph unicode="&#xc8;" horiz-adv-x="1200" d="M180 66v1302q0 31 17.5 48.5t48.5 17.5h848l-41 -160h-664q-10 0 -17 -7t-7 -18v-1065q0 -10 6.5 -17t17.5 -7h725l-41 -160h-827q-31 0 -48.5 17.5t-17.5 48.5zM393 1823h209l107 -279h-115zM434 664l39 151h555l-39 -151h-555z" />
<glyph unicode="&#xc9;" horiz-adv-x="1200" d="M180 66v1302q0 31 17.5 48.5t48.5 17.5h848l-41 -160h-664q-10 0 -17 -7t-7 -18v-1065q0 -10 6.5 -17t17.5 -7h725l-41 -160h-827q-31 0 -48.5 17.5t-17.5 48.5zM434 664l39 151h555l-39 -151h-555zM569 1544l107 279h209l-201 -279h-115z" />
<glyph unicode="&#xca;" horiz-adv-x="1200" d="M180 66v1302q0 31 17.5 48.5t48.5 17.5h848l-41 -160h-664q-10 0 -17 -7t-7 -18v-1065q0 -10 6.5 -17t17.5 -7h725l-41 -160h-827q-31 0 -48.5 17.5t-17.5 48.5zM348 1544l221 279h140l221 -279h-115l-172 154h-8l-172 -154h-115zM434 664l39 151h555l-39 -151h-555z" />
<glyph unicode="&#xcb;" horiz-adv-x="1200" d="M180 66v1302q0 31 17.5 48.5t48.5 17.5h848l-41 -160h-664q-10 0 -17 -7t-7 -18v-1065q0 -10 6.5 -17t17.5 -7h725l-41 -160h-827q-31 0 -48.5 17.5t-17.5 48.5zM383 1593v181h168v-181h-168zM434 664l39 151h555l-39 -151h-555zM727 1593v181h168v-181h-168z" />
<glyph unicode="&#xcc;" horiz-adv-x="557" d="M33 1823h209l106 -279h-115zM186 0v1434h185v-1434h-185z" />
<glyph unicode="&#xcd;" horiz-adv-x="557" d="M186 0v1434h185v-1434h-185zM209 1544l106 279h209l-200 -279h-115z" />
<glyph unicode="&#xce;" horiz-adv-x="557" d="M-12 1544l221 279h139l221 -279h-114l-172 154h-9l-172 -154h-114zM186 0v1434h185v-1434h-185z" />
<glyph unicode="&#xcf;" horiz-adv-x="557" d="M23 1593v181h167v-181h-167zM186 0v1434h185v-1434h-185zM367 1593v181h168v-181h-168z" />
<glyph unicode="&#xd0;" horiz-adv-x="1482" d="M20 686l35 135h166v547q0 66 66 66h356q338 0 537.5 -194t199.5 -523t-199.5 -523t-537.5 -194h-356q-66 0 -66 66v620h-201zM406 184q0 -24 24 -24h213q248 0 394.5 151t146.5 406t-146.5 406t-394.5 151h-213q-24 0 -24 -25v-428h417l-35 -135h-382v-502z" />
<glyph unicode="&#xd1;" horiz-adv-x="1437" d="M180 0v1434h226l667 -1166h8v1166h176v-1434h-225l-667 1165h-9v-1165h-176zM416 1561q12 93 63.5 148.5t124.5 55.5q48 0 119.5 -36.5t101.5 -36.5q31 0 53.5 22.5t28.5 59.5h115q-12 -97 -63.5 -155t-124.5 -58q-48 0 -120 36.5t-102 36.5q-31 0 -53.5 -20t-28.5 -53 h-114z" />
<glyph unicode="&#xd2;" horiz-adv-x="1540" d="M102 717q0 338 181 537.5t487 199.5t487 -199.5t181 -537.5t-181 -537.5t-487 -199.5t-487 199.5t-181 537.5zM299 717q0 -263 127.5 -418.5t343.5 -155.5t343.5 155.5t127.5 418.5t-127 418t-344 155t-344 -155t-127 -418zM524 1823h209l107 -279h-115z" />
<glyph unicode="&#xd3;" horiz-adv-x="1540" d="M102 717q0 338 181 537.5t487 199.5t487 -199.5t181 -537.5t-181 -537.5t-487 -199.5t-487 199.5t-181 537.5zM299 717q0 -263 127.5 -418.5t343.5 -155.5t343.5 155.5t127.5 418.5t-127 418t-344 155t-344 -155t-127 -418zM700 1544l107 279h209l-201 -279h-115z" />
<glyph unicode="&#xd4;" horiz-adv-x="1540" d="M102 717q0 338 181 537.5t487 199.5t487 -199.5t181 -537.5t-181 -537.5t-487 -199.5t-487 199.5t-181 537.5zM299 717q0 -263 127.5 -418.5t343.5 -155.5t343.5 155.5t127.5 418.5t-127 418t-344 155t-344 -155t-127 -418zM479 1544l221 279h140l221 -279h-115l-172 154 h-8l-172 -154h-115z" />
<glyph unicode="&#xd5;" horiz-adv-x="1540" d="M102 717q0 338 181 537.5t487 199.5t487 -199.5t181 -537.5t-181 -537.5t-487 -199.5t-487 199.5t-181 537.5zM299 717q0 -263 127.5 -418.5t343.5 -155.5t343.5 155.5t127.5 418.5t-127 418t-344 155t-344 -155t-127 -418zM467 1561q12 93 63.5 148.5t124.5 55.5 q48 0 120 -36.5t102 -36.5q31 0 53 22.5t28 59.5h115q-12 -97 -63.5 -155t-124.5 -58q-48 0 -119.5 36.5t-101.5 36.5q-31 0 -53.5 -20t-28.5 -53h-115z" />
<glyph unicode="&#xd6;" horiz-adv-x="1540" d="M102 717q0 338 181 537.5t487 199.5t487 -199.5t181 -537.5t-181 -537.5t-487 -199.5t-487 199.5t-181 537.5zM299 717q0 -263 127.5 -418.5t343.5 -155.5t343.5 155.5t127.5 418.5t-127 418t-344 155t-344 -155t-127 -418zM514 1593v181h168v-181h-168zM858 1593v181 h168v-181h-168z" />
<glyph unicode="&#xd7;" horiz-adv-x="1228" d="M180 332l330 330l-330 329l105 105l329 -330l330 330l105 -105l-330 -329l330 -330l-105 -105l-330 330l-329 -330z" />
<glyph unicode="&#xd8;" horiz-adv-x="1540" d="M102 717q0 338 181 537.5t487 199.5q199 0 354 -90l93 139h155l-145 -219q211 -202 211 -567q0 -338 -181 -537.5t-487 -199.5q-196 0 -346 86l-100 -152h-156l151 229q-105 96 -161 242.5t-56 331.5zM295 717q0 -263 127 -418l606 920q-110 75 -258 75 q-218 0 -346.5 -156.5t-128.5 -420.5zM518 209q112 -70 252 -70q218 0 346.5 157t128.5 421q0 256 -121 411z" />
<glyph unicode="&#xd9;" horiz-adv-x="1384" d="M168 524v910h184v-893q0 -190 88 -292t252 -102t252 102.5t88 291.5v893h185v-910q0 -250 -141.5 -397t-383.5 -147q-241 0 -382.5 146.5t-141.5 397.5zM446 1823h209l107 -279h-115z" />
<glyph unicode="&#xda;" horiz-adv-x="1384" d="M168 524v910h184v-893q0 -190 88 -292t252 -102t252 102.5t88 291.5v893h185v-910q0 -250 -141.5 -397t-383.5 -147q-241 0 -382.5 146.5t-141.5 397.5zM623 1544l106 279h209l-201 -279h-114z" />
<glyph unicode="&#xdb;" horiz-adv-x="1384" d="M168 524v910h184v-893q0 -190 88 -292t252 -102t252 102.5t88 291.5v893h185v-910q0 -250 -141.5 -397t-383.5 -147q-241 0 -382.5 146.5t-141.5 397.5zM401 1544l222 279h139l221 -279h-115l-172 154h-8l-172 -154h-115z" />
<glyph unicode="&#xdc;" horiz-adv-x="1384" d="M168 524v910h184v-893q0 -190 88 -292t252 -102t252 102.5t88 291.5v893h185v-910q0 -250 -141.5 -397t-383.5 -147q-241 0 -382.5 146.5t-141.5 397.5zM436 1593v181h168v-181h-168zM780 1593v181h168v-181h-168z" />
<glyph unicode="&#xdd;" horiz-adv-x="1220" d="M29 1434h213l366 -594h8l367 594h209l-490 -777v-657h-184v659zM541 1544l106 279h209l-201 -279h-114z" />
<glyph unicode="&#xde;" horiz-adv-x="1175" d="M180 0v1434h185v-308h266q220 0 349.5 -112.5t129.5 -304.5q0 -188 -129.5 -299t-349.5 -111h-197l39 152h145q138 0 221 70t83 188t-83 188t-221 70h-253v-967h-185z" />
<glyph unicode="&#xdf;" horiz-adv-x="1196" d="M160 0v1038q0 193 119.5 304.5t324.5 111.5q194 0 311 -103.5t117 -277.5q0 -233 -215 -311q142 -37 219.5 -133.5t77.5 -241.5q0 -180 -117.5 -283.5t-318.5 -103.5h-227l36 147h175q123 0 195.5 70t72.5 189q0 124 -77 197t-204 73h-141l41 145h43q122 0 193 65t71 179 q0 110 -67.5 172.5t-184.5 62.5q-124 0 -196 -70t-72 -192v-1038h-176z" />
<glyph unicode="&#xe0;" horiz-adv-x="1097" d="M82 238q0 139 109.5 224t355.5 136l158 33l-46 -146l-90 -18q-158 -32 -232.5 -83t-74.5 -126q0 -62 45 -96.5t127 -34.5q145 0 240.5 90t95.5 227v242q0 97 -63.5 156t-169.5 59q-99 0 -163.5 -51.5t-74.5 -140.5h-168q20 155 129.5 245t278.5 90q184 0 295.5 -103.5 t111.5 -274.5v-666h-160v158h-8q-66 -86 -166.5 -132t-222.5 -46q-148 0 -227.5 67t-79.5 191zM301 1454h209l106 -278h-114z" />
<glyph unicode="&#xe1;" horiz-adv-x="1097" d="M82 238q0 139 109.5 224t355.5 136l158 33l-46 -146l-90 -18q-158 -32 -232.5 -83t-74.5 -126q0 -62 45 -96.5t127 -34.5q145 0 240.5 90t95.5 227v242q0 97 -63.5 156t-169.5 59q-99 0 -163.5 -51.5t-74.5 -140.5h-168q20 155 129.5 245t278.5 90q184 0 295.5 -103.5 t111.5 -274.5v-666h-160v158h-8q-66 -86 -166.5 -132t-222.5 -46q-148 0 -227.5 67t-79.5 191zM477 1176l107 278h209l-201 -278h-115z" />
<glyph unicode="&#xe2;" horiz-adv-x="1097" d="M82 238q0 139 109.5 224t355.5 136l158 33l-46 -146l-90 -18q-158 -32 -232.5 -83t-74.5 -126q0 -62 45 -96.5t127 -34.5q145 0 240.5 90t95.5 227v242q0 97 -63.5 156t-169.5 59q-99 0 -163.5 -51.5t-74.5 -140.5h-168q20 155 129.5 245t278.5 90q184 0 295.5 -103.5 t111.5 -274.5v-666h-160v158h-8q-66 -86 -166.5 -132t-222.5 -46q-148 0 -227.5 67t-79.5 191zM256 1176l221 278h139l222 -278h-115l-172 153h-8l-172 -153h-115z" />
<glyph unicode="&#xe3;" horiz-adv-x="1097" d="M82 238q0 139 109.5 224t355.5 136l158 33l-46 -146l-90 -18q-158 -32 -232.5 -83t-74.5 -126q0 -62 45 -96.5t127 -34.5q145 0 240.5 90t95.5 227v242q0 97 -63.5 156t-169.5 59q-99 0 -163.5 -51.5t-74.5 -140.5h-168q20 155 129.5 245t278.5 90q184 0 295.5 -103.5 t111.5 -274.5v-666h-160v158h-8q-66 -86 -166.5 -132t-222.5 -46q-148 0 -227.5 67t-79.5 191zM244 1192q12 93 64 149t124 56q48 0 119.5 -37t101.5 -37q31 0 53.5 22.5t28.5 59.5h115q-12 -97 -63.5 -155t-124.5 -58q-48 0 -120 37t-102 37q-31 0 -53.5 -20t-28.5 -54 h-114z" />
<glyph unicode="&#xe4;" horiz-adv-x="1097" d="M82 238q0 139 109.5 224t355.5 136l158 33l-46 -146l-90 -18q-158 -32 -232.5 -83t-74.5 -126q0 -62 45 -96.5t127 -34.5q145 0 240.5 90t95.5 227v242q0 97 -63.5 156t-169.5 59q-99 0 -163.5 -51.5t-74.5 -140.5h-168q20 155 129.5 245t278.5 90q184 0 295.5 -103.5 t111.5 -274.5v-666h-160v158h-8q-66 -86 -166.5 -132t-222.5 -46q-148 0 -227.5 67t-79.5 191zM291 1225v180h168v-180h-168zM635 1225v180h168v-180h-168z" />
<glyph unicode="&#xe5;" horiz-adv-x="1097" d="M82 238q0 139 109.5 224t355.5 136l158 33l-46 -146l-90 -18q-158 -32 -232.5 -83t-74.5 -126q0 -62 45 -96.5t127 -34.5q145 0 240.5 90t95.5 227v242q0 97 -63.5 156t-169.5 59q-99 0 -163.5 -51.5t-74.5 -140.5h-168q20 155 129.5 245t278.5 90q184 0 295.5 -103.5 t111.5 -274.5v-666h-160v158h-8q-66 -86 -166.5 -132t-222.5 -46q-148 0 -227.5 67t-79.5 191zM354 1327q0 80 54.5 132t138.5 52t138 -52t54 -132t-54 -132t-138 -52t-138.5 52t-54.5 132zM444 1327q0 -44 29.5 -73t73.5 -29t73 29t29 73t-29 73.5t-73 29.5t-73.5 -29.5 t-29.5 -73.5z" />
<glyph unicode="&#xe6;" horiz-adv-x="1740" d="M82 240q0 129 113.5 216.5t349.5 141.5l135 31l-45 -148l-64 -14q-162 -37 -235.5 -85.5t-73.5 -119.5q0 -62 48 -98.5t130 -36.5q135 0 220 88.5t85 228.5v242q0 98 -61 156.5t-164 58.5q-95 0 -157 -51.5t-72 -140.5h-168q20 155 126 245t267 90q117 0 204.5 -49 t137.5 -141q127 190 365 190q209 0 320.5 -137.5t111.5 -394.5v-39h-660l41 135h441q-10 142 -75.5 217.5t-178.5 75.5q-137 0 -217 -104t-80 -281t80 -281t217 -104q97 0 162.5 53t80.5 144h176q-20 -161 -128 -254.5t-275 -93.5q-270 0 -399 249q-61 -118 -178 -183.5 t-265 -65.5t-231.5 69t-83.5 191z" />
<glyph unicode="&#xe7;" horiz-adv-x="1073" d="M86 516q0 240 129.5 384t345.5 144q177 0 290.5 -98.5t135.5 -269.5h-176q-19 100 -85.5 156.5t-164.5 56.5q-132 0 -211.5 -101.5t-79.5 -271.5q0 -174 79 -277.5t212 -103.5q105 0 176 65.5t86 176.5h172q-19 -174 -125 -279t-274 -116l-39 -93q24 7 45 7q61 0 102 -44 t41 -110q0 -78 -54.5 -125t-143.5 -47h-150l41 98h109q37 0 58.5 20t21.5 54q0 32 -20 51t-54 19q-26 0 -57 -17l-66 58l62 131q-188 25 -297 167t-109 365z" />
<glyph unicode="&#xe8;" horiz-adv-x="1105" d="M86 516q0 243 132.5 385.5t356.5 142.5q215 0 330 -137.5t115 -394.5v-39h-684l41 135h465q-12 139 -82 216t-185 77q-138 0 -223.5 -106.5t-85.5 -278.5q0 -177 84 -281t225 -104q102 0 171.5 53.5t84.5 143.5h177q-20 -161 -136.5 -254.5t-296.5 -93.5 q-225 0 -357 144.5t-132 391.5zM317 1454h209l107 -278h-115z" />
<glyph unicode="&#xe9;" horiz-adv-x="1105" d="M86 516q0 243 132.5 385.5t356.5 142.5q215 0 330 -137.5t115 -394.5v-39h-684l41 135h465q-12 139 -82 216t-185 77q-138 0 -223.5 -106.5t-85.5 -278.5q0 -177 84 -281t225 -104q102 0 171.5 53.5t84.5 143.5h177q-20 -161 -136.5 -254.5t-296.5 -93.5 q-225 0 -357 144.5t-132 391.5zM494 1176l106 278h209l-201 -278h-114z" />
<glyph unicode="&#xea;" horiz-adv-x="1105" d="M86 516q0 243 132.5 385.5t356.5 142.5q215 0 330 -137.5t115 -394.5v-39h-684l41 135h465q-12 139 -82 216t-185 77q-138 0 -223.5 -106.5t-85.5 -278.5q0 -177 84 -281t225 -104q102 0 171.5 53.5t84.5 143.5h177q-20 -161 -136.5 -254.5t-296.5 -93.5 q-225 0 -357 144.5t-132 391.5zM272 1176l222 278h139l221 -278h-115l-172 153h-8l-172 -153h-115z" />
<glyph unicode="&#xeb;" horiz-adv-x="1105" d="M86 516q0 243 132.5 385.5t356.5 142.5q215 0 330 -137.5t115 -394.5v-39h-684l41 135h465q-12 139 -82 216t-185 77q-138 0 -223.5 -106.5t-85.5 -278.5q0 -177 84 -281t225 -104q102 0 171.5 53.5t84.5 143.5h177q-20 -161 -136.5 -254.5t-296.5 -93.5 q-225 0 -357 144.5t-132 391.5zM307 1225v180h168v-180h-168zM651 1225v180h168v-180h-168z" />
<glyph unicode="&#xec;" horiz-adv-x="503" d="M6 1454h209l107 -278h-115zM164 0v1024h176v-1024h-176z" />
<glyph unicode="&#xed;" horiz-adv-x="503" d="M164 0v1024h176v-1024h-176zM182 1176l107 278h209l-201 -278h-115z" />
<glyph unicode="&#xee;" horiz-adv-x="503" d="M-39 1176l221 278h140l221 -278h-115l-172 153h-8l-172 -153h-115zM164 0v1024h176v-1024h-176z" />
<glyph unicode="&#xef;" horiz-adv-x="503" d="M-4 1225v180h168v-180h-168zM164 0v1024h176v-1024h-176zM340 1225v180h168v-180h-168z" />
<glyph unicode="&#xf0;" horiz-adv-x="1097" d="M86 487q0 235 113 373.5t305 138.5q180 0 313 -133q-27 213 -125 326l-293 -137l-47 92l254 119q-89 57 -221 57l33 152q210 0 352 -121l217 102l45 -90l-188 -88q168 -208 168 -590q0 -334 -130.5 -521t-363.5 -187q-200 0 -316 136t-116 371zM262 489 q0 -163 68.5 -258.5t185.5 -95.5q138 0 220 136t91 380q-50 90 -128 141.5t-169 51.5q-124 0 -196 -95.5t-72 -259.5z" />
<glyph unicode="&#xf1;" horiz-adv-x="1171" d="M160 0v1024h168v-139h8q104 159 319 159q175 0 270 -113t95 -325v-606h-176v590q0 145 -60.5 220t-177.5 75q-127 0 -198.5 -84.5t-71.5 -235.5v-565h-176zM283 1192q12 93 64 149t124 56q48 0 119.5 -37t101.5 -37q31 0 53.5 22.5t28.5 59.5h115q-12 -97 -64 -155 t-125 -58q-48 0 -119.5 37t-101.5 37q-31 0 -53.5 -20t-28.5 -54h-114z" />
<glyph unicode="&#xf2;" horiz-adv-x="1146" d="M86 512q0 245 131.5 388.5t355.5 143.5t356 -144t132 -388t-132 -388t-356 -144t-355.5 143.5t-131.5 388.5zM270 512q0 -172 82.5 -274.5t220.5 -102.5t221 102.5t83 274.5t-83 274.5t-221 102.5t-220.5 -102.5t-82.5 -274.5zM328 1454h209l106 -278h-115z" />
<glyph unicode="&#xf3;" horiz-adv-x="1146" d="M86 512q0 245 131.5 388.5t355.5 143.5t356 -144t132 -388t-132 -388t-356 -144t-355.5 143.5t-131.5 388.5zM270 512q0 -172 82.5 -274.5t220.5 -102.5t221 102.5t83 274.5t-83 274.5t-221 102.5t-220.5 -102.5t-82.5 -274.5zM504 1176l106 278h209l-201 -278h-114z" />
<glyph unicode="&#xf4;" horiz-adv-x="1146" d="M86 512q0 245 131.5 388.5t355.5 143.5t356 -144t132 -388t-132 -388t-356 -144t-355.5 143.5t-131.5 388.5zM270 512q0 -172 82.5 -274.5t220.5 -102.5t221 102.5t83 274.5t-83 274.5t-221 102.5t-220.5 -102.5t-82.5 -274.5zM283 1176l221 278h139l221 -278h-114 l-172 153h-9l-172 -153h-114z" />
<glyph unicode="&#xf5;" horiz-adv-x="1146" d="M86 512q0 245 131.5 388.5t355.5 143.5t356 -144t132 -388t-132 -388t-356 -144t-355.5 143.5t-131.5 388.5zM270 512q0 -172 82.5 -274.5t220.5 -102.5t221 102.5t83 274.5t-83 274.5t-221 102.5t-220.5 -102.5t-82.5 -274.5zM270 1192q12 93 64 149t125 56 q48 0 119.5 -37t101.5 -37q31 0 53.5 22.5t28.5 59.5h115q-12 -97 -64 -155t-125 -58q-48 0 -119.5 37t-101.5 37q-31 0 -53.5 -20t-28.5 -54h-115z" />
<glyph unicode="&#xf6;" horiz-adv-x="1146" d="M86 512q0 245 131.5 388.5t355.5 143.5t356 -144t132 -388t-132 -388t-356 -144t-355.5 143.5t-131.5 388.5zM270 512q0 -172 82.5 -274.5t220.5 -102.5t221 102.5t83 274.5t-83 274.5t-221 102.5t-220.5 -102.5t-82.5 -274.5zM317 1225v180h168v-180h-168zM662 1225v180 h167v-180h-167z" />
<glyph unicode="&#xf7;" horiz-adv-x="1228" d="M96 592v139h1037v-139h-1037zM487 303q0 55 35.5 91t91.5 36t91.5 -36t35.5 -91t-35.5 -91t-91.5 -36t-91.5 36t-35.5 91zM487 1020q0 56 35.5 91.5t91.5 35.5t91.5 -35.5t35.5 -91.5t-35.5 -91.5t-91.5 -35.5t-91.5 35.5t-35.5 91.5z" />
<glyph unicode="&#xf8;" horiz-adv-x="1146" d="M86 512q0 245 131.5 388.5t355.5 143.5q138 0 242 -55l66 105h131l-107 -168q156 -147 156 -414q0 -244 -132 -388t-356 -144q-128 0 -233 51l-74 -117h-131l113 180q-162 146 -162 418zM270 512q0 -166 76 -264l379 600q-65 41 -152 41q-138 0 -220.5 -102.5 t-82.5 -274.5zM430 172q61 -37 143 -37q138 0 221 102.5t83 274.5q0 155 -70 258z" />
<glyph unicode="&#xf9;" horiz-adv-x="1167" d="M152 418v606h176v-590q0 -145 60 -220t175 -75q126 0 197 84.5t71 235.5v565h177v-1024h-168v139h-9q-107 -159 -317 -159q-175 0 -268.5 113t-93.5 325zM338 1454h209l106 -278h-114z" />
<glyph unicode="&#xfa;" horiz-adv-x="1167" d="M152 418v606h176v-590q0 -145 60 -220t175 -75q126 0 197 84.5t71 235.5v565h177v-1024h-168v139h-9q-107 -159 -317 -159q-175 0 -268.5 113t-93.5 325zM514 1176l107 278h208l-200 -278h-115z" />
<glyph unicode="&#xfb;" horiz-adv-x="1167" d="M152 418v606h176v-590q0 -145 60 -220t175 -75q126 0 197 84.5t71 235.5v565h177v-1024h-168v139h-9q-107 -159 -317 -159q-175 0 -268.5 113t-93.5 325zM293 1176l221 278h139l221 -278h-114l-172 153h-8l-172 -153h-115z" />
<glyph unicode="&#xfc;" horiz-adv-x="1167" d="M152 418v606h176v-590q0 -145 60 -220t175 -75q126 0 197 84.5t71 235.5v565h177v-1024h-168v139h-9q-107 -159 -317 -159q-175 0 -268.5 113t-93.5 325zM328 1225v180h168v-180h-168zM672 1225v180h168v-180h-168z" />
<glyph unicode="&#xfd;" horiz-adv-x="1009" d="M20 1024h189l293 -776h8l295 776h184l-459 -1194q-76 -199 -315 -199h-164l41 152h146q88 0 127 94l49 127zM436 1176l107 278h209l-201 -278h-115z" />
<glyph unicode="&#xfe;" horiz-adv-x="1171" d="M160 -389v1823l176 41v-578h8q110 147 311 147q197 0 313.5 -144t116.5 -388t-118.5 -388t-319.5 -144q-100 0 -178 39t-125 112h-8v-479zM332 512q0 -181 70.5 -279t201.5 -98q136 0 216.5 102t80.5 275q0 172 -80.5 274.5t-216.5 102.5q-131 0 -201.5 -98t-70.5 -279z " />
<glyph unicode="&#xff;" horiz-adv-x="1009" d="M20 1024h189l293 -776h8l295 776h184l-459 -1194q-76 -199 -315 -199h-164l41 152h146q88 0 127 94l49 127zM250 1225v180h168v-180h-168zM594 1225v180h168v-180h-168z" />
<glyph unicode="&#x131;" horiz-adv-x="503" d="M164 0v1024h176v-1024h-176z" />
<glyph unicode="&#x141;" horiz-adv-x="1081" d="M20 279v172l160 133v850h185v-686l466 399v-170l-466 -399v-394q0 -10 6.5 -17t17.5 -7h643l-41 -160h-745q-31 0 -48.5 17.5t-17.5 48.5v348z" />
<glyph unicode="&#x142;" horiz-adv-x="536" d="M16 651v125l164 84v574l176 41v-517l164 86v-124l-164 -86v-834h-176v735z" />
<glyph unicode="&#x152;" horiz-adv-x="2191" d="M102 717q0 340 173.5 538.5t469.5 198.5q317 0 459 -233h8v147q0 31 17.5 48.5t48.5 17.5h807l-41 -160h-623q-10 0 -17 -7t-7 -18v-1065q0 -10 6.5 -17t17.5 -7h684l-41 -160h-786q-31 0 -48.5 17.5t-17.5 48.5v147h-8q-142 -233 -459 -233q-296 0 -469.5 198.5 t-173.5 538.5zM299 717q0 -263 123 -418.5t332 -155.5t331.5 155.5t122.5 418.5t-122.5 418t-331.5 155t-332 -155t-123 -418zM1466 664l39 151h516l-39 -151h-516z" />
<glyph unicode="&#x153;" horiz-adv-x="1851" d="M86 512q0 244 128.5 388t346.5 144q127 0 225 -50t160 -144q62 94 161 144t226 50q209 0 320.5 -137.5t111.5 -394.5v-39h-659l41 135h440q-10 142 -75.5 217.5t-178.5 75.5q-137 0 -217 -104t-80 -281t80 -281t217 -104q97 0 163 53t81 144h176q-20 -160 -134.5 -254 t-287.5 -94q-125 0 -223 50.5t-162 143.5q-61 -93 -160 -143.5t-225 -50.5q-218 0 -346.5 144t-128.5 388zM270 512q0 -173 78.5 -275t212.5 -102t212.5 102t78.5 275t-78.5 275t-212.5 102t-212.5 -102t-78.5 -275z" />
<glyph unicode="&#x160;" horiz-adv-x="1220" d="M94 463h185q9 -149 106 -236.5t254 -87.5q141 0 222 65.5t81 180.5q0 199 -254 254l-213 47q-348 77 -348 377q0 180 125.5 285.5t337.5 105.5q224 0 357.5 -118.5t142.5 -319.5h-181q-8 130 -91 206t-226 76q-128 0 -206.5 -59.5t-78.5 -157.5q0 -82 53 -138.5 t150 -78.5l215 -49q206 -47 303.5 -146.5t97.5 -262.5q0 -198 -131 -312t-358 -114q-241 0 -388 131t-155 352zM301 1823h115l172 -154h8l172 154h115l-221 -279h-140z" />
<glyph unicode="&#x161;" horiz-adv-x="983" d="M86 340h172q6 -98 74.5 -153.5t183.5 -55.5q98 0 153.5 39.5t55.5 108.5q0 58 -42.5 95.5t-131.5 57.5l-166 37q-274 61 -274 283q0 135 99 213.5t271 78.5q173 0 276.5 -88t112.5 -239h-168q-6 85 -66 132.5t-161 47.5q-90 0 -143 -36t-53 -97q0 -51 34.5 -85.5 t100.5 -47.5l168 -37q167 -37 241 -107t74 -190q0 -149 -101.5 -233t-281.5 -84q-193 0 -308 97t-120 263zM201 1454h114l172 -154h9l172 154h114l-221 -278h-139z" />
<glyph unicode="&#x178;" horiz-adv-x="1220" d="M29 1434h213l366 -594h8l367 594h209l-490 -777v-657h-184v659zM354 1593v181h168v-181h-168zM698 1593v181h168v-181h-168z" />
<glyph unicode="&#x17d;" horiz-adv-x="1191" d="M70 0v135l782 1131v8h-750l41 160h951v-136l-783 -1130v-8h807l-41 -160h-1007zM303 1823h115l172 -154h8l172 154h115l-221 -279h-140z" />
<glyph unicode="&#x17e;" horiz-adv-x="978" d="M66 0v133l591 735v9h-559l41 147h754v-133l-592 -735v-9h608l-41 -147h-802zM197 1454h114l172 -154h9l172 154h114l-221 -278h-139z" />
<glyph unicode="&#x192;" horiz-adv-x="856" d="M-90 -338l29 154h141q106 0 127 106l162 858h-185l27 140h184l51 270q50 264 316 264h151l-28 -154h-121q-115 0 -133 -106l-51 -274h204l-26 -140h-205l-162 -854q-50 -264 -309 -264h-172z" />
<glyph unicode="&#x2c6;" horiz-adv-x="1024" d="M221 1196l221 279h140l221 -279h-115l-172 154h-8l-172 -154h-115z" />
<glyph unicode="&#x2c7;" horiz-adv-x="1024" d="M221 1475h115l172 -154h8l172 154h115l-221 -279h-140z" />
<glyph unicode="&#x2d8;" horiz-adv-x="1024" d="M244 1458h114q9 -54 51 -86.5t103 -32.5t103 32.5t51 86.5h114q-9 -113 -81.5 -179.5t-186.5 -66.5t-186.5 66.5t-81.5 179.5z" />
<glyph unicode="&#x2d9;" horiz-adv-x="1024" d="M420 1237v197h184v-197h-184z" />
<glyph unicode="&#x2da;" horiz-adv-x="1024" d="M319 1348q0 80 54.5 132t138.5 52t138.5 -52t54.5 -132t-54.5 -132.5t-138.5 -52.5t-138.5 52.5t-54.5 132.5zM410 1348q0 -44 29 -73.5t73 -29.5t73 29.5t29 73.5t-29 73t-73 29t-73 -29t-29 -73z" />
<glyph unicode="&#x2db;" horiz-adv-x="1024" d="M336 -199q0 67 42.5 124.5t117.5 94.5h133q-140 -92 -140 -194q0 -78 91 -78q41 0 92 23v-121q-58 -25 -125 -25q-95 0 -153 48.5t-58 127.5z" />
<glyph unicode="&#x2dc;" horiz-adv-x="1024" d="M209 1212q12 93 64 149t124 56q48 0 119.5 -37t101.5 -37q31 0 53.5 22.5t28.5 59.5h115q-12 -97 -63.5 -155t-124.5 -58q-48 0 -119.5 37t-101.5 37q-31 0 -53.5 -20t-28.5 -54h-115z" />
<glyph unicode="&#x2dd;" horiz-adv-x="1024" d="M293 1196l65 279h193l-152 -279h-106zM600 1196l66 279h192l-151 -279h-107z" />
<glyph unicode="&#x300;" d="M-758 1454h209l107 -278h-115z" />
<glyph unicode="&#x301;" d="M-582 1176l107 278h209l-201 -278h-115z" />
<glyph unicode="&#x302;" d="M-803 1176l221 278h140l221 -278h-115l-172 153h-8l-172 -153h-115z" />
<glyph unicode="&#x303;" d="M-815 1192q12 93 64 149t124 56q48 0 119.5 -37t101.5 -37q31 0 53.5 22.5t28.5 59.5h115q-12 -97 -63.5 -155t-124.5 -58q-48 0 -119.5 37t-101.5 37q-31 0 -53.5 -20t-28.5 -54h-115z" />
<glyph unicode="&#x304;" d="M-774 1241v119h524v-119h-524z" />
<glyph unicode="&#x306;" d="M-780 1438h114q9 -54 51 -86.5t103 -32.5t103 32.5t51 86.5h114q-9 -113 -81.5 -179.5t-186.5 -66.5t-186.5 66.5t-81.5 179.5z" />
<glyph unicode="&#x307;" d="M-604 1217v196h184v-196h-184z" />
<glyph unicode="&#x308;" d="M-768 1225v180h168v-180h-168zM-424 1225v180h168v-180h-168z" />
<glyph unicode="&#x30a;" d="M-705 1327q0 80 54.5 132t138.5 52t138.5 -52t54.5 -132t-54.5 -132t-138.5 -52t-138.5 52t-54.5 132zM-614 1327q0 -44 29 -73t73 -29t73 29t29 73t-29 73.5t-73 29.5t-73 -29.5t-29 -73.5z" />
<glyph unicode="&#x30b;" d="M-731 1176l65 278h193l-152 -278h-106zM-424 1176l66 278h192l-151 -278h-107z" />
<glyph unicode="&#x30c;" d="M-803 1454h115l172 -154h8l172 154h115l-221 -278h-140z" />
<glyph unicode="&#x323;" d="M-604 -152h184v-196h-184v196z" />
<glyph unicode="&#x327;" d="M-684 -430l41 98h108q37 0 58.5 20t21.5 54q0 32 -19.5 51t-53.5 19q-27 0 -58 -17l-65 58l78 167h106l-57 -131q25 7 45 7q61 0 102 -44t41 -110q0 -78 -55 -125t-144 -47h-149z" />
<glyph unicode="&#x328;" d="M-688 -199q0 67 42.5 124.5t117.5 94.5h133q-140 -92 -140 -194q0 -78 91 -78q41 0 92 23v-121q-58 -25 -125 -25q-95 0 -153 48.5t-58 127.5z" />
<glyph unicode="&#x394;" horiz-adv-x="1273" d="M49 0v135l483 1299h209l484 -1299v-135h-1176zM248 160h778l-385 1038h-8z" />
<glyph unicode="&#x3a9;" horiz-adv-x="1556" d="M123 0v160h393v8q-377 219 -377 643q0 293 173.5 468t465.5 175t465.5 -175t173.5 -468q0 -421 -377 -643v-8h394v-160h-551v143q175 175 256.5 336.5t81.5 331.5q0 220 -120 349.5t-323 129.5t-322.5 -129.5t-119.5 -349.5q0 -170 81.5 -331.5t256.5 -336.5v-143h-551z " />
<glyph unicode="&#x3bc;" horiz-adv-x="1175" d="M160 -410v1434h176v-590q0 -145 60 -220t175 -75q126 0 197.5 84.5t71.5 235.5v565h176v-1024h-148l-20 139h-8q-107 -159 -303 -159q-133 0 -201 71v-461h-176z" />
<glyph unicode="&#x3c0;" horiz-adv-x="1204" d="M12 877l41 147h1102l-41 -147h-225v-627q0 -47 25 -72.5t71 -25.5h145l-40 -152h-123q-123 0 -188.5 66.5t-65.5 191.5v619h-320v-877h-176v877h-205z" />
<glyph unicode="&#xe01;" horiz-adv-x="1265" d="M98 778v37q57 155 191.5 243.5t314.5 88.5q230 0 364 -127.5t134 -345.5v-674h-180v674q0 147 -85.5 230t-236.5 83q-107 0 -191.5 -44t-119.5 -118l192 -135v-94l-137 -129v-467h-180v512l145 127z" />
<glyph unicode="&#xe02;" horiz-adv-x="1159" d="M156 381v135q0 55 23.5 100t94.5 123q49 54 67.5 85.5t18.5 62.5v39q0 49 -49 49h-147l41 151h147q94 0 139.5 -45t45.5 -139v-45q0 -60 -21 -106t-78 -109q-102 -110 -102 -176v-105q0 -126 62 -194t177 -68t177.5 68t62.5 194v725h180v-745q0 -184 -114 -292.5 t-306 -108.5t-305.5 108.5t-113.5 292.5z" />
<glyph unicode="&#xe03;" horiz-adv-x="1159" d="M61 999l41 144q112 0 127 -129h9l98 112h49q94 0 139 -45t45 -139v-45q0 -50 -26.5 -99.5t-93.5 -125.5q-69 -79 -91 -118.5t-22 -88.5v-64q0 -126 62 -194t177 -68t177.5 68t62.5 194v725h180v-745q0 -184 -114 -292.5t-306 -108.5t-305.5 108.5t-113.5 292.5v94 q0 61 27.5 115t101.5 139q64 74 86 105.5t22 52.5v47q0 41 -41 41h-2l-90 -101h-74q-9 125 -125 125z" />
<glyph unicode="&#xe04;" horiz-adv-x="1290" d="M164 0v655q0 226 130 359t351 133t351 -133t130 -359v-655h-180v635q0 161 -81.5 256.5t-219.5 95.5t-219.5 -95.5t-81.5 -256.5v-219h8q46 108 134 165.5t208 57.5q50 0 64 -4l-41 -184q-24 8 -66 8q-136 0 -221.5 -88.5t-85.5 -229.5v-141h-180z" />
<glyph unicode="&#xe05;" horiz-adv-x="1323" d="M168 0v778q0 178 72 271.5t209 93.5q127 0 193 -89.5t81 -281.5h-135q-11 116 -41.5 169.5t-85.5 53.5q-59 0 -86 -56.5t-27 -180.5v-363h8q44 106 138 164.5t217 58.5q51 0 63 -4l-41 -184q-21 8 -65 8q-140 0 -230 -89t-90 -228v-121h-180zM741 1014l93 112h79 q115 0 176.5 -58t61.5 -167v-901h-180v877q0 46 -21.5 74t-62.5 32l-99 -119h-8q-13 97 -39 150z" />
<glyph unicode="&#xe06;" horiz-adv-x="1265" d="M41 1143q82 0 129.5 -33t58.5 -96h9l98 112h57q94 0 139.5 -45t45.5 -139v-37q0 -52 -24 -97.5t-97 -127.5q-63 -70 -88 -111.5t-25 -74.5v-21q0 -160 77.5 -247t219.5 -87q135 0 208 80.5t73 229.5v677h180v-688q0 -223 -102.5 -340.5t-297.5 -117.5q-238 0 -358 167h-8 v-147h-172v500q0 55 26.5 104.5t102.5 132.5q63 68 85.5 100.5t22.5 57.5v39q0 41 -41 41h-10l-90 -101h-74q-5 59 -39 92t-92 33z" />
<glyph unicode="&#xe07;" horiz-adv-x="1091" d="M33 860h184l227 -713h13q160 0 256 117t96 316q0 181 -82.5 288t-220.5 107h-105l41 151h84q214 0 340.5 -148t126.5 -398q0 -266 -140 -423t-376 -157h-166z" />
<glyph unicode="&#xe08;" horiz-adv-x="1118" d="M57 768q23 174 149 276.5t318 102.5q236 0 366 -149t130 -412q0 -269 -140 -427.5t-378 -158.5h-94l-148 455h-170l41 139h256l148 -440q138 14 217 129t79 305q0 191 -79 295t-224 104q-114 0 -192.5 -60.5t-93.5 -158.5h-185z" />
<glyph unicode="&#xe09;" horiz-adv-x="1220" d="M86 469l37 139h233v-180q0 -137 64 -211t184 -74q132 0 202.5 91.5t70.5 261.5v229q0 124 -74.5 193t-208.5 69q-121 0 -194 -57.5t-85 -161.5h-184q23 183 144.5 281t322.5 98q220 0 339.5 -116.5t119.5 -328.5v-702h-172v156h-8q-110 -176 -334 -176q-175 0 -267 113.5 t-92 328.5v47h-98z" />
<glyph unicode="&#xe0a;" horiz-adv-x="1171" d="M147 975l41 151h148q94 0 139 -45t45 -139v-45q0 -60 -20 -107t-72 -108q-52 -63 -72 -101t-20 -75v-105q0 -126 64 -194t182 -68t181.5 68t63.5 194v134q0 63 -41.5 97t-117.5 34h-66l41 139h53q152 0 152 131v190l172 41v-229q0 -73 -37.5 -126t-103.5 -75 q60 -26 94.5 -79.5t34.5 -122.5v-154q0 -184 -115.5 -292.5t-310.5 -108.5t-310.5 108.5t-115.5 292.5v135q0 57 21.5 101.5t86.5 121.5q46 56 63 87t17 61v39q0 49 -49 49h-148z" />
<glyph unicode="&#xe0b;" horiz-adv-x="1171" d="M45 999l41 144q112 0 127 -129h8l98 112h50q94 0 139 -45t45 -139v-45q0 -53 -24.5 -102t-88.5 -123q-63 -74 -83.5 -114.5t-20.5 -92.5v-64q0 -126 64 -194t182 -68t181.5 68t63.5 194v134q0 63 -41.5 97t-117.5 34h-66l41 139h53q152 0 152 131v190l172 41v-229 q0 -73 -37.5 -126t-103.5 -75q60 -26 94.5 -79.5t34.5 -122.5v-154q0 -184 -115.5 -292.5t-310.5 -108.5t-310.5 108.5t-115.5 292.5v94q0 69 26.5 125t93.5 129q101 107 101 158v47q0 41 -41 41h-2l-90 -101h-74q-9 125 -125 125z" />
<glyph unicode="&#xe0c;" horiz-adv-x="1949" d="M102 782v37q57 154 190.5 241t311.5 87q219 0 350 -126.5t131 -338.5v-186q0 -167 71 -260t198 -93q123 0 187.5 86t64.5 252v645h180v-651q0 -243 -94 -369t-275 -126q-108 0 -193.5 45.5t-138.5 130.5h-8v-156h-172v682q0 144 -82 224.5t-229 80.5q-105 0 -185.5 -42 t-115.5 -114l192 -133v-94l-145 -125v-209q0 -57 30 -87.5t87 -30.5h153l-43 -152h-125q-282 0 -282 276v248l151 125z" />
<glyph unicode="&#xe0d;" horiz-adv-x="1957" d="M102 782v37q57 154 190.5 241t311.5 87q219 0 350 -126.5t131 -338.5v-193q0 -158 64.5 -241.5t187.5 -83.5q129 0 199 91.5t70 260.5v610h180v-1136q0 -193 -119.5 -306.5t-323.5 -113.5q-178 0 -290 85.5t-127 233.5h176q9 -78 73.5 -123t167.5 -45q126 0 198.5 66.5 t72.5 181.5v207h-8q-110 -176 -332 -176q-180 0 -274.5 123.5t-94.5 359.5v199q0 144 -82 224.5t-229 80.5q-105 0 -185.5 -42t-115.5 -114l192 -133v-94l-145 -125v-209q0 -57 30 -87.5t87 -30.5h153l-43 -152h-125q-282 0 -282 276v248l151 125z" />
<glyph unicode="&#xe0e;" horiz-adv-x="1265" d="M8 0l41 152h41q90 0 90 90v272l137 121l-219 145v37q55 155 189.5 242.5t316.5 87.5q231 0 364.5 -127t133.5 -346v-830q0 -120 -67 -187t-187 -67h-111q-9 78 -62 125t-134 47t-134.5 -47t-62.5 -125h-172q17 143 110.5 227.5t235.5 84.5q99 0 175.5 -43t117.5 -121h16 q95 0 95 123v813q0 149 -84.5 231t-237.5 82q-109 0 -193 -43.5t-118 -116.5l200 -141v-94l-129 -121v-223q0 -126 -63.5 -187t-192.5 -61h-96z" />
<glyph unicode="&#xe0f;" horiz-adv-x="1265" d="M8 0l41 152h41q90 0 90 90v272l137 121l-219 145v37q55 155 189.5 242.5t316.5 87.5q231 0 364.5 -127t133.5 -346v-826q0 -131 -62.5 -194.5t-191.5 -63.5h-72l-112 121h-9l-112 -121h-82q-14 62 -75.5 94.5t-164.5 32.5l41 152q89 0 149 -36.5t83 -104.5h8l112 120h91 l112 -118h10q95 0 95 118v826q0 149 -84.5 231t-237.5 82q-109 0 -193 -43.5t-118 -116.5l200 -141v-94l-129 -121v-223q0 -126 -63.5 -187t-192.5 -61h-96z" />
<glyph unicode="&#xe10;" horiz-adv-x="1130" d="M57 768q23 174 149 276.5t318 102.5q62 0 121 -19l457 9l-39 -160l-207 22q164 -105 164 -413q0 -269 -140 -427.5t-378 -158.5h-94l-148 455h-170l41 139h256l148 -440q138 14 217 129t79 305q0 191 -79 295t-224 104q-114 0 -192.5 -60.5t-93.5 -158.5h-185zM96 -410 l37 148h191l118 110h90l119 -110h47q48 0 77.5 32t29.5 91v35h168v-52q0 -122 -68 -188t-186 -66h-96l-131 121h-9l-131 -121h-256z" />
<glyph unicode="&#xe11;" horiz-adv-x="1257" d="M41 999l41 144q57 0 97 -34.5t50 -94.5h9l98 112h57q80 0 121.5 -34t48.5 -107h8l117 141h139q123 0 190.5 -59t67.5 -168v-899h-180v883q0 106 -112 106h-27l-309 -350q-69 -76 -91 -112.5t-22 -73.5v-453h-180v463q0 51 28 99t105 134q59 65 81.5 103.5t22.5 74.5v60 q0 41 -41 41h-10l-90 -101h-74q-4 57 -43.5 91t-101.5 34z" />
<glyph unicode="&#xe12;" horiz-adv-x="2076" d="M143 539q0 604 367 604q136 0 207.5 -88t93.5 -283h-135q-9 114 -47 168.5t-107 54.5q-198 0 -198 -456q0 -408 178 -408q77 0 114.5 81.5t40.5 258.5h-180l37 141h307v-135q0 -258 -76.5 -377.5t-240.5 -119.5q-183 0 -272 138t-89 421zM825 999l99 127h53 q114 0 174.5 -60t60.5 -173v-397q0 -170 70 -263.5t199 -93.5q122 0 187 85t65 245v657h180v-663q0 -236 -94.5 -359.5t-274.5 -123.5q-222 0 -332 176h-10v-156h-170v868q0 94 -51 113l-104 -135h-9q-8 76 -43 153z" />
<glyph unicode="&#xe13;" horiz-adv-x="1957" d="M102 782v37q57 154 190.5 241t311.5 87q219 0 350 -126.5t131 -338.5v-213q0 -158 64.5 -242t187.5 -84q129 0 199 92t70 261v630h180v-1126h-172v156h-8q-110 -176 -332 -176q-180 0 -274.5 123.5t-94.5 359.5v219q0 144 -82 224.5t-229 80.5q-105 0 -185.5 -42 t-115.5 -114l192 -133v-94l-145 -125v-209q0 -57 30 -87.5t87 -30.5h153l-43 -152h-125q-282 0 -282 276v248l151 125z" />
<glyph unicode="&#xe14;" horiz-adv-x="1366" d="M143 541q0 278 149.5 442t401.5 164q235 0 371.5 -132t136.5 -360v-655h-180v655q0 158 -86 245t-242 87q-170 0 -270 -121t-100 -327q0 -408 176 -408q85 0 118.5 73.5t36.5 266.5h-159l36 141h285v-135q0 -258 -76.5 -377.5t-240.5 -119.5q-177 0 -267 141.5t-90 419.5 z" />
<glyph unicode="&#xe15;" horiz-adv-x="1404" d="M143 539q0 604 367 604q138 0 212.5 -89.5t96.5 -281.5h-135q-18 223 -162 223q-198 0 -198 -456q0 -408 178 -408q163 0 172 340h-189l37 141h316v-135q0 -252 -82.5 -374.5t-251.5 -122.5q-183 0 -272 138t-89 421zM834 995l106 131h49q117 0 180.5 -60.5t63.5 -172.5 v-893h-180v868q0 95 -58 111l-108 -137h-8q-11 79 -45 153z" />
<glyph unicode="&#xe16;" horiz-adv-x="1273" d="M102 778v37q57 155 192.5 243.5t315.5 88.5q230 0 365 -127.5t135 -345.5v-674h-180v674q0 148 -86 230.5t-238 82.5q-107 0 -193 -44t-120 -116l192 -137v-94l-145 -129v-197q0 -57 30 -87.5t87 -30.5h153l-43 -152h-125q-282 0 -282 276v236l153 129z" />
<glyph unicode="&#xe17;" horiz-adv-x="1265" d="M172 0v1126h170v-155h10q116 176 357 176q193 0 293 -122.5t100 -358.5v-666h-180v647q0 164 -71 252t-204 88q-141 0 -218 -95.5t-77 -270.5v-621h-180z" />
<glyph unicode="&#xe18;" horiz-adv-x="1122" d="M123 850q0 137 115.5 217t314.5 80q201 0 319.5 -88.5t131.5 -249.5h-181q-22 96 -89.5 141t-190.5 45q-105 0 -172.5 -41.5t-67.5 -107.5q0 -56 46 -87.5t159 -53.5l178 -35q172 -34 253 -113.5t81 -214.5q0 -162 -109 -252t-305 -90h-385q-31 0 -48 17.5t-17 48.5v409 h180v-295q0 -10 7 -17t17 -7h246q106 0 169 48t63 130q0 145 -193 182l-182 35q-180 34 -260 107t-80 192z" />
<glyph unicode="&#xe19;" horiz-adv-x="1257" d="M164 461v665h180v-647q0 -166 69 -253t201 -87q139 0 215 96t76 271v620h180v-1126h-172v156h-8q-116 -176 -352 -176q-190 0 -289.5 123t-99.5 358z" />
<glyph unicode="&#xe1a;" horiz-adv-x="1249" d="M164 418v708h180v-688q0 -144 73 -221.5t208 -77.5t207.5 77t72.5 222v688h180v-708q0 -201 -124 -319.5t-336 -118.5t-336.5 118.5t-124.5 319.5z" />
<glyph unicode="&#xe1b;" horiz-adv-x="1249" d="M164 418v708h180v-688q0 -144 73 -221.5t208 -77.5t207.5 77t72.5 222v1057l180 41v-1118q0 -201 -124 -319.5t-336 -118.5t-336.5 118.5t-124.5 319.5z" />
<glyph unicode="&#xe1c;" horiz-adv-x="1323" d="M172 0v918q0 208 201 208h155l-41 -145h-79q-68 0 -68 -74v-639h8l246 490h135l246 -490h8v858h168v-1126h-197l-288 569h-9l-288 -569h-197z" />
<glyph unicode="&#xe1d;" horiz-adv-x="1323" d="M172 0v918q0 208 201 208h155l-41 -145h-79q-68 0 -68 -74v-639h8l246 490h135l246 -490h8v1227l168 41v-1536h-197l-288 569h-9l-288 -569h-197z" />
<glyph unicode="&#xe1e;" horiz-adv-x="1396" d="M33 1126h180l184 -831h9l223 831h143l221 -823h8l183 823h180l-258 -1126h-184l-217 817h-9l-217 -817h-188z" />
<glyph unicode="&#xe1f;" horiz-adv-x="1396" d="M33 1126h178l170 -831h8l236 831h143l207 -819h8l258 1178l191 41l-347 -1526h-184l-205 817h-8l-229 -817h-189z" />
<glyph unicode="&#xe20;" horiz-adv-x="1265" d="M8 0l41 152h41q90 0 90 90v272l137 121l-219 145v37q55 155 189.5 242.5t316.5 87.5q231 0 364.5 -127t133.5 -346v-674h-180v674q0 149 -84.5 231t-237.5 82q-109 0 -193 -43.5t-118 -116.5l200 -141v-94l-129 -121v-223q0 -126 -63.5 -187t-192.5 -61h-96z" />
<glyph unicode="&#xe21;" horiz-adv-x="1257" d="M172 0v1126h180v-620q0 -175 76 -271t215 -96q132 0 201 87t69 253v647h181v-665q0 -236 -99 -358.5t-290 -122.5q-237 0 -353 176h-8v-156h-172z" />
<glyph unicode="&#xe22;" horiz-adv-x="1265" d="M127 377q0 118 54.5 203.5t156.5 128.5l121 -111q-72 -31 -110 -86t-38 -129q0 -112 81 -178t218 -66q152 0 232 87t80 253v647h180v-667q0 -226 -131.5 -352.5t-364.5 -126.5q-220 0 -349.5 107t-129.5 290zM135 975l41 151h457l-41 -147h-223l256 -225v-99l-93 -28z " />
<glyph unicode="&#xe23;" horiz-adv-x="1073" d="M90 358h184q11 -105 84.5 -164t194.5 -59q109 0 171 46.5t62 129.5q0 69 -46 112.5t-144 63.5l-197 41q-136 29 -207 107t-71 196q0 147 111 231.5t305 84.5t302 -93t115 -266h-180q-15 106 -74 154.5t-170 48.5q-105 0 -166 -41.5t-61 -113.5q0 -62 33 -96.5t108 -49.5 l193 -39q174 -35 254 -114.5t80 -217.5q0 -162 -112.5 -250.5t-313.5 -88.5q-212 0 -328 98t-127 280z" />
<glyph unicode="&#xe24;" horiz-adv-x="1273" d="M102 778v37q57 155 192.5 243.5t315.5 88.5q230 0 365 -127.5t135 -345.5v-1063l-180 -41v1104q0 148 -86 230.5t-238 82.5q-107 0 -193 -44t-120 -116l192 -137v-94l-145 -129v-197q0 -57 30 -87.5t87 -30.5h153l-43 -152h-125q-282 0 -282 276v236l153 129z" />
<glyph unicode="&#xe25;" horiz-adv-x="1189" d="M98 301q0 129 97.5 211.5t306.5 128.5l282 61l-41 -161l-211 -47q-129 -29 -189 -74t-60 -111q0 -70 60.5 -113.5t158.5 -43.5h147l-37 -152h-127q-181 0 -284 80.5t-103 220.5zM123 788q29 175 147 267t314 92q214 0 328 -108.5t114 -311.5v-727h-180v750 q0 237 -266 237q-236 0 -273 -199h-184z" />
<glyph unicode="&#xe26;" horiz-adv-x="1265" d="M8 0l41 152h41q90 0 90 90v272l137 121l-219 145v37q55 155 189.5 242.5t316.5 87.5q231 0 364.5 -127t133.5 -346v-1063l-180 -41v1104q0 149 -84.5 231t-237.5 82q-109 0 -193 -43.5t-118 -116.5l200 -141v-94l-129 -121v-223q0 -126 -63.5 -187t-192.5 -61h-96z" />
<glyph unicode="&#xe27;" horiz-adv-x="1134" d="M94 338h185q12 -89 81 -144t170 -55q145 0 231.5 116.5t86.5 311.5q0 193 -83 305.5t-226 112.5q-107 0 -177.5 -59.5t-82.5 -159.5h-185q25 175 146 277t303 102q226 0 359.5 -157t133.5 -421q0 -267 -137 -427t-364 -160q-175 0 -295 97.5t-146 260.5z" />
<glyph unicode="&#xe28;" horiz-adv-x="1302" d="M164 0v655q0 226 130.5 359t352.5 133q76 0 141 -19l474 9l-39 -160l-265 29q168 -63 168 -330v-676h-180v635q0 161 -81.5 256.5t-219.5 95.5t-219.5 -95.5t-81.5 -256.5v-219h8q46 108 134 165.5t208 57.5q50 0 64 -4l-41 -184q-24 8 -66 8q-136 0 -221.5 -88.5 t-85.5 -229.5v-141h-180z" />
<glyph unicode="&#xe29;" horiz-adv-x="1310" d="M164 438v688h180v-667q0 -154 78 -237t223 -83t223 83t78 237v127h-379l41 143h338v397h180v-397h156l-41 -143h-115v-148q0 -211 -130 -334.5t-351 -123.5t-351 123.5t-130 334.5z" />
<glyph unicode="&#xe2a;" horiz-adv-x="1202" d="M98 301q0 129 97.5 211.5t306.5 128.5l282 61l-41 -161l-211 -47q-129 -29 -189 -74t-60 -111q0 -70 60.5 -113.5t158.5 -43.5h147l-37 -152h-127q-181 0 -284 80.5t-103 220.5zM123 788q29 175 143 267t301 92q82 0 144 -19l450 9l-39 -160l-225 24q129 -87 129 -274 v-727h-180v750q0 117 -67.5 177t-198.5 60q-236 0 -273 -199h-184z" />
<glyph unicode="&#xe2b;" horiz-adv-x="1232" d="M172 0v1126h180v-1126h-180zM426 549v196l446 381h242v-8l-371 -307h23q146 0 230.5 -80t84.5 -215v-516h-180v516q0 70 -43 109t-121 39h-172z" />
<glyph unicode="&#xe2c;" horiz-adv-x="1404" d="M33 1126h178l176 -860h8l228 656h147l199 -643h8l145 665q4 24 4 35q0 96 -135 96h-340l49 139h353q71 0 111 31.5t55 100.5l32 149l191 41l-43 -188q-17 -75 -63.5 -127t-114.5 -74q84 -43 84 -148q0 -20 -7 -55l-213 -944h-184l-205 668h-8l-229 -668h-189z" />
<glyph unicode="&#xe2d;" horiz-adv-x="1200" d="M98 498q0 82 8 131h476l-37 -148h-269q1 -165 83.5 -255.5t230.5 -90.5q155 0 241.5 113.5t86.5 318.5q0 197 -91.5 310.5t-251.5 113.5q-114 0 -189.5 -60.5t-90.5 -164.5h-184q25 177 154 279t327 102q241 0 375.5 -153t134.5 -427q0 -278 -135 -432.5t-377 -154.5 q-231 0 -361.5 139t-130.5 379z" />
<glyph unicode="&#xe2e;" horiz-adv-x="1212" d="M98 498q0 82 8 131h476l-37 -148h-269q1 -165 83.5 -255.5t230.5 -90.5q155 0 241.5 113.5t86.5 318.5q0 197 -91.5 310.5t-251.5 113.5q-114 0 -189.5 -60.5t-90.5 -164.5h-184q25 177 154 279t327 102q72 0 131 -19l461 9l-39 -160l-209 24q78 -54 122 -167.5 t44 -266.5q0 -278 -135 -432.5t-377 -154.5q-231 0 -361.5 139t-130.5 379z" />
<glyph unicode="&#xe2f;" horiz-adv-x="1060" d="M49 817q0 141 89 225t237 84h104l-37 -151h-51q-72 0 -117 -43t-45 -113q0 -86 66.5 -136t177.5 -50q130 0 236 59v434h180v-1126h-180v530q-117 -53 -254 -53q-185 0 -295.5 92.5t-110.5 247.5z" />
<glyph unicode="&#xe30;" horiz-adv-x="667" d="M106 360v82h168v-90q0 -37 20.5 -57.5t57.5 -20.5h234l-41 -147h-211q-228 0 -228 233zM106 905v82h168v-90q0 -37 20.5 -57.5t57.5 -20.5h234l-41 -147h-211q-228 0 -228 233z" />
<glyph unicode="&#xe31;" d="M-707 1528v53h160v-70q0 -37 20.5 -57t57.5 -20h530l-41 -140h-499q-113 0 -170.5 59.5t-57.5 174.5z" />
<glyph unicode="&#xe32;" horiz-adv-x="749" d="M49 975l37 151h127q369 0 369 -358v-768h-181v768q0 109 -48.5 158t-157.5 49h-146z" />
<glyph unicode="&#xe33;" horiz-adv-x="749" d="M-457 1438q0 82 58 134t147 52t147 -52t58 -134t-58 -134.5t-147 -52.5t-147 52.5t-58 134.5zM-330 1438q0 -32 22 -54t56 -22t56 22t22 54t-22 53.5t-56 21.5t-56 -21.5t-22 -53.5zM49 975l37 151h127q369 0 369 -358v-768h-181v768q0 109 -48.5 158t-157.5 49h-146z " />
<glyph unicode="&#xe34;" d="M-983 1294l41 140h778v-140h-819z" />
<glyph unicode="&#xe35;" d="M-983 1294l41 140h618v188h160v-328h-819z" />
<glyph unicode="&#xe36;" d="M-983 1294l41 140h489q-4 24 -4 36q0 77 54.5 127t138.5 50t138 -50t54 -127t-54 -126.5t-138 -49.5h-719zM-334 1470q0 -32 19.5 -52.5t50.5 -20.5t50 20.5t19 52.5t-19 53t-50 21t-50.5 -21t-19.5 -53z" />
<glyph unicode="&#xe37;" d="M-983 1294l41 140h385v188h151v-188h82v188h160v-328h-819z" />
<glyph unicode="&#xe38;" d="M-459 -279l41 140h254v-385h-168v245h-127z" />
<glyph unicode="&#xe39;" d="M-799 -279l41 140h221v-189q0 -53 29 -83.5t78 -30.5t77.5 30.5t28.5 83.5v189h160v-201q0 -107 -72 -170t-194 -63q-120 0 -191 63t-71 170v61h-107z" />
<glyph unicode="&#xe3a;" d="M-369 -238q0 47 33 79t82 32t82 -32t33 -79t-33 -78.5t-82 -31.5t-82 31.5t-33 78.5z" />
<glyph unicode="&#xe3f;" horiz-adv-x="1228" d="M152 66v1302q0 31 17 48.5t48 17.5h324v204h82v-204q224 -3 345.5 -102t121.5 -273q0 -115 -56 -190.5t-172 -118.5q293 -71 293 -349q0 -190 -131 -295.5t-371 -105.5h-30v-225h-82v225h-324q-31 0 -48 17.5t-17 48.5zM336 184q0 -10 7 -17t17 -7h181v504h-205v-480z M336 815h205v459h-181q-10 0 -17 -7t-7 -18v-434zM623 160h22q151 0 232 65.5t81 186.5t-81 186.5t-232 65.5h-22v-504zM623 815q135 3 206.5 62.5t71.5 166.5q0 108 -71.5 167.5t-206.5 62.5v-459z" />
<glyph unicode="&#xe40;" horiz-adv-x="561" d="M184 0v1126h181v-974h147l-37 -152h-291z" />
<glyph unicode="&#xe41;" horiz-adv-x="1081" d="M184 0v1126h181v-974h147l-37 -152h-291zM705 0v1126h180v-974h147l-37 -152h-290z" />
<glyph unicode="&#xe42;" horiz-adv-x="581" d="M23 1589v33q0 63 34 97t97 34h493v-147h-434q98 -37 135 -101.5t37 -195.5v-1157h147l-36 -152h-291v1323q0 121 -38 176.5t-144 89.5z" />
<glyph unicode="&#xe43;" horiz-adv-x="581" d="M-49 1436q15 155 119.5 246.5t265.5 91.5q150 0 239 -79.5t89 -213.5q0 -92 -48.5 -179.5t-154.5 -187.5l-76 -72v-890h147l-36 -152h-291v1090l162 149q125 116 125 221q0 74 -43.5 118t-116.5 44q-77 0 -131.5 -50t-69.5 -136h-180z" />
<glyph unicode="&#xe44;" horiz-adv-x="612" d="M-29 1606v147h625v-123q-93 -29 -136.5 -103.5t-43.5 -203.5v-1171h147l-37 -152h-290v1309q0 212 104 297h-369z" />
<glyph unicode="&#xe45;" horiz-adv-x="749" d="M49 975l37 151h127q369 0 369 -358v-1157l-181 -41v1198q0 109 -48.5 158t-157.5 49h-146z" />
<glyph unicode="&#xe46;" horiz-adv-x="1073" d="M49 823q0 145 71 230.5t191 85.5q76 0 129 -36t76 -104h6l90 127h88q100 0 154.5 -50.5t54.5 -141.5v-1323l-180 -41v1323q0 86 -65 86h-15l-92 -129h-108q-9 67 -38 105t-71 38q-47 0 -77 -47t-30 -123q0 -97 51 -152t140 -55h137l-41 -151h-104q-169 0 -268 96.5 t-99 261.5z" />
<glyph unicode="&#xe47;" d="M-930 1503q0 99 66.5 153t187.5 54h445l-41 -131h-387q-53 0 -82 -20t-29 -56q0 -34 28.5 -56t77.5 -22h13l78 84h71q6 -37 37 -60.5t74 -23.5h139l-41 -131h-78q-134 0 -172 101l-86 -101h-61q-115 0 -177.5 54t-62.5 155z" />
<glyph unicode="&#xe48;" d="M-338 1294v348h168v-348h-168z" />
<glyph unicode="&#xe49;" d="M-664 1528l41 131h111q65 0 101 -29.5t36 -83.5q0 -26 -10 -59l-16 -53h409l-41 -140h-549v49l41 138q2 4 2 14q0 14 -9.5 23.5t-26.5 9.5h-89z" />
<glyph unicode="&#xe4a;" d="M-934 1493q0 89 55.5 146t143.5 57q115 0 168 -88l92 88h57q74 0 113 -44.5t39 -129.5v-97h217l-41 -131h-332v215q0 50 -45 50l-78 -68h-76q-5 31 -25.5 49.5t-55.5 18.5q-33 0 -54.5 -20.5t-21.5 -51.5q0 -82 110 -82h50v-119h-78q-110 0 -174 54t-64 153z" />
<glyph unicode="&#xe4b;" d="M-498 1425v127h166v131h156v-131h166v-127h-166v-131h-156v131h-166z" />
<glyph unicode="&#xe4c;" d="M-526 1294v49q0 234 227 234h254l-41 -139h-195q-37 0 -57 -20.5t-20 -57.5v-66h-168z" />
<glyph unicode="&#xe4d;" d="M-457 1438q0 82 58 134t147 52t147 -52t58 -134t-58 -134.5t-147 -52.5t-147 52.5t-58 134.5zM-330 1438q0 -32 22 -54t56 -22t56 22t22 54t-22 53.5t-56 21.5t-56 -21.5t-22 -53.5z" />
<glyph unicode="&#xe4e;" d="M-504 1294v86q0 54 28.5 82.5t82.5 28.5h12v29q0 110 111 110h155v-131h-78q-20 0 -28 -7t-8 -26v-86h-62q-29 0 -41 -12t-12 -41v-33h-160z" />
<glyph unicode="&#xe4f;" horiz-adv-x="1097" d="M90 567q0 193 129.5 319t329.5 126t329.5 -126t129.5 -319t-129.5 -318.5t-329.5 -125.5t-329.5 125.5t-129.5 318.5zM217 567q0 -146 93.5 -240t238.5 -94t238.5 94t93.5 240t-93.5 240t-238.5 94t-238.5 -94t-93.5 -240zM315 567q0 101 66.5 166.5t167.5 65.5 t167 -65.5t66 -166.5t-66 -166t-167 -65q-102 0 -168 65t-66 166zM418 567q0 -58 37 -95.5t94 -37.5t94 37.5t37 95.5t-37 95.5t-94 37.5t-94 -37.5t-37 -95.5z" />
<glyph unicode="&#xe50;" horiz-adv-x="1265" d="M90 500q0 226 153.5 375t389.5 149t389.5 -148.5t153.5 -375.5q0 -226 -153.5 -373t-389.5 -147t-389.5 146.5t-153.5 373.5zM266 500q0 -158 104.5 -261.5t262.5 -103.5t262 103.5t104 261.5q0 160 -104 264t-262 104q-159 0 -263 -104t-104 -264z" />
<glyph unicode="&#xe51;" horiz-adv-x="1249" d="M90 563q0 200 146 330.5t370 130.5q248 0 400.5 -156t152.5 -409q0 -274 -170.5 -449t-451.5 -190l43 155q182 26 292.5 158.5t110.5 325.5q0 184 -104 296.5t-273 112.5q-146 0 -243 -86.5t-97 -218.5q0 -110 68.5 -182t171.5 -72h147l-41 -147h-106q-183 0 -299.5 112 t-116.5 289z" />
<glyph unicode="&#xe52;" horiz-adv-x="1366" d="M156 279v995h172v-995q0 -63 35.5 -97.5t99.5 -34.5h444q64 0 99.5 34.5t35.5 97.5v516q0 69 -57 69h-12l-88 -110h-88q-6 110 -88 110q-44 0 -69.5 -35t-25.5 -96q0 -73 37.5 -116.5t100.5 -43.5h122l-40 -147h-129q-112 0 -183 86t-71 221q0 129 66 206t175 77 q68 0 111 -29.5t53 -83.5h6l84 101h68q97 0 148.5 -49t51.5 -140v-536q0 -134 -74 -206.5t-212 -72.5h-486q-138 0 -212 72.5t-74 206.5z" />
<glyph unicode="&#xe53;" horiz-adv-x="1359" d="M152 276v463q0 128 81.5 204.5t219.5 76.5q88 0 155.5 -33t106.5 -94l96 111h121q131 0 201.5 -69t70.5 -196v-739h-172v729q0 61 -27.5 94t-78.5 33h-54l-110 -127v-10v-416h-164v416q0 66 -37 105.5t-100 39.5t-100 -39.5t-37 -105.5v-453q0 -57 29.5 -88t86.5 -31h142 l-41 -147h-107q-282 0 -282 276z" />
<glyph unicode="&#xe54;" horiz-adv-x="1179" d="M90 516q0 224 128.5 356t346.5 132h201q67 0 103 34t36 97v139h172v-139q0 -134 -73 -206.5t-209 -72.5h-230q-137 0 -218 -91t-81 -249q0 -170 81 -269.5t218 -99.5h176v9q-57 32 -87.5 86.5t-30.5 122.5q0 106 71.5 167.5t194.5 61.5h123l-41 -143h-62 q-51 0 -80.5 -34.5t-29.5 -94.5q0 -78 49.5 -126.5t132.5 -48.5h129l-41 -147h-504q-218 0 -346.5 140t-128.5 376z" />
<glyph unicode="&#xe55;" horiz-adv-x="1179" d="M90 516q0 176 81 297.5t228 165.5q-57 51 -57 131t58 132t147 52t147 -52t58 -132q0 -62 -35 -106h49q69 0 106 34t37 97v139h168v-139q0 -134 -73 -206.5t-209 -72.5h-230q-138 0 -218.5 -91.5t-80.5 -248.5q0 -170 80.5 -269.5t218.5 -99.5h176v9q-57 32 -87.5 86.5 t-30.5 122.5q0 106 71.5 167.5t194.5 61.5h123l-41 -143h-62q-51 0 -80.5 -34.5t-29.5 -94.5q0 -78 49.5 -126.5t132.5 -48.5h129l-41 -147h-504q-218 0 -346.5 140t-128.5 376zM461 1110q0 -35 24.5 -58.5t61.5 -23.5t61.5 23.5t24.5 58.5q0 37 -24.5 60.5t-61.5 23.5 t-61.5 -23.5t-24.5 -60.5z" />
<glyph unicode="&#xe56;" horiz-adv-x="1204" d="M37 1274h170l49 -379h6q120 129 336 129q236 0 376 -140t140 -376q0 -243 -149.5 -385.5t-401.5 -142.5q-212 0 -336.5 108t-124.5 291q0 25 4 49h416l-41 -143h-198q20 -69 94 -109.5t176 -40.5q179 0 282 101t103 272q0 165 -100 262.5t-269 97.5q-100 0 -182 -41.5 t-133 -117.5h-143z" />
<glyph unicode="&#xe57;" horiz-adv-x="1712" d="M152 276v463q0 129 79.5 205t214.5 76q173 0 250 -123l95 107h112q126 0 193 -68t67 -197v-567q0 -10 7.5 -17.5t17.5 -7.5h57q67 0 103 56.5t36 161.5v909h172v-909q0 -167 -78.5 -266t-211.5 -99h-205q-31 0 -48.5 17.5t-17.5 48.5v663q0 61 -25.5 94t-72.5 33h-45 l-111 -127v-10v-416h-159v416q0 66 -34.5 105.5t-94.5 39.5t-94.5 -39.5t-34.5 -105.5v-453q0 -57 29.5 -88t86.5 -31h125l-41 -147h-90q-282 0 -282 276z" />
<glyph unicode="&#xe58;" horiz-adv-x="1228" d="M90 504q0 229 128.5 364.5t346.5 135.5h221q67 0 103.5 34t36.5 97v139h172v-139q0 -134 -73.5 -206.5t-209.5 -72.5h-250q-136 0 -217.5 -96t-81.5 -256q0 -115 44.5 -204.5t119.5 -127.5l107 182h127q24 -219 182 -219q66 0 103.5 35.5t37.5 97.5q0 57 -34 89t-97 32 h-82l41 143h82q121 0 193.5 -71.5t72.5 -190.5q0 -128 -85 -209t-218 -81q-198 0 -276 188h-9l-94 -172q-180 26 -285.5 163.5t-105.5 344.5z" />
<glyph unicode="&#xe59;" horiz-adv-x="1232" d="M152 276v463q0 128 81 204.5t216 76.5q178 0 260 -133l102 117h135q41 0 63.5 22.5t22.5 63.5v184h172v-195q0 -107 -65.5 -165t-186.5 -58h-75l-111 -125l229 -731h-172l-237 756q-34 108 -131 108q-60 0 -95.5 -39.5t-35.5 -105.5v-453q0 -57 29.5 -88t86.5 -31h142 l-41 -147h-107q-282 0 -282 276z" />
<glyph unicode="&#xe5a;" horiz-adv-x="1425" d="M49 817q0 141 89 225t237 84h104l-37 -151h-51q-72 0 -117 -43t-45 -113q0 -85 67 -135.5t177 -50.5q130 0 236 59v434h180v-462q109 23 184 86v376h180v-1126h-180v584q-77 -52 -184 -74v-510h-180v530q-117 -53 -254 -53q-185 0 -295.5 92.5t-110.5 247.5z" />
<glyph unicode="&#xe5b;" horiz-adv-x="1898" d="M90 553q0 209 130 332t351 123h181l-41 -144h-144q-134 0 -213.5 -84.5t-79.5 -226.5q0 -132 70 -211.5t188 -79.5q167 0 274 164.5t124 450.5h190l133 -447h4l113 381h189l75 -258q12 -41 56 -41h159l-41 -143h-163q-105 0 -134 100l-43 141h-8l-104 -346h-203l-104 354 h-9q-29 -235 -168 -371t-348 -136q-198 0 -316 120.5t-118 321.5z" />
<glyph unicode="&#x1e9e;" horiz-adv-x="1433" d="M197 0v1004q0 215 140.5 332.5t389.5 117.5q175 0 318.5 -65t220.5 -191l-271 -401q162 -19 257.5 -122t95.5 -259q0 -196 -137.5 -306t-379.5 -110h-137l39 160h92q156 0 242 66.5t86 187.5q0 116 -65 183t-189 67h-86v143l256 377q-46 55 -136.5 84.5t-201.5 29.5 q-166 0 -260 -76.5t-94 -217.5v-1004h-180z" />
<glyph unicode="&#x2000;" horiz-adv-x="1062" />
<glyph unicode="&#x2001;" horiz-adv-x="2124" />
<glyph unicode="&#x2002;" horiz-adv-x="1062" />
<glyph unicode="&#x2003;" horiz-adv-x="2124" />
<glyph unicode="&#x2004;" horiz-adv-x="708" />
<glyph unicode="&#x2005;" horiz-adv-x="531" />
<glyph unicode="&#x2006;" horiz-adv-x="354" />
<glyph unicode="&#x2007;" horiz-adv-x="354" />
<glyph unicode="&#x2008;" horiz-adv-x="265" />
<glyph unicode="&#x2009;" horiz-adv-x="424" />
<glyph unicode="&#x200a;" horiz-adv-x="118" />
<glyph unicode="&#x200b;" />
<glyph unicode="&#x200c;" />
<glyph unicode="&#x2010;" horiz-adv-x="819" d="M102 492v159h615v-159h-615z" />
<glyph unicode="&#x2011;" horiz-adv-x="819" d="M102 492v159h615v-159h-615z" />
<glyph unicode="&#x2012;" horiz-adv-x="819" d="M102 492v159h615v-159h-615z" />
<glyph unicode="&#x2013;" horiz-adv-x="1064" d="M102 498v147h861v-147h-861z" />
<glyph unicode="&#x2014;" horiz-adv-x="1720" d="M102 498v147h1516v-147h-1516z" />
<glyph unicode="&#x2018;" horiz-adv-x="495" d="M82 967l201 487h110l-106 -487h-205z" />
<glyph unicode="&#x2019;" horiz-adv-x="495" d="M102 967l107 487h205l-201 -487h-111z" />
<glyph unicode="&#x201a;" horiz-adv-x="495" d="M102 -184l107 422h205l-201 -422h-111z" />
<glyph unicode="&#x201c;" horiz-adv-x="823" d="M82 967l201 487h110l-106 -487h-205zM410 967l200 487h111l-107 -487h-204z" />
<glyph unicode="&#x201d;" horiz-adv-x="823" d="M102 967l107 487h205l-201 -487h-111zM430 967l107 487h204l-200 -487h-111z" />
<glyph unicode="&#x201e;" horiz-adv-x="823" d="M102 -184l107 422h205l-201 -422h-111zM430 -184l107 422h204l-200 -422h-111z" />
<glyph unicode="&#x2020;" horiz-adv-x="1052" d="M49 1032v139h397v410h152v-410h406v-139h-406v-1212h-152v1212h-397z" />
<glyph unicode="&#x2021;" horiz-adv-x="1085" d="M66 229v140h397v663h-397v139h397v410h151v-410h406v-139h-406v-663h406v-140h-406v-409h-151v409h-397z" />
<glyph unicode="&#x2022;" horiz-adv-x="618" d="M98 639q0 91 60 150t151 59t151 -59t60 -150q0 -94 -60 -155.5t-151 -61.5t-151 61.5t-60 155.5z" />
<glyph unicode="&#x2026;" horiz-adv-x="1429" d="M143 0v229h217v-229h-217zM606 0v229h217v-229h-217zM1069 0v229h217v-229h-217z" />
<glyph unicode="&#x202f;" horiz-adv-x="424" />
<glyph unicode="&#x2030;" horiz-adv-x="2224" d="M66 1092q0 166 78.5 264t211.5 98q129 0 206 -98t77 -264t-77 -264.5t-206 -98.5q-133 0 -211.5 98.5t-78.5 264.5zM205 1092q0 -112 41 -178t110 -66q66 0 105 66t39 178t-39 177.5t-105 65.5q-69 0 -110 -65.5t-41 -177.5zM264 -121l889 1637h139l-889 -1637h-139z M930 342q0 166 79 264.5t212 98.5q129 0 205.5 -98.5t76.5 -264.5t-76.5 -264t-205.5 -98q-133 0 -212 98t-79 264zM1069 342q0 -112 41.5 -178t110.5 -66q66 0 104.5 65.5t38.5 178.5t-38.5 178.5t-104.5 65.5q-69 0 -110.5 -66t-41.5 -178zM1585 342q0 166 79 264.5 t212 98.5q129 0 206 -98.5t77 -264.5t-77 -264t-206 -98q-133 0 -212 98t-79 264zM1724 342q0 -112 41.5 -178t110.5 -66q66 0 104.5 65.5t38.5 178.5t-38.5 178.5t-104.5 65.5q-69 0 -110.5 -66t-41.5 -178z" />
<glyph unicode="&#x2039;" horiz-adv-x="630" d="M123 514l287 352h118l-211 -348v-8l211 -348h-118z" />
<glyph unicode="&#x203a;" horiz-adv-x="630" d="M102 162l211 348v8l-211 348h119l287 -352l-287 -352h-119z" />
<glyph unicode="&#x2044;" horiz-adv-x="774" d="M-205 0l1036 1434h148l-1036 -1434h-148z" />
<glyph unicode="&#x205f;" horiz-adv-x="531" />
<glyph unicode="&#x20ac;" horiz-adv-x="1228" d="M53 473l41 148h105q-4 62 -4 96q0 55 6 108h-135l40 148h121q60 226 226.5 353.5t406.5 127.5q175 0 324 -76l-64 -145q-117 57 -246 57q-160 0 -274.5 -82.5t-167.5 -234.5h559l-41 -148h-553q-6 -56 -6 -114q0 -32 4 -90h514l-41 -148h-444q47 -158 161 -244t277 -86 q139 0 266 74l72 -145q-151 -92 -352 -92q-240 0 -404 130t-221 363h-170z" />
<glyph unicode="&#x2122;" horiz-adv-x="1785" d="M90 1303l41 131h602l-41 -131h-205v-707h-151v707h-246zM827 596v838h222l194 -613h4l195 613h221v-836h-143v653h-4l-209 -653h-123l-209 653h-4v-655h-144z" />
<glyph unicode="&#x2202;" horiz-adv-x="1097" d="M86 487q0 235 113 373.5t305 138.5q183 0 313 -133q-29 224 -139 340.5t-293 116.5l33 152q278 0 436 -209t158 -578q0 -334 -130.5 -521t-363.5 -187q-200 0 -316 136t-116 371zM270 489q0 -166 65.5 -260t180.5 -94q138 0 220 136t91 380q-50 91 -128 142t-169 51 q-123 0 -191.5 -94t-68.5 -261z" />
<glyph unicode="&#x220f;" horiz-adv-x="1228" d="M29 1294l41 140h1130l-41 -140h-215v-1704h-151v1704h-357v-1704h-151v1704h-256z" />
<glyph unicode="&#x2211;" horiz-adv-x="1228" d="M113 -287l581 801v8l-581 789v123h1003v-140h-805v-8l537 -721v-94l-537 -733v-8h805v-140h-1003v123z" />
<glyph unicode="&#x2212;" horiz-adv-x="1228" d="M117 592v139h995v-139h-995z" />
<glyph unicode="&#x221a;" horiz-adv-x="1228" d="M16 446h160l207 -647h8l420 1635h352v-140h-231l-440 -1704h-201z" />
<glyph unicode="&#x221e;" horiz-adv-x="1617" d="M66 657q0 164 96.5 260.5t247.5 96.5q122 0 215 -61t186 -171q206 232 416 232q147 0 236 -96.5t89 -253.5q0 -164 -96.5 -260.5t-247.5 -96.5q-122 0 -216 62t-185 170q-210 -232 -416 -232q-147 0 -236 96.5t-89 253.5zM205 662q0 -91 56 -147t147 -56q153 0 309 190 q-85 104 -156.5 158.5t-159.5 54.5t-142 -55t-54 -145zM901 674q41 -51 72 -83.5t71.5 -66t83.5 -49.5t89 -16q87 0 141.5 54.5t54.5 145.5q0 93 -56.5 148t-146.5 55q-157 0 -309 -188z" />
<glyph unicode="&#x222b;" horiz-adv-x="741" d="M49 -338l29 154h82q59 0 93 28.5t34 77.5v1268q0 123 82.5 193.5t228.5 70.5h94l-28 -154h-64q-61 0 -97 -28.5t-36 -77.5v-1268q0 -124 -81 -194t-224 -70h-113z" />
<glyph unicode="&#x2248;" horiz-adv-x="1228" d="M66 291q15 130 103 209.5t210 79.5q60 0 130 -22.5t122.5 -49.5t114 -49.5t108.5 -22.5q117 0 143 148h160q-13 -130 -98 -208.5t-203 -78.5q-60 0 -130 22.5t-123 50t-116 50t-110 22.5q-125 0 -152 -151h-159zM66 690q15 130 103 209.5t210 79.5q60 0 130 -22.5 t122.5 -49t114 -49t108.5 -22.5q117 0 143 147h160q-13 -130 -98 -208.5t-203 -78.5q-60 0 -130 23t-123.5 50t-116 50t-109.5 23q-125 0 -152 -152h-159z" />
<glyph unicode="&#x2260;" horiz-adv-x="1228" d="M117 436v139h383l80 173h-463v139h530l139 295h158l-139 -295h307v-139h-375l-80 -173h455v-139h-522l-139 -295h-158l139 295h-315z" />
<glyph unicode="&#x2264;" horiz-adv-x="1228" d="M96 57v140h1037v-140h-1037zM96 664v192l1037 307v-141l-881 -258v-8l881 -258v-142z" />
<glyph unicode="&#x2265;" horiz-adv-x="1228" d="M96 57v140h1037v-140h-1037zM96 356v142l881 258v8l-881 258v141l1037 -307v-192z" />
<glyph unicode="&#x25ca;" horiz-adv-x="1028" d="M66 717l370 737h156l371 -737l-371 -737h-156zM199 717l311 -619h8l311 619l-311 618h-8z" />
<glyph unicode="&#x25fc;" horiz-adv-x="1024" d="M0 0v1024h1024v-1024h-1024z" />
<glyph unicode="&#xfeff;" />
<glyph horiz-adv-x="1265" d="M8 20l41 152h41q90 0 90 90v252l137 121l-219 145v37q55 155 189.5 242.5t316.5 87.5q231 0 364.5 -127t133.5 -346v-768q0 -120 -67 -187t-187 -67h-111q-9 78 -62 125t-134 47t-134.5 -47t-62.5 -125h-172q17 143 110.5 227t235.5 84q100 0 175.5 -42.5t117.5 -121.5 h16q95 0 95 123v752q0 149 -84.5 231t-237.5 82q-109 0 -193 -43.5t-118 -116.5l200 -141v-94l-129 -121v-203q0 -126 -63.5 -187t-192.5 -61h-96z" />
<glyph horiz-adv-x="1265" d="M8 20l41 152h41q90 0 90 90v252l137 121l-219 145v37q55 155 189.5 242.5t316.5 87.5q231 0 364.5 -127t133.5 -346v-764q0 -131 -62.5 -194.5t-191.5 -63.5h-72l-112 121h-9l-112 -121h-82q-14 62 -75.5 94.5t-164.5 32.5l41 151q89 0 149 -36.5t83 -104.5h8l112 121h91 l112 -119h10q46 0 70.5 30.5t24.5 88.5v764q0 149 -84.5 231t-237.5 82q-109 0 -193 -43.5t-118 -116.5l200 -141v-94l-129 -121v-203q0 -126 -63.5 -187t-192.5 -61h-96z" />
<glyph horiz-adv-x="1949" d="M102 782v37q57 154 190.5 241t311.5 87q219 0 350 -126.5t131 -338.5v-264q0 -128 70.5 -203.5t190.5 -75.5t190 75.5t70 203.5v708h180v-729q0 -192 -119.5 -304.5t-320.5 -112.5t-321 112.5t-120 304.5v285q0 144 -82 224.5t-229 80.5q-105 0 -185.5 -42t-115.5 -114 l192 -133v-94l-145 -125v-209q0 -57 30 -87.5t87 -30.5h153l-43 -152h-125q-282 0 -282 276v248l151 125z" />
<glyph horiz-adv-x="1949" d="M102 782v37q57 154 190.5 241t311.5 87q219 0 350 -126.5t131 -338.5v-264q0 -128 70.5 -203.5t190.5 -75.5t190 75.5t70 203.5v708h180v-729q0 -192 -119.5 -304.5t-320.5 -112.5t-321 112.5t-120 304.5v285q0 144 -82 224.5t-229 80.5q-105 0 -185.5 -42t-115.5 -114 l192 -133v-94l-145 -125v-209q0 -57 30 -87.5t87 -30.5h153l-43 -152h-125q-282 0 -282 276v248l151 125zM180 -147h1585v-140h-1585v140z" />
<glyph horiz-adv-x="1257" d="M164 461v665h180v-647q0 -166 69 -253t201 -87q139 0 215 96t76 271v620h180v-1126h-172v156h-8q-116 -176 -352 -176q-190 0 -289.5 123t-99.5 358zM184 -147h899v-140h-899v140z" />
<glyph horiz-adv-x="1257" d="M172 0v1126h180v-620q0 -175 76 -271t215 -96q132 0 201 87t69 253v647h181v-665q0 -236 -99 -358.5t-290 -122.5q-237 0 -353 176h-8v-156h-172zM172 -147h899v-140h-899v140z" />
<glyph horiz-adv-x="1130" d="M57 768q23 174 149 276.5t318 102.5q62 0 121 -19l457 9l-39 -160l-207 22q164 -105 164 -413q0 -269 -140 -427.5t-378 -158.5h-94l-148 455h-170l41 139h256l148 -440q138 14 217 129t79 305q0 191 -79 295t-224 104q-114 0 -192.5 -60.5t-93.5 -158.5h-185z" />
<glyph horiz-adv-x="1091" d="M33 860h184l227 -713h13q160 0 256 117t96 316q0 181 -82.5 288t-220.5 107h-105l41 151h84q214 0 340.5 -148t126.5 -398q0 -266 -140 -423t-376 -157h-166zM143 -147h785v-140h-785v140z" />
<glyph horiz-adv-x="1396" d="M33 1126h178l180 -876h8l211 549h148l203 -545h8l133 602q4 24 4 35q0 46 -34 71t-99 25h-293l49 139h305q71 0 110 31t54 100l25 109l190 41l-35 -147q-19 -76 -64.5 -127.5t-113.5 -73.5q86 -42 86 -148q0 -28 -6 -55l-195 -856h-184l-213 571h-8l-221 -571h-189z" />
<glyph d="M-1047 1528v69h160v-86q0 -35 21.5 -56t56.5 -21h342l-41 -140h-311q-228 0 -228 234z" />
<glyph d="M-729 1294v348h168v-348h-168z" />
<glyph d="M-1063 1528l41 131h111q65 0 101 -29.5t36 -83.5q0 -26 -10 -59l-17 -53h334l-41 -140h-473v49l41 138q2 4 2 14q0 14 -10 23.5t-27 9.5h-88z" />
<glyph d="M-1217 1493q0 90 55.5 146.5t143.5 56.5q103 0 152 -84l84 84h57q143 0 143 -174v-97h148l-41 -131h-254v215q0 23 -11.5 36.5t-31.5 13.5l-72 -68h-76q-5 32 -23.5 50t-49.5 18q-33 0 -52.5 -19.5t-19.5 -52.5q0 -82 115 -82h49v-119h-78q-109 0 -173.5 56t-64.5 151z " />
<glyph d="M-934 1425v127h158v131h151v-131h158v-127h-158v-131h-151v131h-158z" />
<glyph d="M-913 1294v49q0 234 227 234h240l-41 -139h-181q-37 0 -57 -20.5t-20 -57.5v-66h-168z" />
<glyph d="M-1124 1503q0 99 66.5 153t187.5 54h405l-41 -131h-348q-53 0 -82 -20t-29 -56t23 -57t70 -21h12l78 84h71q6 -37 37 -60.5t74 -23.5h100l-41 -131h-39q-134 0 -172 101l-86 -101h-61q-102 0 -163.5 55t-61.5 154z" />
<glyph d="M-1200 1294l41 140h672v-140h-713z" />
<glyph d="M-1200 1294l41 140h512v188h160v-328h-713z" />
<glyph d="M-1200 1294l41 140h340q-4 24 -4 36q0 77 54 127t138 50t138.5 -50t54.5 -127t-54 -126.5t-139 -49.5h-569zM-700 1470q0 -32 19 -52.5t50 -20.5t50.5 20.5t19.5 52.5t-19.5 53t-50.5 21t-50 -21t-19 -53z" />
<glyph d="M-1200 1294l41 140h291v188h147v-188h78v188h156v-328h-713z" />
<glyph d="M-457 1438q0 82 58 134t147 52t147 -52t58 -134t-58 -134.5t-147 -52.5t-147 52.5t-58 134.5zM-330 1438q0 -32 22 -54t56 -22t56 22t22 54t-22 53.5t-56 21.5t-56 -21.5t-22 -53.5zM-328 1720v303h156v-303h-156z" />
<glyph d="M-600 1966l41 119h96q58 0 91.5 -28t33.5 -75q0 -29 -8 -53l-16 -49h372l-41 -127h-495v45l37 119q6 18 6 27q0 22 -27 22h-90zM-457 1438q0 82 58 134t147 52t147 -52t58 -134t-58 -134.5t-147 -52.5t-147 52.5t-58 134.5zM-330 1438q0 -32 22 -54t56 -22t56 22t22 54 t-22 53.5t-56 21.5t-56 -21.5t-22 -53.5z" />
<glyph d="M-645 1942q0 80 49 128t131 48q107 0 152 -80l84 80h53q66 0 101.5 -41t35.5 -117v-88h176l-37 -119h-280v191q0 49 -41 49l-72 -62h-67q-5 28 -24.5 45t-51.5 17q-31 0 -49.5 -16t-18.5 -44q0 -32 27.5 -50.5t73.5 -18.5h45v-119h-72q-98 0 -156.5 53t-58.5 144z M-457 1438q0 82 58 134t147 52t147 -52t58 -134t-58 -134.5t-147 -52.5t-147 52.5t-58 134.5zM-330 1438q0 -32 22 -54t56 -22t56 22t22 54t-22 53.5t-56 21.5t-56 -21.5t-22 -53.5z" />
<glyph d="M-475 1831v115h147v110h152v-110h147v-115h-147v-111h-152v111h-147zM-457 1438q0 82 58 134t147 52t147 -52t58 -134t-58 -134.5t-147 -52.5t-147 52.5t-58 134.5zM-330 1438q0 -32 22 -54t56 -22t56 22t22 54t-22 53.5t-56 21.5t-56 -21.5t-22 -53.5z" />
<glyph d="M-856 1438q0 82 58 134t147 52t147 -52t58 -134t-58 -134.5t-147 -52.5t-147 52.5t-58 134.5zM-729 1438q0 -32 22 -54t56 -22t56 22t22 54t-22 53.5t-56 21.5t-56 -21.5t-22 -53.5z" />
<glyph d="M-856 1438q0 82 58 134t147 52t147 -52t58 -134t-58 -134.5t-147 -52.5t-147 52.5t-58 134.5zM-729 1438q0 -32 22 -54t56 -22t56 22t22 54t-22 53.5t-56 21.5t-56 -21.5t-22 -53.5zM-727 1720v303h156v-303h-156z" />
<glyph d="M-999 1966l41 119h96q58 0 91.5 -28t33.5 -75q0 -29 -8 -53l-17 -49h373l-41 -127h-496v45l37 119q6 18 6 27q0 22 -26 22h-90zM-856 1438q0 82 58 134t147 52t147 -52t58 -134t-58 -134.5t-147 -52.5t-147 52.5t-58 134.5zM-729 1438q0 -32 22 -54t56 -22t56 22t22 54 t-22 53.5t-56 21.5t-56 -21.5t-22 -53.5z" />
<glyph d="M-1044 1942q0 80 49 128t131 48q106 0 151 -80l84 80h54q66 0 101.5 -41t35.5 -117v-88h176l-37 -119h-281v191q0 49 -41 49l-71 -62h-68q-5 28 -24.5 45t-51.5 17q-31 0 -49 -16t-18 -44q0 -32 27 -50.5t73 -18.5h45v-119h-71q-98 0 -156.5 53t-58.5 144zM-856 1438 q0 82 58 134t147 52t147 -52t58 -134t-58 -134.5t-147 -52.5t-147 52.5t-58 134.5zM-729 1438q0 -32 22 -54t56 -22t56 22t22 54t-22 53.5t-56 21.5t-56 -21.5t-22 -53.5z" />
<glyph d="M-874 1831v115h147v110h152v-110h147v-115h-147v-111h-152v111h-147zM-856 1438q0 82 58 134t147 52t147 -52t58 -134t-58 -134.5t-147 -52.5t-147 52.5t-58 134.5zM-729 1438q0 -32 22 -54t56 -22t56 22t22 54t-22 53.5t-56 21.5t-56 -21.5t-22 -53.5z" />
<glyph d="M-319 1741v303h155v-303h-155z" />
<glyph d="M-573 1966l41 119h96q58 0 91.5 -28t33.5 -75q0 -29 -8 -53l-17 -49h373l-41 -127h-496v45l37 119q6 18 6 27q0 22 -26 22h-90z" />
<glyph d="M-686 1942q0 80 49 128t131 48q107 0 152 -80l84 80h53q66 0 101.5 -41t35.5 -117v-88h176l-37 -119h-280v191q0 49 -41 49l-72 -62h-67q-5 28 -24.5 45t-51.5 17q-31 0 -49.5 -16t-18.5 -44q0 -32 27.5 -50.5t73.5 -18.5h45v-119h-72q-98 0 -156.5 53t-58.5 144z" />
<glyph d="M-467 1851v115h148v111h151v-111h148v-115h-148v-110h-151v110h-148z" />
<glyph d="M-430 1741v24q0 217 217 217h209l-41 -127h-160q-37 0 -57.5 -20t-20.5 -57v-37h-147z" />
<glyph d="M-831 1939q0 90 64 137.5t185 47.5h385l-39 -119h-342q-60 0 -85 -15.5t-25 -50.5q0 -31 27 -49t71 -18h8l68 76h65q4 -34 32.5 -55t68.5 -21h131l-37 -119h-76q-119 0 -155 90l-80 -90h-21q-120 0 -182.5 47.5t-62.5 138.5z" />
<glyph d="M-430 -592l37 125h229v-348h-151v223h-115z" />
<glyph d="M-741 -592l36 125h201v-160q0 -34 26.5 -53.5t71.5 -19.5q44 0 70.5 19.5t26.5 53.5v160h145v-172q0 -83 -65.5 -131.5t-176.5 -48.5q-110 0 -174.5 48.5t-64.5 131.5v47h-96z" />
<glyph d="M-369 -565q0 47 33 78.5t82 31.5t82 -31.5t33 -78.5t-33 -79t-82 -32t-82 32t-33 79z" />
<glyph horiz-adv-x="1097" d="M90 567q0 193 129.5 319t329.5 126t329.5 -126t129.5 -319t-129.5 -318.5t-329.5 -125.5t-329.5 125.5t-129.5 318.5zM217 567q0 -146 93.5 -240t238.5 -94t238.5 94t93.5 240t-93.5 240t-238.5 94t-238.5 -94t-93.5 -240zM307 1507h172l-33 -381h-106zM315 567 q0 101 66.5 166.5t167.5 65.5t167 -65.5t66 -166.5t-66 -166t-167 -65q-102 0 -168 65t-66 166zM418 567q0 -58 37 -95.5t94 -37.5t94 37.5t37 95.5t-37 95.5t-94 37.5t-94 -37.5t-37 -95.5zM618 1507h173l-33 -381h-107z" />
<glyph horiz-adv-x="751" d="M160 0v1024h168v-184h8q98 200 291 200h75l-40 -163h-68q-110 0 -184 -101t-74 -252v-524h-176z" />
<glyph d="M-768 1593v181h168v-181h-168zM-424 1593v181h168v-181h-168z" />
<glyph d="M-604 1585v197h184v-197h-184z" />
<glyph d="M-758 1823h209l107 -279h-115z" />
<glyph d="M-582 1544l107 279h209l-201 -279h-115z" />
<glyph d="M-731 1544l65 279h193l-152 -279h-106zM-424 1544l66 279h192l-151 -279h-107z" />
<glyph d="M-803 1544l221 279h140l221 -279h-115l-172 154h-8l-172 -154h-115z" />
<glyph d="M-803 1823h115l172 -154h8l172 154h115l-221 -279h-140z" />
<glyph d="M-780 1806h114q9 -54 51 -86t103 -32t103 32t51 86h114q-9 -112 -81.5 -178.5t-186.5 -66.5t-186.5 66.5t-81.5 178.5z" />
<glyph d="M-705 1696q0 80 54.5 132t138.5 52t138.5 -52t54.5 -132t-54.5 -132.5t-138.5 -52.5t-138.5 52.5t-54.5 132.5zM-614 1696q0 -44 29 -73.5t73 -29.5t73 29.5t29 73.5t-29 73t-73 29t-73 -29t-29 -73z" />
<glyph d="M-815 1561q12 93 63.5 148.5t124.5 55.5q48 0 119.5 -36.5t101.5 -36.5q31 0 53.5 22.5t28.5 59.5h115q-12 -97 -63.5 -155t-124.5 -58q-48 0 -119.5 36.5t-101.5 36.5q-31 0 -53.5 -20t-28.5 -53h-115z" />
<glyph d="M-774 1610v119h524v-119h-524z" />
<glyph d="M-604 -152h184v-196h-184v196z" />
<glyph d="M-684 -430l41 98h108q37 0 58.5 20t21.5 54q0 32 -19.5 51t-53.5 19q-27 0 -58 -17l-65 58l78 167h106l-57 -131q25 7 45 7q61 0 102 -44t41 -110q0 -78 -55 -125t-144 -47h-149z" />
<glyph d="M-688 -190q0 61 43 118t117 92h133q-140 -92 -140 -194q0 -78 91 -78q41 0 92 23v-121q-58 -25 -129 -25q-95 0 -151 50t-56 135z" />
</font>
</defs>
</svg>
