<svg width="13" height="15" viewBox="0 0 13 15" fill="none" xmlns="http://www.w3.org/2000/svg">
<path d="M11.0662 6.80251H10.4131V4.84333C10.4131 2.56306 8.55733 0.707275 6.27706 0.707275C3.99679 0.707275 2.14101 2.56306 2.14101 4.84333V6.80251H1.48795C0.766858 6.80251 0.181824 7.38755 0.181824 8.10864V13.3331C0.181824 14.0542 0.766858 14.6392 1.48795 14.6392H11.0662C11.7873 14.6392 12.3723 14.0542 12.3723 13.3331V8.10864C12.3723 7.38755 11.7873 6.80251 11.0662 6.80251ZM8.23625 6.80251H4.31788V4.84333C4.31788 3.76306 5.19679 2.88415 6.27706 2.88415C7.35733 2.88415 8.23625 3.76306 8.23625 4.84333V6.80251Z" fill="#455A64"/>
</svg>
