<svg width="14" height="16" viewBox="0 0 14 16" fill="none" xmlns="http://www.w3.org/2000/svg">
<path d="M7.13331 7.99999C9.19539 7.99999 10.8666 6.32874 10.8666 4.26666C10.8666 2.20458 9.19539 0.533325 7.13331 0.533325C5.07122 0.533325 3.39997 2.20458 3.39997 4.26666C3.39997 6.32874 5.07122 7.99999 7.13331 7.99999ZM9.74664 8.93333H9.25956C8.61206 9.23083 7.89164 9.39999 7.13331 9.39999C6.37497 9.39999 5.65747 9.23083 5.00706 8.93333H4.51997C2.35581 8.93333 0.599976 10.6892 0.599976 12.8533V14.0667C0.599976 14.8396 1.22706 15.4667 1.99998 15.4667H12.2666C13.0396 15.4667 13.6666 14.8396 13.6666 14.0667V12.8533C13.6666 10.6892 11.9108 8.93333 9.74664 8.93333Z" fill="#455A64"/>
</svg>
